<svg xmlns="http://www.w3.org/2000/svg" width="512" height="512" viewBox="0 0 512 512" version="1.1">
	<path d="M 247.638 30.980 C 242.193 32.720, 241.432 32.742, 236.967 31.300 C 229.203 28.793, 226.089 29.945, 218.966 37.959 C 215.127 42.279, 211.378 45.432, 208.904 46.422 C 204.238 48.289, 193.321 48.482, 182.598 46.887 C 176.433 45.970, 173.827 46.052, 167.807 47.355 C 162.961 48.403, 156.459 48.862, 148.500 48.718 C 134.990 48.473, 131.435 49.632, 124.533 56.533 C 118.880 62.187, 117 66.848, 117 75.214 C 117 81.508, 116.521 83.495, 113.500 89.722 C 108.954 99.092, 108.745 105.467, 112.750 112.601 L 115.500 117.500 115.777 258.362 L 116.053 399.225 112.777 406.341 C 109.989 412.395, 109.502 414.579, 109.512 420.978 C 109.527 430.180, 111.951 435.622, 119.845 444.179 C 133.463 458.940, 160.184 470.483, 193.962 476.197 C 211.081 479.093, 247.131 479.341, 263.500 476.675 C 277.948 474.323, 298.312 468.963, 309.342 464.609 C 327.545 457.424, 341.764 446.475, 348.081 434.781 C 351.072 429.244, 351.476 427.612, 351.487 421 C 351.499 414.365, 351.103 412.750, 348.059 407 C 345.085 401.383, 344.618 399.550, 344.616 393.500 C 344.614 381.948, 348.008 377.711, 360.243 373.995 C 378.700 368.389, 394.367 356.316, 405.483 339.133 C 424.935 309.062, 433.476 256.288, 426.461 209.500 C 422.884 185.640, 414.551 159.253, 406.306 145.680 C 404.292 142.364, 399.344 135.811, 395.311 131.116 C 387.773 122.341, 386.015 118.612, 386.006 111.372 C 385.997 105.357, 384.544 104.559, 376.172 105.971 C 371.056 106.834, 367.116 106.851, 360.890 106.037 C 347.310 104.263, 347.232 104.234, 346.002 100.505 C 345.392 98.657, 343.101 93.682, 340.911 89.449 C 337.186 82.251, 336.971 81.379, 337.586 75.944 C 338.413 68.634, 335.795 62.605, 329.586 57.517 C 319.123 48.943, 307.074 46.264, 295.200 49.871 C 286.546 52.499, 285.670 52.503, 280.360 49.932 C 277.396 48.497, 275.141 46.326, 272.997 42.841 C 269.163 36.610, 265.669 33.267, 260.500 30.886 C 255.606 28.632, 254.974 28.637, 247.638 30.980 M 227.500 41.161 C 224.463 42.831, 222.127 46.090, 220.958 50.285 C 220.114 53.318, 219.322 54.186, 216.975 54.655 C 213.543 55.341, 211.327 57.466, 212.977 58.486 C 213.568 58.851, 216.416 59.394, 219.306 59.692 C 225.233 60.304, 226.278 59.597, 227.723 54.002 C 228.859 49.602, 230.740 49.212, 237.268 52.020 C 241.021 53.634, 243.586 54.081, 246.932 53.704 C 254.876 52.809, 258.068 56.820, 251.573 59.534 C 246.148 61.800, 245.693 67.172, 250.761 69.099 C 254.428 70.494, 259.952 67.447, 262.725 62.500 C 266.693 55.422, 265.249 43.809, 260.055 41.030 C 256.827 39.302, 252.469 39.871, 248.549 42.532 L 244.818 45.063 239.288 42.532 C 233.275 39.779, 230.583 39.465, 227.500 41.161 M 140.500 56.929 C 133.570 58.601, 129.078 63.002, 128.288 68.892 C 127.638 73.737, 129.105 76.007, 132.872 75.985 C 136.532 75.963, 137.378 75.213, 140.322 69.375 C 143.149 63.770, 144.308 63, 149.915 63 C 154.160 63, 155.104 62.434, 154.310 60.365 C 152.982 56.906, 146.884 55.388, 140.500 56.929 M 301.223 58.557 C 298.774 60.272, 298.211 64.811, 300.200 66.800 C 300.928 67.528, 304.462 68, 309.180 68 L 316.959 68 319 72 C 321.534 76.968, 324.342 77.326, 325.892 72.880 C 327.704 67.683, 324.939 63.359, 317.577 59.877 C 310.773 56.658, 304.640 56.163, 301.223 58.557 M 172.120 62.552 C 170.452 63.956, 167.656 67.606, 165.906 70.664 L 162.725 76.223 160.290 73.112 C 156.498 68.266, 150.179 69.023, 147.163 74.684 C 145.363 78.065, 145.735 83.451, 147.905 85.414 C 150.421 87.691, 158.275 90, 163.504 90 C 168.824 90, 171.234 87.499, 171.961 81.223 C 172.471 76.816, 172.698 76.523, 176.243 75.687 C 180.255 74.741, 185 70.065, 185 67.058 C 185 66.075, 184.067 64.084, 182.927 62.635 C 180.237 59.215, 176.124 59.184, 172.120 62.552 M 208.667 63.667 C 208.300 64.033, 208 65.573, 208 67.087 C 208 69.322, 208.555 69.963, 210.941 70.487 C 216.257 71.655, 220.115 67.515, 216.800 64.200 C 215.524 62.924, 209.785 62.548, 208.667 63.667 M 269.667 63.667 C 267.797 65.536, 269.175 70.375, 272.534 73.734 C 275.950 77.150, 276.249 77.246, 281.554 76.623 C 286.883 75.996, 287.069 76.057, 288.005 78.739 C 291.666 89.231, 298.441 91.707, 306.024 85.326 C 309.145 82.700, 309.825 79.410, 307.965 75.934 C 306.646 73.469, 304.922 73.487, 301.727 76 C 298.268 78.721, 297.600 78.548, 296.158 74.559 C 293.186 66.340, 285.626 62.441, 281.500 67 C 278.984 69.780, 277.311 69.501, 275.500 66 C 274.062 63.220, 271.242 62.092, 269.667 63.667 M 225.826 70.712 C 222.906 72.524, 220.611 76.561, 221.595 78.154 C 221.963 78.749, 224.119 78.896, 226.892 78.515 C 230.733 77.987, 232.037 78.242, 234.203 79.945 C 239.943 84.460, 247.500 83.054, 247.500 77.470 C 247.500 74.958, 247.067 74.450, 244.690 74.178 C 243.144 74.001, 241.283 74.350, 240.554 74.955 C 239.528 75.807, 238.761 75.259, 237.149 72.527 C 235.431 69.616, 234.494 69.005, 231.784 69.027 C 229.978 69.041, 227.297 69.800, 225.826 70.712 M 187.484 72.611 C 183.790 76.597, 183.359 79.063, 185.984 81.188 C 189.154 83.755, 191.711 83.443, 195.077 80.077 C 198.436 76.718, 198.786 74.021, 196.171 71.655 C 193.525 69.260, 190.257 69.620, 187.484 72.611 M 205.196 78.051 C 201.111 79.690, 195.099 87.753, 195.035 91.679 C 194.966 95.961, 197.408 97, 207.536 97 C 215.800 97, 217.054 96.767, 217.965 95.066 C 220.656 90.038, 218.113 82.259, 212.701 78.960 C 209.149 76.793, 208.520 76.717, 205.196 78.051 M 264.073 79.635 C 262.933 81.084, 262 82.598, 262 82.999 C 262 83.400, 259.996 84.494, 257.547 85.429 C 252.840 87.227, 251.403 89.486, 252.412 93.506 C 253.271 96.930, 255.668 97.268, 266.601 95.509 C 279.396 93.450, 279.955 92.977, 277.982 85.873 C 275.738 77.797, 268.184 74.408, 264.073 79.635 M 120.947 92.250 C 117.026 102.035, 116.927 105.493, 120.396 111.413 C 125.349 119.865, 139.875 126.573, 166.002 132.475 C 187.391 137.306, 199.264 138.475, 227 138.480 C 286.913 138.492, 332.576 125.499, 338.163 106.850 C 339.290 103.088, 339.133 102.519, 334.469 93.490 L 329.597 84.059 326.548 86.107 C 313.413 94.934, 291.114 101.648, 263.500 105.091 C 247.881 107.039, 204.101 106.768, 189.500 104.634 C 163.862 100.887, 147.856 96.263, 133.346 88.412 C 128.861 85.985, 124.981 84, 124.723 84 C 124.465 84, 122.766 87.713, 120.947 92.250 M 289.758 145.082 C 265.490 154.688, 200.460 155.397, 173.089 146.355 L 165.679 143.906 162.896 146.953 C 161.365 148.629, 159.459 150, 158.660 150 C 156.334 150, 151.184 156.603, 149.957 161.159 C 149.298 163.609, 149.119 167.450, 149.527 170.422 C 149.910 173.215, 150.408 224.550, 150.633 284.500 L 151.041 393.500 148.403 399.387 C 146.044 404.652, 145.888 405.683, 146.928 409.153 C 148.611 414.772, 153.009 419.232, 161.018 423.440 C 172.573 429.512, 181.871 432.216, 202.652 435.548 C 207.817 436.377, 210.776 431.807, 207.750 427.675 C 206.975 426.616, 204.032 425.576, 200 424.936 C 188.188 423.060, 179.903 416.436, 174.234 404.336 L 171.500 398.500 170.912 297.500 C 170.589 241.950, 170.656 193.697, 171.062 190.271 C 172.325 179.622, 179.029 169.126, 187.357 164.759 C 190.740 162.986, 193.244 162.579, 201 162.544 C 209.664 162.504, 210.500 162.666, 210.500 164.390 C 210.500 165.729, 209.335 166.627, 206.500 167.472 C 200.237 169.338, 196.318 171.717, 193.571 175.318 C 187.808 182.873, 188 179.371, 188 277.061 C 188 338.246, 188.340 367.767, 189.067 369.685 C 189.653 371.233, 191.116 373.555, 192.317 374.845 C 196.933 379.803, 197.618 379.892, 232.460 380.069 C 269.013 380.255, 267.657 380.494, 272.770 372.981 L 275.040 369.645 274.770 276.573 L 274.500 183.500 271.770 178.855 C 268.124 172.654, 264.139 169.477, 258.048 167.916 C 254.319 166.960, 253 166.149, 253 164.811 C 253 163.190, 253.999 163, 262.540 163 C 269.987 163, 272.909 163.423, 275.858 164.928 C 279.968 167.024, 286.031 173.225, 288.339 177.690 C 292.332 185.419, 292.343 185.746, 292.075 291.442 C 291.831 387.827, 291.714 393.714, 289.944 399.442 C 284.834 415.978, 273.434 424.770, 255.803 425.775 C 246.251 426.320, 244.369 427.348, 245.400 431.458 C 246.467 435.708, 248.765 436.149, 261.288 434.507 C 295.183 430.064, 317 418.912, 317 406.031 C 317 404.343, 315.616 400.383, 313.924 397.231 C 310.860 391.523, 310.849 391.445, 311.174 377.969 C 311.499 364.473, 311.510 364.417, 315.430 356.699 L 319.359 348.961 317.592 339.579 C 315.988 331.061, 315.851 323.561, 316.105 258.124 C 316.259 218.484, 316.049 185.715, 315.638 185.305 C 315.227 184.894, 314.473 185.220, 313.961 186.029 C 313.411 186.899, 313.024 215.612, 313.015 256.282 C 313.001 318.559, 312.841 325.416, 311.319 328.782 L 309.637 332.500 308.814 319.500 C 308.362 312.350, 308.133 279.050, 308.305 245.500 C 308.618 184.661, 308.625 184.484, 310.914 178.500 C 312.814 173.533, 313.099 171.403, 312.565 166.132 C 311.579 156.400, 306.931 149, 301.803 149 C 300.840 149, 299.353 147.650, 298.500 146 C 296.727 142.571, 296.233 142.519, 289.758 145.082 M 358 165.690 C 354.172 167.048, 348.649 171.742, 346.437 175.518 L 344 179.676 344 238.656 C 344 305.411, 343.932 304.716, 351.265 312.672 C 356.423 318.268, 359.721 320.001, 365.200 319.996 C 370.250 319.992, 374.717 317.549, 378.325 312.818 C 381.835 308.216, 386.481 293.708, 388.674 280.500 C 391.189 265.349, 391.181 228.483, 388.659 212 C 386.205 195.964, 383.153 183.311, 380.437 177.910 C 377.978 173.020, 372.363 167.469, 368.324 165.933 C 365.705 164.937, 360.469 164.814, 358 165.690 M 201.668 183.253 C 199.161 185.087, 198.523 190.922, 200.351 195.298 C 201.652 198.412, 202.379 199, 204.926 199 C 209.231 199, 211.470 195.340, 210.578 189.760 C 209.497 183.002, 205.752 180.267, 201.668 183.253 M 257.417 184.355 C 257.131 185.101, 257.033 188.541, 257.199 192.001 C 257.549 199.318, 259.614 201.816, 262.731 198.695 C 264.876 196.548, 265.109 187.041, 263.076 184.592 C 261.461 182.646, 258.127 182.506, 257.417 184.355 M 236.989 188.250 C 234.873 191.720, 234.456 195.591, 235.944 197.943 C 237.457 200.335, 241.604 197.730, 242.995 193.514 C 245.551 185.771, 240.956 181.744, 236.989 188.250 M 219.200 208.200 C 216.240 211.160, 219.507 216.869, 223.069 214.963 C 226.257 213.257, 225.023 207, 221.500 207 C 220.895 207, 219.860 207.540, 219.200 208.200 M 258.217 226.238 C 258.474 236.433, 258.679 237.510, 260.434 237.847 C 263.361 238.408, 265.002 235.234, 264.978 229.059 C 264.953 222.714, 261.956 215, 259.516 215 C 258.151 215, 257.973 216.538, 258.217 226.238 M 202.041 217.450 C 201.379 218.248, 200.350 221.745, 199.755 225.222 C 198.881 230.324, 198.946 232.118, 200.093 234.522 C 201.777 238.050, 205.909 239.019, 208.086 236.396 C 209.696 234.456, 209.636 226.077, 207.968 219.882 C 206.852 215.736, 204.325 214.699, 202.041 217.450 M 242.143 220.490 C 238.043 225.160, 236.281 231.608, 238.178 235 C 241.421 240.797, 246.012 235.564, 246.752 225.227 C 247.053 221.013, 246.846 218.023, 246.225 217.639 C 245.662 217.291, 243.825 218.574, 242.143 220.490 M 200.121 250.574 C 195.643 256.266, 198.620 270, 204.330 270 C 207.135 270, 209.585 267.538, 210.524 263.776 C 211.322 260.577, 208.287 253.557, 204.612 250.105 L 202.241 247.878 200.121 250.574 M 257.809 253.750 C 257.639 254.162, 257.725 279.919, 258 310.987 C 258.461 363.017, 258.634 367.499, 260.192 367.799 C 261.253 368.003, 262.465 367.001, 263.442 365.112 C 265.762 360.625, 265.792 260.432, 263.474 255.950 C 262.072 253.239, 258.579 251.882, 257.809 253.750 M 200.935 276.578 C 200.171 277.499, 199.545 279.939, 199.545 282 C 199.545 288.754, 204.394 291.381, 207.660 286.396 C 209.196 284.052, 209.223 283.377, 207.933 279.646 C 206.342 275.043, 203.312 273.714, 200.935 276.578 M 217.050 291.440 C 216.393 292.231, 216.001 294.144, 216.178 295.690 C 216.431 297.894, 217.078 298.567, 219.183 298.810 C 222.973 299.248, 224.775 295.832, 222.548 292.433 C 220.743 289.678, 218.803 289.327, 217.050 291.440 M 200.137 306.250 C 199.689 307.488, 199.363 320.669, 199.411 335.543 C 199.491 359.881, 199.681 362.863, 201.313 365.354 C 202.364 366.959, 203.835 367.986, 204.813 367.798 C 206.343 367.503, 206.525 364.710, 206.765 337.699 C 206.937 318.308, 206.664 307.240, 205.980 305.962 C 204.549 303.289, 201.147 303.456, 200.137 306.250 M 217.098 326.149 C 214.897 332.464, 216.179 337, 220.165 337 C 222.757 337, 224.294 333.382, 223.502 329.145 C 222.250 322.445, 218.930 320.892, 217.098 326.149 M 188.514 383.250 C 189.291 387.002, 190.819 388.461, 196.839 391.199 C 199.799 392.545, 202.023 392.939, 203.839 392.438 C 205.302 392.034, 219.844 391.805, 236.153 391.928 C 267.533 392.164, 269.089 391.972, 273.122 387.352 C 274.526 385.744, 276.303 380, 275.396 380 C 275.216 380, 272.941 381.350, 270.339 383 L 265.608 386 232.635 386 L 199.662 386 194.346 383 C 191.422 381.350, 188.763 380, 188.436 380 C 188.109 380, 188.144 381.462, 188.514 383.250 M 188.367 396.084 C 189.252 400.512, 192.775 405.008, 196.617 406.613 C 201.731 408.750, 262.889 408.621, 267.435 406.464 C 270.652 404.937, 275 398.701, 275 395.614 C 275 393.494, 274.500 393.571, 270.876 396.250 C 267.853 398.485, 267.588 398.500, 232.088 398.500 L 196.344 398.500 192.739 395.750 C 188.159 392.257, 187.610 392.299, 188.367 396.084 M 146.500 427.587 C 152.018 432.213, 167.421 438.991, 179.138 441.950 C 193.451 445.565, 206.011 447.389, 207.352 446.048 C 208.608 444.792, 208.343 444.712, 192.500 441.625 C 176.765 438.559, 166.553 435.316, 154.116 429.436 C 148.955 426.996, 144.455 425.016, 144.116 425.036 C 143.777 425.056, 144.850 426.204, 146.500 427.587 M 306.071 429.734 C 295.558 434.682, 276.069 439.982, 258.315 442.721 C 250.189 443.974, 247 444.856, 247 445.850 C 247 447.531, 254.900 446.881, 271 443.874 C 289.807 440.362, 311.968 432.358, 315.856 427.673 C 318.287 424.744, 315.368 425.359, 306.071 429.734 M 302.864 443.548 C 280.829 453.912, 243.085 459.601, 213.500 457.017 C 190.201 454.983, 173.391 450.987, 157.795 443.776 C 148.745 439.592, 146 439.435, 146 443.101 C 146 451.368, 173.558 460.758, 207.651 464.106 C 228.877 466.191, 262.517 464.129, 282.720 459.506 C 293.293 457.087, 310.628 451.080, 313.455 448.857 C 316.812 446.216, 318.258 443.387, 317.488 440.962 C 316.548 437.999, 313.524 438.534, 302.864 443.548" stroke="none" fill="black" fill-rule="evenodd"/>
</svg>