<svg xmlns="http://www.w3.org/2000/svg" width="512" height="512" viewBox="0 0 512 512" version="1.1">
	<path d="M 256 25.965 C 256 29.259, 254.527 30.371, 248.793 31.406 C 246.548 31.811, 244.281 33.098, 243.043 34.672 C 240.362 38.081, 240.461 38.845, 243.748 40.094 C 249.817 42.402, 251.410 45.919, 248.439 50.452 L 246.879 52.834 242.617 50.949 C 239.184 49.430, 237.651 49.258, 234.742 50.061 C 224.035 53.017, 222.468 69.046, 232.299 75.040 C 236.135 77.380, 238.541 77.488, 242.364 75.494 C 246.044 73.575, 246.986 73.613, 248.608 75.750 C 250.901 78.771, 250.161 81.870, 246.094 86.282 C 242.516 90.164, 241.570 90.618, 234.809 91.693 C 220.547 93.962, 210.589 99.240, 204.665 107.669 C 200.084 114.186, 200.060 119.058, 204.564 127.500 C 219.322 155.157, 221.679 162.261, 220.724 176.202 C 220.324 182.036, 219.474 185.511, 217.486 189.441 C 215.536 193.294, 214.967 195.573, 215.429 197.679 C 216.026 200.393, 215.640 200.862, 209.691 204.655 C 202.136 209.472, 198.998 214.731, 199.004 222.566 C 199.009 229.604, 201.524 233.150, 209.175 236.905 C 228.718 246.495, 266.925 248.797, 293.549 241.988 C 314.495 236.630, 321.543 229.684, 318.442 217.453 C 316.902 211.382, 309.584 204.091, 303.070 202.139 C 299.699 201.129, 298.981 200.527, 299.546 199.185 C 301.255 195.134, 301.106 192.907, 298.884 189.313 C 295.382 183.646, 294.940 168.849, 297.974 158.859 C 300.322 151.129, 306.440 138.586, 312.993 128.069 C 317.549 120.756, 318.023 116.797, 315.097 110.500 C 310.186 99.931, 293.368 91.066, 278.132 91.015 C 274.402 91.002, 273.198 90.434, 269.882 87.118 C 265.261 82.496, 264.856 79.053, 268.507 75.402 C 270.844 73.065, 271.163 73, 273.229 74.448 C 278.872 78.400, 287.620 74.713, 290.047 67.359 C 293.636 56.484, 283.867 45.832, 274.431 50.331 C 269.670 52.602, 268.155 52.435, 266.814 49.491 C 265.336 46.248, 266.835 43.313, 271.540 40.241 C 273.443 38.998, 275 37.586, 275 37.102 C 275 34.815, 271.023 31.831, 266.500 30.724 C 261.889 29.595, 261.476 29.247, 261.187 26.250 C 260.927 23.558, 260.455 23, 258.437 23 C 256.402 23, 256 23.490, 256 25.965 M 366.300 140.801 C 355.073 144.812, 347.752 152.701, 343.975 164.855 C 340.340 176.553, 342.274 189.178, 349.278 199.466 C 351.756 203.106, 351.835 203.508, 350.239 204.348 C 344.429 207.406, 339.238 214.689, 337.033 222.876 C 334.597 231.923, 339.456 241.962, 349.498 248.630 C 352.524 250.639, 355 252.912, 355 253.681 C 355 256.586, 350.867 263.017, 348.072 264.463 C 346.472 265.290, 342.741 266.873, 339.780 267.981 C 336.819 269.089, 332.874 271.566, 331.013 273.486 C 328.126 276.465, 327.567 277.831, 327.209 282.787 C 326.834 287.977, 327.080 288.941, 329.520 291.842 C 333.322 296.360, 338.471 298.819, 350.750 301.982 L 355 303.077 354.992 312.289 C 354.970 336.623, 349.366 360.582, 340.393 374.701 C 337.135 379.827, 328.849 387.151, 322.344 390.654 L 319.015 392.447 313.420 386.973 C 302.572 376.363, 295.852 365.105, 289.522 346.934 C 280.420 320.810, 279.169 291.028, 285.413 249.138 C 285.741 246.937, 285.518 246.818, 282.133 247.382 C 264.571 250.310, 250.361 250.478, 236.522 247.919 C 233.377 247.338, 230.570 247.097, 230.283 247.384 C 229.996 247.670, 230.469 253.664, 231.333 260.702 C 233.784 280.655, 234.269 294.287, 233.079 309.746 C 230.691 340.757, 223.819 363.248, 211.766 379.500 C 207.520 385.225, 196.288 397.001, 195.075 396.999 C 194.282 396.998, 182.500 386.473, 177.216 381.046 C 166.223 369.756, 158.073 341.031, 158.020 313.386 L 158 303.272 162.750 302.627 C 171.077 301.496, 177.011 298.956, 181.602 294.557 C 185.744 290.588, 186 290.026, 186 284.904 C 186 277.287, 182.939 273.027, 174.605 269.050 C 171.090 267.373, 167.800 266, 167.294 266 C 164.890 266, 159 257.447, 159 253.955 C 159 253.452, 160.912 252.083, 163.250 250.913 C 182.789 241.128, 183.925 219.262, 165.565 206.323 L 162.630 204.255 165.836 200.207 C 178.242 184.543, 175.740 160.503, 160.363 147.637 C 143.766 133.750, 118.771 139.437, 109.031 159.315 C 102.707 172.221, 102.914 183.264, 109.721 196.264 L 113.263 203.029 108.113 208.474 C 99.553 217.525, 97.111 226.394, 100.520 236.056 C 102.604 241.964, 106.076 246.242, 111.540 249.635 C 116.044 252.432, 116.143 252.602, 115.695 256.791 C 115.099 262.365, 113.254 264.259, 105.164 267.602 C 92.766 272.724, 89 276.991, 89 285.916 C 89 290.084, 89.517 291.519, 92.060 294.416 C 95.360 298.174, 102.515 301.355, 110.289 302.521 L 115 303.227 115 313.074 C 115 344.483, 106.878 373.142, 95.213 382.892 C 92.621 385.059, 87.595 389.246, 84.043 392.197 C 72.747 401.583, 69.460 412.428, 74.008 425.310 L 76.253 431.668 73.123 435.988 C 63.232 449.643, 69.433 462.008, 90.184 470.011 C 104.901 475.686, 112.307 477.192, 128.182 477.739 C 146.051 478.353, 159.021 476.489, 172.904 471.309 C 181.396 468.141, 182.399 467.962, 183.238 469.460 C 187.405 476.907, 200.820 484.794, 217.235 489.449 C 244.044 497.052, 280.187 496.609, 305 488.373 C 316.273 484.632, 326.393 479.309, 331.727 474.317 L 336.500 469.849 346.500 472.907 C 361.343 477.447, 368.384 478.332, 384.911 477.732 C 402.448 477.096, 414.734 474.220, 428.603 467.506 C 445.996 459.085, 449.871 449.249, 441.016 436 C 437.429 430.633, 437.423 430.559, 440.123 424.454 C 444.190 415.260, 440.757 402.760, 431.689 393.750 C 429.337 391.412, 424.161 386.650, 420.188 383.167 C 413.996 377.739, 412.329 375.525, 408.514 367.667 C 401.512 353.241, 397.004 330.256, 397.001 308.971 L 397 302.443 404.045 301.333 C 421.182 298.635, 428.995 288.747, 423.106 277.210 C 420.527 272.156, 418.721 270.719, 409.930 266.721 C 403.735 263.903, 402.055 262.635, 400.680 259.738 C 397.878 253.832, 398.468 251.908, 404.286 247.980 C 413.407 241.824, 417.454 231.512, 414.601 221.698 C 412.512 214.515, 405.035 205.512, 399.673 203.724 C 399.106 203.535, 400.142 201.200, 401.976 198.534 C 410.792 185.721, 411.913 171.866, 405.236 158.230 C 402.117 151.860, 394.636 144.611, 388.278 141.799 C 381.707 138.892, 372.777 138.486, 366.300 140.801 M 219.667 190.667 C 219.300 191.033, 219 192.630, 219 194.214 C 219 198.424, 223.043 201.589, 232.400 204.706 C 239.719 207.144, 241.899 207.403, 255 207.392 C 279.785 207.370, 296.250 201.822, 296.250 193.491 C 296.250 192.075, 295.974 190.641, 295.638 190.304 C 295.301 189.968, 291.982 191.093, 288.263 192.806 C 278.574 197.267, 265.318 199.357, 251 198.681 C 238.847 198.107, 232.556 196.599, 225.228 192.504 C 220.130 189.655, 220.542 189.791, 219.667 190.667 M 296 206.104 C 288.280 214.900, 263.149 219.247, 241.676 215.503 C 229.754 213.424, 222.734 210.600, 219.047 206.400 C 214.267 200.957, 212.022 204.243, 216.029 210.816 C 218.314 214.563, 224.414 217.631, 235.500 220.610 C 246.227 223.493, 271.645 223.276, 282.323 220.211 C 295.269 216.496, 299.570 213.618, 301.401 207.448 C 301.735 206.319, 301.445 204.657, 300.755 203.756 C 299.635 202.293, 299.124 202.545, 296 206.104 M 163.500 401.087 C 161.850 402.155, 156.900 404.190, 152.500 405.610 C 138.105 410.255, 118.676 408.902, 107.133 402.451 C 103.180 400.241, 102.465 400.124, 100.597 401.379 C 97.246 403.630, 92 409.132, 92 410.396 C 92 419.519, 122.307 427.378, 144.801 424.089 C 158.234 422.125, 173.823 416.069, 176.022 411.959 C 176.621 410.840, 176.835 409.054, 176.497 407.990 C 175.912 406.148, 168.270 398.919, 167.070 399.073 C 166.757 399.113, 165.150 400.020, 163.500 401.087 M 218.227 404.746 C 212.803 411.843, 212.153 414.382, 214.594 418.936 C 221.706 432.204, 266.071 437.373, 292.653 428.031 C 307.096 422.954, 310.323 413.818, 301.555 402.828 L 298.762 399.329 296.362 401.729 C 284.004 414.087, 238.116 413.955, 225 401.523 L 222.500 399.154 218.227 404.746 M 339.750 402.536 C 334.591 406.320, 334.189 407.532, 336.571 412.138 C 338.429 415.730, 344.950 418.989, 356.590 422.143 C 367.800 425.180, 389.066 425.163, 400.462 422.108 C 420.425 416.756, 424.803 410.409, 414.140 402.276 L 409.796 398.963 406.499 401.001 C 399.846 405.112, 391.880 407.163, 380.500 407.695 C 367.832 408.287, 359.189 406.711, 350.741 402.268 C 347.858 400.752, 345.275 399.408, 345 399.282 C 344.725 399.156, 342.363 400.620, 339.750 402.536 M 78 435.143 C 78 444.041, 102.754 455.445, 126.579 457.524 C 140.727 458.758, 162.836 454.610, 175.307 448.382 C 181.493 445.294, 187 440.311, 187 437.804 C 187 435.475, 186.681 435.516, 181.572 438.511 C 170.211 445.169, 151.512 449.370, 133 449.423 C 112.514 449.481, 96.669 445.467, 83.750 436.945 C 78.613 433.556, 78 433.364, 78 435.143 M 432.003 435.144 C 427.571 438.830, 417.893 443.138, 408.078 445.794 C 399.403 448.141, 396.710 448.391, 379.500 448.443 C 357.800 448.508, 350.059 447.212, 338.196 441.527 C 331.553 438.343, 331.057 438.245, 330.496 440.012 C 329.478 443.220, 320.556 449.871, 311.827 453.929 C 286.707 465.606, 247.833 467.244, 219 457.838 C 209.403 454.708, 198.142 448.780, 192.750 444.022 C 190.137 441.716, 188 440.098, 188 440.426 C 188 442.746, 192.888 450.570, 196.217 453.577 C 210.093 466.113, 246.553 473.594, 276.026 469.953 C 291.751 468.011, 303.091 465.205, 311.470 461.185 C 321.610 456.319, 326.712 451.910, 329.495 445.604 L 331.656 440.708 333.987 443.982 C 338.941 450.939, 359.442 457.074, 378 457.153 C 390.831 457.208, 398.466 456.098, 411 452.354 C 425.280 448.088, 433.036 442.849, 434.950 436.175 C 436.008 432.484, 435.440 432.285, 432.003 435.144" stroke="none" fill="black" fill-rule="evenodd"/>
</svg>