<svg xmlns="http://www.w3.org/2000/svg" width="512" height="512" viewBox="0 0 512 512" version="1.1">
	<path d="M 358.500 100.561 C 334.333 104.432, 303.339 109.218, 242.500 118.470 C 145.655 133.199, 127.578 136.105, 126.319 137.150 C 125.244 138.042, 125 155.623, 125 232.122 C 125 321.690, 125.084 326.084, 126.826 327.826 C 128.378 329.378, 131.644 329.834, 148.576 330.862 C 194.503 333.651, 221.188 334.968, 232.093 334.984 C 238.469 334.993, 249.198 335.296, 255.934 335.659 L 268.182 336.317 258.775 339.409 C 253.601 341.109, 248.122 343.323, 246.599 344.328 L 243.831 346.157 244.126 366.535 C 244.288 377.743, 244.097 387.236, 243.702 387.631 C 243.307 388.026, 231.543 387.286, 217.560 385.986 L 192.136 383.623 182.318 385.804 C 176.918 387.003, 158.550 391.518, 141.500 395.836 C 118.158 401.748, 110.423 404.080, 110.190 405.276 C 109.966 406.422, 110.795 406.953, 113.164 407.182 C 116.153 407.471, 116.523 407.881, 117.282 411.746 C 117.741 414.081, 118.877 416.391, 119.808 416.878 C 122.946 418.523, 151.943 422.366, 238 432.543 C 299.463 439.812, 295.411 439.997, 325.500 428.563 L 348.500 419.823 401 419.661 L 453.500 419.500 453.500 416.500 L 453.500 413.500 403.500 413 C 363.047 412.595, 353.027 412.231, 351.021 411.092 C 348.654 409.748, 348.631 409.648, 350.521 408.890 C 362.868 403.934, 363.155 403.755, 362.562 401.389 C 362.053 399.364, 362.499 398.945, 366.242 397.924 C 377.872 394.753, 383.558 392.475, 389.122 388.760 C 403.774 378.976, 413.433 359.102, 410.039 345.722 C 409.311 342.850, 408.532 340.005, 408.308 339.399 C 408.066 338.747, 410.061 337.931, 413.200 337.399 L 418.500 336.500 418.500 226.550 L 418.500 116.601 408.500 108.711 C 393.870 97.169, 393.528 96.993, 386 97.102 C 382.425 97.154, 370.050 98.711, 358.500 100.561 M 397.570 216.668 L 397.950 332.837 394.440 335.918 L 390.930 339 372.215 338.996 C 361.922 338.993, 339.378 338.527, 322.118 337.961 C 304.858 337.394, 290.582 337.085, 290.392 337.275 C 289.538 338.128, 289.710 388.110, 290.569 388.969 C 291.090 389.490, 306.125 391.227, 323.981 392.829 L 356.447 395.743 364.920 393.412 C 377.282 390.011, 385.337 385.687, 392.093 378.825 C 400.067 370.726, 404.375 361.827, 404.819 352.539 C 405.241 343.697, 403.431 337.632, 400.234 337.179 C 398.909 336.990, 398.249 336.407, 398.642 335.771 C 399.509 334.367, 398.959 169.718, 397.956 130.500 C 397.503 112.774, 397.345 148.029, 397.570 216.668 M 351 117.073 C 337.525 119.219, 307.150 123.656, 283.500 126.933 C 243.825 132.430, 227.520 134.640, 165 142.994 C 152.625 144.648, 141.108 146.233, 139.406 146.516 L 136.313 147.032 135.609 223.766 C 135.183 270.269, 134.504 302.017, 133.887 304.351 C 133.327 306.469, 133.011 308.331, 133.184 308.489 C 133.358 308.646, 190.309 309.105, 259.743 309.509 L 385.985 310.243 385.469 260.871 C 385.186 233.717, 384.685 189.338, 384.358 162.250 L 383.763 113 379.631 113.085 C 377.359 113.132, 364.475 114.927, 351 117.073 M 370 118.105 C 360.796 119.918, 301.381 128.069, 268.500 132.031 C 237.308 135.790, 224.480 137.478, 162.500 145.985 C 150.950 147.570, 140.785 149.142, 139.912 149.478 C 138.512 150.017, 138.246 154.969, 137.663 191.295 C 137.300 213.958, 137.002 247.639, 137.001 266.142 L 137 299.783 139.572 300.429 C 140.987 300.784, 195.683 301.023, 261.119 300.959 L 380.094 300.844 379.465 210.172 C 379.120 160.302, 378.663 118.938, 378.450 118.250 C 378.016 116.848, 376.515 116.822, 370 118.105 M 234 143.624 C 217.750 146.771, 201.364 158.196, 191.105 173.534 C 183.066 185.554, 179.110 199.076, 179.035 214.792 C 178.822 259.198, 221.294 291.216, 261.612 277.045 C 279.298 270.829, 294.847 254.285, 301.598 234.500 C 305.229 223.856, 306.094 206.016, 303.536 194.517 C 298.404 171.451, 281.248 152.041, 260.086 145.357 C 255.396 143.876, 238.498 142.753, 234 143.624 M 231.227 152.447 C 212.671 156.941, 195.116 174.307, 188.718 194.500 C 185.444 204.833, 185.519 223.811, 188.870 233 C 196.138 252.929, 214.515 268.978, 233.750 272.195 C 261.297 276.801, 290.036 253.945, 295.607 223 C 299.321 202.372, 292.443 180.640, 277.436 165.584 C 274.101 162.238, 269.117 158.277, 266.361 156.783 C 256.222 151.285, 242.843 149.634, 231.227 152.447 M 237.655 319.829 C 234.317 323.517, 236.203 328, 241.093 328 C 245.245 328, 246.780 321.023, 243.066 319.035 C 240.388 317.602, 239.560 317.724, 237.655 319.829 M 330.106 322.802 C 328.665 325.495, 330.859 328.296, 334.056 327.845 C 336.028 327.567, 336.500 326.921, 336.500 324.500 C 336.500 321.989, 336.063 321.449, 333.817 321.190 C 331.979 320.978, 330.811 321.485, 330.106 322.802 M 374.571 322.571 C 372.692 324.450, 372.570 326.170, 374.200 327.800 C 376.645 330.245, 382 328.577, 382 325.371 C 382 323.727, 379.193 321, 377.500 321 C 376.754 321, 375.436 321.707, 374.571 322.571 M 354.688 322.646 C 353.216 324.117, 353.990 327.149, 355.750 326.810 C 356.712 326.624, 357.500 325.616, 357.500 324.570 C 357.500 322.580, 355.869 321.464, 354.688 322.646 M 384.500 341.133 C 382.850 341.662, 372.500 341.961, 361.500 341.797 L 341.500 341.500 341.729 347 C 342.091 355.712, 342.783 356, 363.388 356 C 383.302 356, 383.874 355.796, 387.616 347.333 C 391.082 339.496, 390.878 339.089, 384.500 341.133 M 118 406.584 C 120.482 407.167, 181.270 414.327, 244.500 421.484 C 279.029 425.393, 287.815 425.858, 284.135 423.583 C 281.409 421.899, 192.897 411.469, 148 407.542 C 132.649 406.199, 113.799 405.598, 118 406.584" stroke="none" fill="black" fill-rule="evenodd"/>
</svg>