<svg xmlns="http://www.w3.org/2000/svg" width="512" height="512" viewBox="0 0 512 512" version="1.1">
	<path d="M 454.500 86.552 C 451.200 87.309, 435 90.892, 418.500 94.516 C 390.182 100.734, 374.367 104.424, 371.026 105.593 C 369.963 105.965, 370.869 107.317, 374.276 110.446 L 379 114.783 379 141.383 L 379 167.983 372.750 163.324 C 360.176 153.952, 361 155.597, 361 139.860 L 361 126.094 365 122.880 C 367.200 121.112, 369 119.341, 369 118.944 C 369 118.548, 366.005 116.345, 362.344 114.050 C 354.815 109.329, 356.858 109.359, 335 113.650 C 328.125 115, 322.144 116.460, 321.708 116.894 C 321.272 117.329, 322.485 118.760, 324.403 120.074 C 329.246 123.392, 330.006 125.682, 329.956 136.797 C 329.897 150.093, 328.876 154.713, 325.362 157.587 C 323.788 158.875, 322.163 159.944, 321.750 159.964 C 320.345 160.031, 320.951 144.054, 322.493 140.362 C 323.315 138.396, 323.777 136.448, 323.520 136.033 C 322.732 134.757, 308.360 130, 305.293 130 C 303.702 130, 294.659 131.125, 285.197 132.500 C 259.738 136.200, 254.311 135.891, 223.294 128.980 L 210.087 126.037 199.794 129.597 C 194.132 131.555, 188.488 133.807, 187.250 134.601 C 185.092 135.987, 185 135.921, 185 132.988 C 185 131.306, 185.715 128.839, 186.588 127.506 C 188.423 124.706, 189.810 125.286, 173.500 122.033 L 163.500 120.038 156.097 123.542 L 148.695 127.046 150.847 129.338 C 152.846 131.465, 152.999 132.659, 152.993 146.064 L 152.986 160.500 147.018 167.992 C 143.736 172.112, 140.671 175.610, 140.208 175.764 C 139.745 175.918, 139.555 164.672, 139.786 150.772 L 140.206 125.500 143.603 121.958 C 145.471 120.010, 147 118.134, 147 117.790 C 147 117.446, 142.613 116.186, 137.250 114.991 C 131.887 113.795, 108.055 108.341, 84.290 102.869 L 41.080 92.921 31.040 98.674 C 25.518 101.838, 21 104.734, 21 105.110 C 21 105.485, 22.688 107.274, 24.750 109.085 L 28.500 112.377 29 168.938 L 29.500 225.500 81 226.018 C 109.325 226.303, 134.188 226.356, 136.250 226.136 L 140 225.737 140 212.227 L 140 198.717 159.750 199.588 C 170.612 200.067, 182.200 200.468, 185.500 200.479 L 191.500 200.500 191.779 213.732 L 192.058 226.963 215.267 227.232 L 238.476 227.500 239.169 232.348 C 240.160 239.282, 241.404 239.624, 240.630 232.750 L 239.983 227 271.023 227 C 294.963 227, 302.159 227.286, 302.484 228.250 C 304.121 233.110, 303.765 233.487, 297.250 233.798 C 291.819 234.056, 291 234.351, 291 236.048 C 291 237.808, 291.727 238, 298.393 238 C 306.554 238, 308.301 236.696, 305.500 232.696 C 304.675 231.519, 304 229.755, 304 228.777 C 304 227.234, 304.976 227, 311.418 227 C 322.620 227, 321.998 227.843, 322.011 212.643 C 322.017 205.414, 322.308 197.771, 322.657 195.658 C 323.255 192.035, 323.468 191.842, 326.375 192.268 C 329.179 192.680, 356.168 190.980, 370.232 189.506 L 375.965 188.905 376.232 213.702 L 376.500 238.500 399.518 238.385 C 412.178 238.322, 427.434 237.937, 433.420 237.529 C 442.985 236.877, 444.591 236.500, 446.670 234.421 L 449.035 232.056 448.768 207.278 L 448.500 182.500 444.618 182.182 C 442.483 182.007, 440.313 182.287, 439.796 182.804 C 439.259 183.341, 438.901 193.371, 438.961 206.222 C 439.054 226.050, 438.870 228.863, 437.402 230.081 C 435.432 231.716, 399.586 233.467, 394.576 232.173 L 391.500 231.378 391 218.950 C 390.577 208.448, 390.245 206.474, 388.851 206.207 C 386.569 205.771, 385.592 213.534, 386.495 224.938 C 386.888 229.902, 386.802 234.004, 386.299 234.315 C 383.694 235.925, 383.254 232.533, 382.884 208.017 L 382.500 182.534 385 181.342 C 391.736 178.128, 443.544 172.232, 451 173.831 L 454.500 174.582 454.500 243.541 L 454.500 312.500 443.091 312.784 C 430.902 313.088, 410.244 310.213, 392.354 305.722 L 383.500 303.500 383.234 275.250 C 383.012 251.586, 383.196 247, 384.368 247 C 386.486 247, 386.971 250.270, 386.986 264.643 C 386.998 275.904, 387.235 277.876, 388.643 278.417 C 389.547 278.763, 390.393 278.924, 390.523 278.774 C 390.653 278.623, 391.151 272.200, 391.630 264.500 L 392.500 250.500 415.313 250.730 C 427.860 250.856, 438.548 251.220, 439.063 251.539 C 439.601 251.871, 440 261.681, 440 274.559 L 440 297 443.378 297 C 445.235 297, 447.268 296.382, 447.895 295.627 C 448.698 294.659, 448.956 286.759, 448.767 268.877 L 448.500 243.500 412.436 243.238 L 376.372 242.975 376.436 258.238 L 376.500 273.500 346.500 273.542 C 317.595 273.582, 305.572 274.265, 304.547 275.924 C 304.076 276.686, 315.752 277.283, 357.750 278.645 L 378 279.302 378 281.651 C 378 283.818, 377.594 284, 372.750 283.999 C 356.746 283.994, 288.452 279.182, 273 276.970 C 263.206 275.568, 255.043 275.806, 238.373 277.980 C 230.053 279.065, 210.478 280.631, 194.873 281.459 C 154.388 283.609, 151.184 283.929, 150.665 285.875 C 150.320 287.171, 150.209 287.119, 150.116 285.617 C 149.985 283.495, 148.542 283.509, 101.260 286.095 L 78.020 287.367 77.750 332.933 L 77.479 378.500 77.240 332.811 L 77 287.123 72.250 286.498 C 69.638 286.154, 59.547 284.552, 49.826 282.937 C 40.105 281.321, 31.893 280, 31.576 280 C 31.259 280, 31 305.660, 31 337.021 L 31 394.043 33.250 394.990 C 45.935 400.331, 74.652 410.687, 75.681 410.292 C 76.617 409.933, 77 407.516, 77 401.960 C 77 395.367, 77.276 394.055, 78.750 393.627 C 80.360 393.160, 94.071 390.548, 124.299 384.950 C 130.788 383.748, 136.404 383.070, 136.777 383.444 C 137.150 383.817, 137.691 386.458, 137.978 389.311 L 138.500 394.500 142 394.157 C 146.187 393.747, 147.774 392.599, 148.190 389.677 C 148.459 387.791, 149.701 387.255, 157.500 385.665 C 162.450 384.655, 187.643 379.368, 213.485 373.915 C 239.327 368.462, 262.076 364, 264.039 364 C 266.001 364, 286.708 368.232, 310.053 373.404 C 333.399 378.576, 358.332 384.008, 365.461 385.475 C 372.589 386.942, 378.777 388.362, 379.211 388.630 C 379.645 388.899, 380 391.320, 380 394.012 C 380 398.802, 380.078 398.928, 383.689 399.925 C 385.718 400.485, 388.306 400.728, 389.439 400.465 C 390.573 400.201, 405.900 403.772, 423.500 408.400 L 455.500 416.814 468 411.315 C 474.875 408.290, 481.063 405.352, 481.750 404.785 C 482.740 403.970, 483 373.459, 483 258.355 L 483 112.955 487.086 108.522 C 489.334 106.084, 490.911 103.664, 490.590 103.146 C 489.784 101.842, 462.534 84.979, 461.409 85.088 C 460.909 85.137, 457.800 85.796, 454.500 86.552 M 449.639 107.694 C 448.638 108.696, 448.886 158, 449.893 158 C 451.708 158, 452 154.325, 452 131.477 C 452 110.277, 451.554 105.780, 449.639 107.694 M 56.667 118.667 C 56.300 119.033, 56 139.733, 56 164.667 L 56 210 63.025 210 C 69.645 210, 70.106 209.852, 71.025 207.435 C 71.600 205.921, 72 188.260, 72 164.358 L 72 123.846 69.077 120.923 C 66.730 118.576, 65.285 118, 61.744 118 C 59.318 118, 57.033 118.300, 56.667 118.667 M 390.658 119.750 C 389.749 121.232, 388.966 155.577, 389.764 158.994 C 390.246 161.061, 391.278 162.622, 392.290 162.817 C 393.862 163.120, 394 161.362, 394 141.073 C 394 122.521, 393.770 119, 392.559 119 C 391.766 119, 390.911 119.338, 390.658 119.750 M 91.411 141 C 91.411 150.625, 91.561 154.563, 91.745 149.750 C 91.928 144.937, 91.928 137.062, 91.745 132.250 C 91.561 127.438, 91.411 131.375, 91.411 141 M 112.975 131.565 C 112.404 133.068, 112 149.825, 112 172.030 C 112 208.477, 112.074 209.969, 113.934 210.965 C 116.559 212.370, 122.327 212.273, 123.800 210.800 C 124.692 209.908, 125 199.756, 125 171.300 C 125 134.333, 124.930 132.930, 123 131 C 121.757 129.757, 119.667 129, 117.475 129 C 114.612 129, 113.768 129.481, 112.975 131.565 M 165.931 130.855 C 163.837 132.550, 163.602 133.706, 163.197 144.278 C 162.762 155.645, 162.799 155.890, 165.332 158.423 C 168.663 161.754, 176.318 162.144, 177.965 159.066 C 179.049 157.040, 179.389 137.050, 178.402 133.372 C 177.270 129.157, 169.872 127.664, 165.931 130.855 M 185.015 149.536 C 185.029 160.574, 185.898 165.436, 187.558 163.775 C 187.925 163.408, 188.287 158.151, 188.363 152.092 C 188.478 142.816, 188.224 140.800, 186.750 139.324 C 185.083 137.655, 185.001 138.140, 185.015 149.536 M 256.523 151.250 C 256.181 154.137, 256.036 170, 256.201 186.500 L 256.500 216.500 259.500 216.500 L 262.500 216.500 262.763 181.250 L 263.026 146 260.085 146 C 257.283 146, 257.115 146.248, 256.523 151.250 M 299.409 162.500 C 299.408 171.850, 299.558 175.810, 299.743 171.299 C 299.928 166.789, 299.929 159.139, 299.745 154.299 C 299.562 149.460, 299.410 153.150, 299.409 162.500 M 216.437 173 C 216.437 187.575, 216.577 193.537, 216.747 186.250 C 216.918 178.963, 216.918 167.037, 216.747 159.750 C 216.577 152.463, 216.437 158.425, 216.437 173 M 281.699 149.780 C 280.177 151.462, 280 154.900, 280 182.794 C 280 213.425, 280.034 213.948, 282.105 215.056 C 283.288 215.689, 285.704 215.903, 287.619 215.544 L 291.027 214.904 290.763 181.702 L 290.500 148.500 286.949 148.201 C 284.468 147.993, 282.886 148.469, 281.699 149.780 M 239 170.930 C 239 192.163, 239.074 193, 240.955 193 C 243.743 193, 244.136 189.547, 243.794 168 C 243.503 149.677, 243.478 149.497, 241.250 149.180 L 239 148.861 239 170.930 M 157.446 175.454 C 154.867 180.754, 152.969 185.302, 153.227 185.561 C 153.690 186.023, 182.831 189.194, 198.500 190.488 L 206.500 191.148 194.247 178.824 L 181.994 166.500 172.064 166.158 L 162.134 165.817 157.446 175.454 M 352.500 175.625 C 313.663 179.646, 299.424 181.244, 298.750 181.658 C 298.337 181.911, 298 182.831, 298 183.702 C 298 185.505, 299.682 185.433, 338.500 181.968 C 365.767 179.535, 373.455 178.403, 376.564 176.366 C 377.904 175.488, 379 174.597, 379 174.385 C 379 173.651, 365.435 174.285, 352.500 175.625 M 362.500 183.092 C 358.650 183.547, 346.767 184.609, 336.093 185.450 C 325.419 186.292, 316.494 187.173, 316.259 187.408 C 314.662 189.005, 329.708 188.851, 349.335 187.071 C 361.895 185.932, 372.582 185, 373.085 185 C 373.588 185, 374 184.325, 374 183.500 C 374 181.848, 373.231 181.821, 362.500 183.092 M 140.695 188.643 C 132.458 191.039, 157.643 194.451, 192.099 195.607 C 205.566 196.059, 212.913 195.950, 213.319 195.294 C 213.714 194.654, 209.322 194.036, 201.220 193.592 C 194.224 193.209, 180.400 191.994, 170.500 190.892 C 147.669 188.351, 142.928 187.993, 140.695 188.643 M 85.703 198.140 C 86.050 202.797, 85.827 207.059, 85.132 209.053 C 83.782 212.924, 84.577 214.298, 86.582 211.557 C 88.528 208.895, 88.518 195.084, 86.567 192.441 C 85.293 190.716, 85.197 191.349, 85.703 198.140 M 94.182 196.250 C 94.715 198.588, 94.879 203.425, 94.546 207 C 94.041 212.430, 94.146 213.171, 95.186 211.500 C 96.578 209.263, 96.913 198.976, 95.731 194.750 C 94.483 190.286, 93.122 191.603, 94.182 196.250 M 297.639 200.832 C 296.674 203.558, 297.869 217.578, 298.961 216.340 C 299.369 215.878, 299.423 211.675, 299.083 207 C 298.629 200.766, 298.244 199.122, 297.639 200.832 M 242.688 205.264 C 243.019 208.477, 242.770 212.221, 242.095 214.156 C 240.986 217.339, 241.014 217.415, 242.680 215.748 C 244.762 213.667, 245.220 202.826, 243.308 200.910 C 242.384 199.985, 242.244 200.967, 242.688 205.264 M 236.815 208.084 C 236.422 216.129, 236.616 217.221, 238.039 214.971 C 239.227 213.093, 239.251 203.945, 238.073 202.084 C 237.484 201.154, 237.053 203.210, 236.815 208.084 M 216.252 212.500 C 216.263 214.700, 216.468 215.482, 216.707 214.238 C 216.946 212.994, 216.937 211.194, 216.687 210.238 C 216.437 209.282, 216.241 210.300, 216.252 212.500 M 85.293 238.678 C 84.871 239.778, 85.398 240.852, 86.825 241.800 C 88.021 242.594, 89 243.879, 89 244.654 C 89 245.430, 90.013 246.471, 91.250 246.969 C 92.840 247.608, 90.712 247.893, 84 247.942 C 64.492 248.084, 59.935 252.672, 71.956 260.068 C 76.960 263.147, 80 267.761, 80 272.276 C 80 274.238, 79.364 274.877, 76.925 275.365 C 74.691 275.812, 73.941 276.461, 74.185 277.740 C 74.464 279.198, 75.806 279.554, 82.011 279.816 C 92.421 280.256, 100 279.237, 100 277.397 C 100 276.594, 99.342 275.685, 98.538 275.376 C 96.593 274.630, 95.769 271.769, 96.574 268.560 C 97.004 266.849, 98.826 265.040, 101.865 263.309 C 111.668 257.723, 113.002 254.848, 108.077 249.923 C 105.520 247.366, 104.423 246.998, 99.327 246.985 C 95.817 246.975, 94.024 246.637, 94.817 246.134 C 95.777 245.526, 95.316 244.960, 93.126 244.052 C 91.083 243.206, 89.911 241.873, 89.479 239.903 C 88.782 236.731, 86.317 236.009, 85.293 238.678 M 171.195 241.873 C 171.634 244.867, 171.461 245.063, 167.850 245.640 C 165.756 245.975, 163.349 246.755, 162.502 247.374 C 161.317 248.240, 162.987 248.500, 169.731 248.500 C 174.554 248.500, 179.400 248.877, 180.500 249.338 C 181.960 249.950, 181.743 249.477, 179.694 247.588 C 178.151 246.165, 176.014 245, 174.944 245 C 173.550 245, 173 244.310, 173 242.559 C 173 241.216, 172.490 239.803, 171.866 239.417 C 171.079 238.931, 170.874 239.685, 171.195 241.873 M 232.250 239.744 C 224.838 240.047, 224 240.280, 224 242.040 C 224 243.762, 224.759 244.018, 230.250 244.145 C 239.281 244.355, 243.409 243.937, 244.157 242.736 C 245.178 241.099, 243.968 238.977, 242.143 239.204 C 241.239 239.315, 236.787 239.559, 232.250 239.744 M 98.336 241.567 C 97.448 243.882, 99.413 245.412, 100.928 243.586 C 102.210 242.043, 101.629 240, 99.910 240 C 99.375 240, 98.667 240.705, 98.336 241.567 M 79.688 243.646 C 78.197 245.136, 79.052 246.799, 81.041 246.279 C 82.163 245.986, 82.923 245.268, 82.728 244.685 C 82.278 243.333, 80.580 242.753, 79.688 243.646 M 252.667 245.667 C 252.300 246.033, 252 250.983, 252 256.667 C 252 266.887, 252.026 267, 254.383 267 C 257.424 267, 257.969 264.998, 257.986 253.750 C 258 245.246, 257.934 245, 255.667 245 C 254.383 245, 253.033 245.300, 252.667 245.667 M 260 256.500 C 260 267.333, 260.116 268, 262 268 C 263.863 268, 264.014 267.266, 264.201 257.250 C 264.381 247.666, 264.440 247.347, 264.744 254.315 C 265.039 261.039, 265.325 262.085, 266.793 261.806 C 268.696 261.445, 269.625 254.147, 268.520 248.253 C 267.953 245.234, 267.625 245, 263.955 245 L 260 245 260 256.500 M 276.547 249.750 C 276.201 251.813, 276.031 256.313, 276.170 259.750 C 276.398 265.431, 276.620 266, 278.604 266 C 281.517 266, 282 264.353, 282 254.418 C 282 246.187, 281.946 246, 279.588 246 C 277.579 246, 277.071 246.627, 276.547 249.750 M 285.209 246.851 C 284.273 247.444, 283.998 250.126, 284.209 256.585 C 284.484 265.011, 284.625 265.518, 286.787 265.824 C 289.052 266.146, 289.071 266.054, 288.787 256.405 C 288.507 246.908, 287.857 245.172, 285.209 246.851 M 291.425 247.334 C 291.144 248.067, 291.046 252.455, 291.207 257.084 C 291.481 264.947, 291.648 265.521, 293.750 265.820 C 295.956 266.133, 296 265.940, 296 256.070 C 296 246.615, 295.876 246, 293.969 246 C 292.851 246, 291.707 246.600, 291.425 247.334 M 237.211 249.607 C 236.326 250.562, 233.536 251, 228.325 251 L 220.728 251 221.313 255.264 C 221.634 257.609, 222.483 261.322, 223.200 263.514 L 224.502 267.500 231.780 267.794 L 239.058 268.089 241.007 263.794 C 242.079 261.432, 242.966 258.773, 242.978 257.885 C 242.990 256.997, 243.900 255.126, 245 253.727 C 247.590 250.435, 247.524 250, 244.434 250 C 243.023 250, 241.111 249.598, 240.184 249.107 C 239.053 248.507, 238.076 248.671, 237.211 249.607 M 69 253.668 C 69 254.163, 70.307 255.341, 71.904 256.284 C 76.611 259.065, 106.635 258.370, 105.793 255.500 C 105.615 254.891, 99.440 254.486, 90 254.464 C 81.475 254.444, 73.263 254.054, 71.750 253.598 C 70.170 253.120, 69 253.150, 69 253.668 M 157.009 254.900 C 151.636 255.618, 149.998 258.640, 154.691 259.178 C 157.420 259.491, 157.508 259.689, 157.793 266.120 L 158.085 272.739 144.043 273.463 C 133.302 274.016, 130 274.503, 130 275.532 C 130 277.887, 138.427 278.317, 168.963 277.519 C 185.208 277.095, 201.578 276.827, 205.340 276.923 C 209.741 277.036, 211.956 276.738, 211.553 276.086 C 210.516 274.408, 204.029 273.003, 194.208 272.330 L 184.916 271.693 185.208 265.096 C 185.490 258.727, 185.595 258.489, 188.250 258.184 C 192.284 257.719, 191.619 255.364, 187.250 254.642 C 182.738 253.896, 163.283 254.062, 157.009 254.900 M 239.643 287 C 240.729 290.168, 240.751 297.809, 239.683 300.750 C 239.166 302.172, 239.251 303, 239.914 303 C 241.278 303, 242.335 298.703, 242.427 292.787 C 242.479 289.433, 241.965 287.559, 240.643 286.287 C 238.848 284.560, 238.814 284.584, 239.643 287 M 280.888 289.750 C 279.697 292.830, 280.174 302.574, 281.585 303.985 C 282.138 304.538, 282.500 301.361, 282.500 295.950 C 282.500 291.027, 282.376 287, 282.225 287 C 282.074 287, 281.472 288.238, 280.888 289.750 M 273.630 291.250 C 272.741 294.568, 272.900 300.294, 273.927 301.916 C 274.504 302.828, 274.824 300.778, 274.824 296.166 C 274.824 292.225, 274.691 289, 274.528 289 C 274.366 289, 273.962 290.012, 273.630 291.250 M 119.264 294.718 C 120.784 294.947, 123.034 294.941, 124.264 294.704 C 125.494 294.467, 124.250 294.279, 121.500 294.286 C 118.750 294.294, 117.744 294.488, 119.264 294.718 M 101.750 295.662 C 102.438 295.940, 103.563 295.940, 104.250 295.662 C 104.938 295.385, 104.375 295.158, 103 295.158 C 101.625 295.158, 101.063 295.385, 101.750 295.662 M 192.025 301.565 C 193.293 304.901, 193.275 313.146, 191.992 316.521 C 191.221 318.549, 191.280 319.076, 192.242 318.762 C 194.275 318.098, 195.518 307.674, 194.121 303.008 C 193.460 300.804, 192.499 299, 191.985 299 C 191.415 299, 191.431 300.002, 192.025 301.565 M 111.250 301.254 C 105.612 301.782, 101 302.596, 101 303.062 C 101 304.539, 107.999 305.294, 115.680 304.644 C 123.377 303.994, 127.482 302.588, 126.469 300.950 C 125.818 299.897, 125.730 299.898, 111.250 301.254 M 199.324 309.593 C 199.301 315.402, 199.610 318.673, 200.072 317.500 C 201.071 314.962, 201.099 304.110, 200.112 301.593 C 199.700 300.544, 199.346 304.140, 199.324 309.593 M 318.607 301.582 C 317.641 304.100, 317.934 316.350, 319 318 C 319.663 319.025, 319.974 316.414, 319.985 309.750 C 320 300.028, 319.757 298.586, 318.607 301.582 M 327.667 300.667 C 326.709 301.624, 326.841 318.784, 327.811 319.383 C 328.257 319.659, 328.596 315.410, 328.565 309.942 C 328.534 304.474, 328.469 300, 328.421 300 C 328.373 300, 328.033 300.300, 327.667 300.667 M 451.445 357 C 451.445 374.325, 451.582 381.413, 451.748 372.750 C 451.915 364.087, 451.915 349.913, 451.748 341.250 C 451.582 332.587, 451.445 339.675, 451.445 357 M 150.300 363 C 150.300 366.025, 150.487 367.262, 150.716 365.750 C 150.945 364.238, 150.945 361.762, 150.716 360.250 C 150.487 358.738, 150.300 359.975, 150.300 363" stroke="none" fill="black" fill-rule="evenodd"/>
</svg>