<svg xmlns="http://www.w3.org/2000/svg" width="512" height="512" viewBox="0 0 512 512" version="1.1">
	<path d="M 264.709 62.529 C 256.045 66.389, 251.953 66.758, 238.253 64.915 C 232.382 64.125, 227.647 64.135, 220.844 64.955 C 207.407 66.573, 204.566 67.556, 198.975 72.522 C 189.742 80.722, 182.603 82.772, 176.471 78.982 C 170.903 75.541, 166.751 76.045, 156.472 81.411 C 149.012 85.305, 146.152 86.236, 139.500 86.939 C 123.439 88.634, 83.814 95.089, 79.713 96.678 C 74.246 98.797, 63.928 105.590, 52.018 114.912 C 33.504 129.402, 27.243 133.672, 22.604 134.971 C 19.945 135.715, 17.077 137.358, 15.962 138.775 C 11.890 143.952, 14.528 155.392, 20.829 159.878 C 26.731 164.081, 36.455 164.678, 42 161.178 C 43.771 160.060, 46.446 159.677, 51.177 159.864 C 59.045 160.174, 63.143 158.482, 64.922 154.189 C 66.059 151.444, 66.540 151.248, 73.581 150.653 C 82.091 149.933, 86.439 148.022, 93.276 141.994 L 98.053 137.784 104.678 139.034 C 111.876 140.392, 125.542 139.929, 137.706 137.915 C 146.234 136.502, 149.760 137.508, 153.508 142.422 C 159.785 150.652, 167.429 173.266, 170.830 193.672 C 172.154 201.617, 173.973 208.381, 176.066 213.150 C 180.219 222.612, 180.195 226.463, 175.942 233.090 C 170.357 241.794, 172.226 248.600, 183.563 260.846 C 188.872 266.580, 190 268.398, 190 271.222 C 190 274.021, 190.958 275.602, 195.250 279.882 C 201.984 286.598, 209.500 291.579, 216.751 294.133 C 223.680 296.573, 236.893 297.001, 245 295.049 C 251.636 293.451, 260.790 289.004, 263.405 286.109 C 267.238 281.865, 269.298 283.031, 288.586 300.366 C 302.489 312.861, 313.040 319.696, 323.500 322.984 C 329.531 324.880, 329.658 325.615, 324.361 327.959 C 319.909 329.928, 318.475 330.048, 306.944 329.422 C 295.619 328.806, 293.941 328.937, 289.940 330.749 C 287.498 331.854, 283.594 334.623, 281.265 336.902 C 277.606 340.482, 276.654 340.940, 274.265 340.273 C 270.243 339.149, 259.742 339.533, 257.192 340.897 C 255.987 341.542, 255 342.750, 255 343.581 C 255 344.411, 253.895 346.195, 252.545 347.545 C 249.363 350.728, 242.480 350.952, 238.721 347.995 C 237.318 346.892, 234.696 345.870, 232.894 345.724 C 230.147 345.501, 229.484 344.948, 228.800 342.309 C 228.139 339.756, 227.086 338.813, 223.242 337.330 C 214.901 334.111, 198.150 335.560, 196.587 339.634 C 196.262 340.480, 197.355 349.080, 199.014 358.745 C 201.766 374.771, 202.017 378.131, 201.873 396.909 C 201.696 420.016, 202.726 427.273, 208.561 444.038 C 211.735 453.156, 223.290 480.624, 224.433 481.767 C 225.422 482.756, 230.685 482.159, 234.302 480.647 C 243.072 476.983, 250.376 466.904, 253.379 454.324 C 255.318 446.199, 257.371 440, 258.122 440 C 258.471 440, 259.787 442.755, 261.046 446.123 C 264.392 455.071, 267.187 458.005, 272.339 457.978 C 278.799 457.943, 283.004 453.539, 282.996 446.816 C 282.991 442.272, 280.336 438.299, 273.093 432 C 269.712 429.059, 267.296 426.339, 267.723 425.955 C 268.150 425.571, 273.411 423.357, 279.412 421.035 C 292.700 415.895, 293.455 415.439, 295.708 411.195 C 297.015 408.733, 299.124 407.078, 303.500 405.081 C 306.800 403.574, 311.665 400.465, 314.311 398.171 C 319.032 394.078, 319.261 394, 326.593 394 C 335.652 394, 338.805 392.749, 346.201 386.220 C 353.804 379.509, 356.974 378.575, 369.427 379.377 C 382.127 380.195, 387.346 378.921, 403.553 371.048 C 413.704 366.116, 416.491 364.237, 421.208 359.142 C 427.924 351.888, 430.548 345.277, 429.667 337.833 C 428.686 329.550, 426.774 326.687, 399.075 292.039 C 382.945 271.861, 369.771 258.814, 341.156 234.677 C 335.815 230.171, 330.437 224.596, 328.476 221.530 C 326.603 218.602, 323.474 215.220, 321.523 214.014 C 317.121 211.293, 316 209.265, 316 204.016 C 316 199.840, 313.694 194, 312.046 194 C 311.549 194, 309.535 192.484, 307.571 190.632 C 304.191 187.444, 304 186.918, 304 180.788 C 304 176.917, 303.196 171.975, 302 168.500 C 299.406 160.960, 299.436 160.463, 303.144 149.660 C 311.454 125.449, 317.551 119.274, 330.500 121.954 C 339.557 123.828, 365.666 124.396, 375.500 122.933 C 387.549 121.140, 391.353 121.319, 398.816 124.029 C 405.802 126.566, 406.898 126.447, 427.300 120.943 L 435.100 118.839 438.483 121.419 C 442.674 124.616, 447.807 124.788, 455.740 122 C 459.512 120.674, 463.994 120, 469.034 120 C 488.623 120, 500.226 109.708, 494.423 97.478 C 491.963 92.296, 487.286 90.577, 478.071 91.471 C 468.189 92.430, 467.256 92.363, 457.855 90.023 C 450.299 88.143, 439.581 84.388, 423.215 77.887 C 411.771 73.341, 408.098 72.782, 401.862 74.634 C 398.390 75.666, 394.737 76.024, 391.500 75.650 C 374.181 73.650, 331.838 66.775, 323.089 64.541 C 314.563 62.365, 310.489 61.891, 300.589 61.924 C 292.670 61.951, 286.806 61.454, 283.591 60.483 C 276.450 58.326, 273.403 58.656, 264.709 62.529 M 261.585 200.107 C 240.307 203.210, 218.995 213.841, 205.612 228.028 C 198.112 235.979, 196.766 238.256, 194.581 246.689 C 192.221 255.795, 192.683 257.144, 196.056 251 C 199.589 244.564, 213.903 229.698, 222.500 223.535 C 239.239 211.535, 264.203 204.015, 287.333 204.004 C 293.950 204.001, 296.064 203.686, 295.758 202.750 C 295.534 202.063, 293.809 200.963, 291.925 200.306 C 288.009 198.942, 270.367 198.826, 261.585 200.107 M 292 226.069 C 290.625 226.540, 283.425 228.325, 276 230.037 C 261.821 233.304, 257.361 234.694, 258.239 235.572 C 258.530 235.863, 261.633 235.178, 265.134 234.050 C 268.635 232.922, 276.450 230.878, 282.500 229.508 C 292.737 227.190, 293.587 227.134, 294.750 228.700 C 295.857 230.190, 296 230.075, 296 227.691 C 296 224.816, 295.844 224.753, 292 226.069 M 296.048 239.635 C 294.724 241.568, 289.475 247.494, 284.384 252.805 C 274.875 262.724, 272.669 266.004, 279.903 259.469 C 284.508 255.308, 299.507 237.174, 298.870 236.537 C 298.642 236.309, 297.372 237.703, 296.048 239.635 M 177.223 340.557 C 175.905 341.479, 175 343.161, 175 344.686 C 175 349.095, 180.029 370.007, 183.734 381 C 187.608 392.499, 187.599 391.237, 183.953 412.339 C 182.151 422.767, 183.685 427.993, 198.294 461.205 C 206.660 480.221, 207.974 482.426, 211.173 482.804 C 214.720 483.223, 217.323 480.443, 216.508 477.106 C 216.158 475.673, 212.111 465.950, 207.515 455.500 C 202.919 445.050, 197.894 432.675, 196.349 428 C 193.720 420.044, 193.553 418.540, 193.738 404.500 C 193.916 390.994, 193.528 387.110, 189.848 365.500 C 187.600 352.300, 185.310 340.938, 184.758 340.250 C 183.385 338.539, 179.901 338.681, 177.223 340.557 M 252 355.125 C 249.301 356.675, 247.319 357.024, 243.338 356.649 C 237.623 356.111, 237.852 355.870, 234.936 365.500 C 234.270 367.700, 232.436 372.076, 230.861 375.224 L 227.998 380.947 230.902 382.449 C 232.500 383.276, 238.419 385.740, 244.056 387.926 C 255.644 392.420, 254.122 392.726, 263.776 383.960 L 269.877 378.420 263.910 367.960 C 260.629 362.207, 257.682 356.488, 257.363 355.250 C 256.669 352.559, 256.476 352.554, 252 355.125 M 275.817 394.998 C 268.927 399.562, 268.312 400.566, 270.323 403.970 C 272.242 407.218, 272.458 410.277, 270.965 413.066 C 269.680 415.466, 270.333 415.472, 277.093 413.117 C 288.001 409.318, 288.271 409.096, 287.736 404.352 C 287.174 399.368, 283.912 392.619, 281.872 392.219 C 281.083 392.064, 278.358 393.315, 275.817 394.998 M 250.500 433 C 250.160 433.550, 250.359 434, 250.941 434 C 251.523 434, 252 433.550, 252 433 C 252 432.450, 251.802 432, 251.559 432 C 251.316 432, 250.840 432.450, 250.500 433 M 257.079 433.583 C 257.127 434.748, 257.364 434.985, 257.683 434.188 C 257.972 433.466, 257.936 432.603, 257.604 432.271 C 257.272 431.939, 257.036 432.529, 257.079 433.583 M 263.950 435.750 C 265.191 439.957, 270.203 452.393, 271.042 453.343 C 272.093 454.534, 276 452.235, 276 450.425 C 276 448.036, 272.495 441.871, 268.509 437.250 C 264.271 432.335, 262.801 431.852, 263.950 435.750" stroke="none" fill="black" fill-rule="evenodd"/>
</svg>