<svg xmlns="http://www.w3.org/2000/svg" width="512" height="512" viewBox="0 0 512 512" version="1.1">
	<path d="M 143.009 48.290 C 139.617 50.006, 139.379 52.396, 142.461 53.800 C 145.542 55.204, 146.266 60.524, 143.250 59.597 C 131.290 55.922, 108.059 53.785, 102.750 55.870 C 99.530 57.135, 99.044 60, 102.050 60 C 104.882 60, 109.629 62.590, 110.379 64.545 C 111.993 68.751, 110.076 74.189, 106.387 75.870 C 103.272 77.289, 90.638 78.704, 69.459 80.005 C 50.503 81.170, 42.689 82.636, 42.214 85.115 C 41.989 86.294, 42.929 86.894, 45.703 87.340 C 50.355 88.089, 56.769 93.203, 58.624 97.643 C 61.598 104.760, 59.467 113.017, 53.476 117.586 C 51.693 118.946, 46.807 121.211, 42.617 122.620 C 37.941 124.192, 35 125.725, 35 126.590 C 35 127.366, 35.800 128, 36.777 128 C 39.882 128, 42.908 130.944, 44.010 135.037 C 45.516 140.629, 43.857 146.040, 39.451 149.909 C 36.435 152.557, 35.148 153, 30.465 153 C 25.302 153, 25 153.138, 25 155.500 C 25 156.875, 25.500 158, 26.111 158 C 27.249 158, 60.078 175.844, 63.273 178.200 C 64.936 179.426, 64.947 179.799, 63.449 184.194 C 61.423 190.142, 54.783 196.434, 48.848 198.031 C 42.010 199.871, 40 200.852, 40 202.347 C 40 203.219, 41.534 203.942, 44.118 204.289 C 53.051 205.487, 60.163 215.186, 60.835 227.088 C 61.044 230.789, 60.669 235.472, 60.002 237.494 C 58.356 242.480, 53.635 247.635, 49.450 249.016 C 43.999 250.815, 45.154 255, 51.102 255 C 52.645 255, 83.958 271.625, 85.704 273.371 C 85.953 273.620, 84.105 275.026, 81.596 276.497 C 79.088 277.967, 75.902 280.516, 74.518 282.161 C 72.027 285.121, 72 285.351, 72 303.561 L 72 321.968 74.750 324.911 C 79.993 330.522, 196.614 431.058, 237 464.783 C 259.627 483.679, 262.412 485.085, 272.169 482.544 C 275.263 481.738, 289.428 475.055, 303.647 467.693 C 338.284 449.759, 454.844 389.959, 473 380.808 C 487.474 373.513, 487.501 373.493, 487.807 369.804 C 488.106 366.205, 488.001 366.080, 483.807 365.042 C 473.728 362.548, 472.018 361.810, 469.574 358.905 C 468.158 357.223, 467 354.967, 467 353.891 C 467 348.073, 472.912 341.350, 480.959 338.017 C 482.632 337.324, 484 336.417, 484 336 C 484 335.584, 478.937 333.219, 472.750 330.744 C 428.277 312.955, 405.312 303.551, 404.168 302.658 C 403.139 301.855, 403.854 301.102, 407.316 299.342 C 414.549 295.666, 432.087 288.801, 437.500 287.526 C 441.765 286.522, 442.500 286, 442.500 283.975 C 442.500 281.865, 441.836 281.479, 436.500 280.489 C 430.110 279.305, 426.282 277.566, 421.589 273.718 C 418.475 271.165, 418.730 269, 422.142 269 C 423.304 269, 423.991 268.474, 423.755 267.765 C 423.334 266.503, 420.410 265.549, 413.750 264.500 C 411.688 264.175, 410 263.516, 410 263.036 C 410 261.694, 416.262 258.129, 422.118 256.139 C 425.014 255.154, 427.577 253.769, 427.813 253.061 C 428.160 252.020, 422.428 251.903, 397.871 252.449 C 363.780 253.208, 351.021 254.177, 336.542 257.107 C 314.836 261.500, 290.036 271.469, 273.593 282.409 C 258.897 292.188, 245.213 308.544, 242.563 319.498 C 241.656 323.245, 241.787 323.107, 247.769 313.989 C 257.084 299.791, 273.619 286.207, 291.837 277.786 C 321.188 264.218, 356.083 258.333, 385.016 262.073 L 395.500 263.427 384 264.179 C 346.830 266.609, 330.103 269.227, 311 275.605 C 287.907 283.315, 270.066 293.860, 255.386 308.475 C 247.169 316.656, 245.691 318.728, 240.378 329.524 L 234.485 341.500 230.992 341.372 C 227.279 341.237, 220.325 337.527, 184 316.301 C 172.725 309.713, 146.625 295.305, 126 284.284 C 105.375 273.262, 83.559 261.247, 77.520 257.584 C 71.481 253.920, 65.557 250.676, 64.357 250.375 C 62.276 249.852, 62.347 249.653, 65.870 246.130 C 71.747 240.253, 73.500 235.742, 73.500 226.500 C 73.500 219.760, 73.058 217.601, 70.697 212.792 C 68.140 207.584, 62.704 201.992, 59.078 200.838 C 58.230 200.568, 59.886 199.127, 63.173 197.271 C 66.208 195.559, 70.398 192.547, 72.485 190.579 C 74.572 188.610, 76.426 187, 76.605 187 C 77.723 187, 147.807 226.881, 168.500 239.293 C 196.666 256.186, 205.422 261.922, 212.187 267.910 C 224.302 278.634, 232.153 297.660, 233.764 320.197 L 234.500 330.500 240.674 318 C 258.386 282.138, 291.720 258.123, 336.554 248.925 C 350.958 245.970, 380.661 245.317, 406.045 247.398 C 429.640 249.332, 444.336 249.507, 443.783 247.848 C 443.380 246.639, 417.459 237.234, 406.433 234.296 C 402.895 233.353, 400.014 232.338, 400.032 232.041 C 400.049 231.743, 405.160 229.147, 411.390 226.271 C 422.392 221.193, 432.632 218.045, 438.250 218.015 C 441.973 217.995, 441.722 216.447, 437.773 215.071 C 432.357 213.183, 418.253 212.705, 403 213.893 C 362.509 217.046, 326.477 227.324, 299 243.557 C 295.491 245.630, 295.051 245.742, 297 244.067 C 309.821 233.047, 330.250 223.520, 353.928 217.518 C 373.204 212.632, 381.429 211.841, 418.750 211.286 C 447.314 210.861, 454 210.507, 454 209.420 C 454 207.898, 448.886 206.226, 434.222 202.952 C 428.641 201.706, 424.327 200.279, 424.635 199.781 C 425.453 198.459, 429.920 196.793, 434.500 196.103 C 436.700 195.771, 438.500 195.061, 438.500 194.523 C 438.500 193.367, 430.090 191.383, 421.116 190.422 C 412.750 189.526, 414.711 188.475, 428.650 186.385 C 442.780 184.266, 442.972 184.205, 440.717 182.544 C 435.605 178.780, 401.750 178.215, 378.312 181.504 C 355.856 184.655, 324.689 194.578, 303.103 205.448 C 284.117 215.009, 261.991 233.912, 251.271 249.728 C 245.530 258.199, 245.498 258.226, 245.169 254.887 C 244.987 253.042, 245.358 247.976, 245.994 243.630 C 250.847 210.442, 270.960 186.432, 306.882 170.945 C 325.377 162.971, 340.287 160.169, 368.865 159.294 L 388.229 158.702 387.399 161.101 C 386.943 162.420, 386.554 164.703, 386.535 166.174 C 386.501 168.747, 386.238 168.873, 379.500 169.535 C 371.684 170.304, 355.012 174.262, 352.276 175.999 C 350.323 177.239, 354.708 177.042, 376 174.934 C 382.325 174.307, 391.325 174.032, 396 174.322 C 405.994 174.942, 418.956 173.926, 419.252 172.500 C 419.367 171.950, 415.677 170.924, 411.054 170.220 C 400.554 168.622, 397.500 167.241, 397.500 164.094 C 397.500 160.558, 401.705 158.028, 409.864 156.653 C 413.829 155.985, 417.170 155.002, 417.287 154.469 C 417.883 151.757, 393.682 149.027, 368.911 149.010 L 353.321 149 352.161 146.453 C 349.998 141.706, 350.519 141.168, 358 140.431 C 361.850 140.052, 365 139.366, 365 138.908 C 365 138.450, 362.188 136.180, 358.750 133.864 C 355.313 131.548, 346.875 124.845, 340 118.968 C 310.399 93.663, 281.725 74.783, 258.096 65.040 C 248.775 61.196, 244.748 61.063, 243.161 64.547 C 242.522 65.948, 242 67.785, 242 68.630 C 242 69.475, 241.662 70.017, 241.250 69.833 C 229.517 64.619, 205.561 56.068, 195.589 53.535 C 172.701 47.722, 148.836 45.342, 143.009 48.290 M 153 59.828 C 153 60.283, 159.188 64.671, 166.750 69.578 C 196.392 88.812, 215.669 113.868, 227.078 147.992 C 231.844 162.247, 234.619 178.305, 235.976 199.483 C 236.539 208.274, 237 216.261, 237 217.233 C 237 218.205, 237.450 219, 238 219 C 238.550 219, 239.004 217.988, 239.009 216.750 C 239.014 215.512, 240.177 209.550, 241.593 203.500 C 246.852 181.035, 248.215 169.135, 248.293 145 C 248.332 132.625, 247.822 118.225, 247.157 113 C 245.393 99.120, 242.931 86.804, 241.435 84.382 C 240.715 83.217, 237.060 81.015, 233.313 79.489 C 206.651 68.630, 191.912 64.013, 174.151 60.954 C 162.287 58.911, 153 58.417, 153 59.828 M 129 67.899 C 146.447 74.417, 164.941 85.880, 174.500 96.101 C 177.112 98.894, 177.632 99.800, 176 98.712 C 166.705 92.518, 157.349 87.252, 148.850 83.432 C 138.853 78.940, 126.190 74.927, 122.520 75.089 C 121.409 75.139, 122.719 75.788, 125.431 76.532 C 133.338 78.702, 150.584 87.529, 162.867 95.694 C 176.040 104.451, 190.826 118.448, 196.892 127.905 C 201.790 135.541, 202.283 138.047, 197.792 132.478 C 190.710 123.695, 178.256 111.745, 170.250 106.050 C 156.011 95.922, 132.604 85.458, 120 83.585 C 116.117 83.008, 116.497 83.265, 122.773 85.462 C 133.134 89.087, 150.009 97.758, 161.038 105.123 C 189.534 124.153, 213.630 158.728, 222.574 193.417 C 224.122 199.421, 225.560 203.821, 225.769 203.194 C 225.978 202.566, 225.435 195.835, 224.562 188.236 C 221.974 165.701, 217.308 149.513, 208.156 131.310 C 192.744 100.657, 168.844 79.821, 135.670 68.116 C 124.356 64.123, 118.374 63.929, 129 67.899 M 253 76.781 C 253 77.196, 254.082 82.327, 255.405 88.181 C 259.353 105.653, 260.371 118.833, 259.630 142.909 C 259.265 154.784, 258.684 166.059, 258.338 167.965 L 257.710 171.429 262.912 166.965 C 284.928 148.070, 306.346 137.096, 327.684 133.779 C 331.708 133.153, 335 132.298, 335 131.877 C 335 130.721, 317.559 115.479, 308.538 108.752 C 291.730 96.217, 272.947 84.828, 258.750 78.563 C 255.588 77.167, 253 76.365, 253 76.781 M 64.128 90.627 C 65.573 92.207, 67.308 94.572, 67.984 95.882 C 69.833 99.469, 69.639 109.376, 67.661 112.395 C 66.747 113.789, 66 115.106, 66 115.322 C 66 115.538, 68.633 115.990, 71.851 116.327 C 80.844 117.267, 107.676 124.421, 119.184 128.947 C 143.103 138.354, 157.674 148.554, 181.198 172.356 L 198.896 190.264 196.060 182.660 C 192.475 173.050, 189.490 167.971, 181.842 158.464 C 167.836 141.054, 142.469 124.302, 110.597 111.415 C 104.050 108.768, 99.230 106.423, 99.885 106.205 C 101.789 105.570, 113.771 107.871, 123 110.644 C 133.259 113.727, 148.789 121.371, 159 128.364 C 166.999 133.841, 186.914 153.155, 193.439 161.761 C 195.605 164.618, 197.546 166.787, 197.752 166.581 C 198.387 165.946, 189.958 149.837, 185.674 143.500 C 176.896 130.515, 158.352 115.081, 140.834 106.179 C 122.911 97.072, 97.036 90.589, 70 88.432 L 61.500 87.754 64.128 90.627 M 57 123.298 C 57.275 123.564, 62.868 125.209, 69.429 126.952 C 99.363 134.907, 131.528 147.556, 150.750 158.933 C 153.637 160.642, 156 161.866, 156 161.653 C 156 160.456, 139.556 150.528, 127.316 144.335 C 107.110 134.111, 82.207 126.219, 61.500 123.475 C 58.750 123.111, 56.725 123.031, 57 123.298 M 53.831 136.022 C 54.647 144.583, 51.209 151.629, 44.910 154.301 C 42.120 155.485, 42.258 155.597, 55.792 163.098 C 134.755 206.864, 178.641 232.128, 199.335 245.732 C 212.822 254.598, 225.915 266.562, 229.477 273.274 C 230.565 275.323, 231.811 277, 232.246 277 C 233.648 277, 231.955 271.714, 227.781 263.055 C 224.547 256.346, 221.861 252.699, 214.708 245.305 C 209.757 240.187, 206.254 236, 206.923 236 C 210.568 236, 224.165 248.561, 228.904 256.306 C 230.185 258.399, 232.271 263.085, 233.541 266.718 C 235.838 273.293, 235.852 273.307, 236.489 269.909 C 238.031 261.690, 232.133 244.835, 222.439 229.755 C 210.073 210.518, 179.326 187.655, 139.500 168.084 C 117.356 157.202, 58.132 132, 54.703 132 C 53.840 132, 53.567 133.257, 53.831 136.022 M 358.500 207.453 C 346.571 209.622, 323 217.561, 323 219.409 C 323 219.695, 324.913 219.116, 327.250 218.122 C 333.221 215.584, 356.044 209.211, 365 207.581 C 369.520 206.759, 371.109 206.209, 369 206.198 C 367.075 206.189, 362.350 206.753, 358.500 207.453 M 392.511 222.133 C 362.064 225.056, 329.485 234.573, 309.173 246.478 C 302.166 250.585, 300.904 252.110, 307.149 248.924 C 321.801 241.449, 351.120 233.238, 373 230.483 C 385.997 228.846, 391.119 227.592, 403 223.135 C 408.156 221.201, 408.281 221.078, 405 221.171 C 403.075 221.226, 397.455 221.659, 392.511 222.133 M 363.500 271.618 C 312.246 275.739, 283.813 286.946, 254.500 314.578 C 249.727 319.077, 248.932 320.091, 252 317.766 C 272.100 302.532, 305.515 286.752, 329.500 281.168 C 354.736 275.292, 390.858 273.787, 409.360 277.840 C 414.783 279.028, 419.508 279.974, 419.860 279.942 C 421.805 279.767, 408.513 274.622, 403 273.416 C 396.391 271.970, 372.594 270.887, 363.500 271.618 M 348.438 285.085 C 343.454 285.531, 336.029 286.591, 331.938 287.443 C 324.881 288.911, 307.739 294.080, 308.257 294.584 C 308.567 294.886, 367.040 285.183, 368.448 284.596 C 370.100 283.908, 358.417 284.193, 348.438 285.085 M 204 287.608 C 204 287.943, 206.177 290.980, 208.837 294.358 C 218.125 306.150, 225.483 318.392, 229.651 328.989 L 231.032 332.500 230.499 328.218 C 229.224 317.972, 220.891 302.669, 211.188 292.750 C 206.021 287.469, 204 286.023, 204 287.608 M 87.649 291.005 C 83.326 296.143, 82.759 310.476, 86.563 318.491 C 88.663 322.917, 106.204 338.924, 150.500 376.839 C 167.550 391.433, 185.775 407.036, 191 411.514 C 224.979 440.631, 256.079 465.815, 259.988 467.378 C 262.886 468.538, 265.572 468.928, 267.793 468.511 C 272.363 467.654, 279.492 460.898, 281.570 455.456 C 283.638 450.042, 283.163 441.144, 280.512 435.622 C 277.480 429.305, 266.487 419.139, 250.615 407.972 C 224.010 389.254, 168.148 347.099, 123.174 311.801 C 106.495 298.711, 92.247 288, 91.513 288 C 90.779 288, 89.040 289.352, 87.649 291.005 M 383 299.610 C 361.384 305.870, 312.183 322.381, 289.500 330.986 C 234.151 351.985, 234.863 351.773, 227.322 349.485 C 224.670 348.680, 222.275 348.019, 222 348.016 C 221.725 348.013, 224.613 349.879, 228.418 352.161 C 234.810 355.996, 235.570 356.221, 238.418 355.112 C 240.113 354.452, 248.700 351.419, 257.500 348.373 C 266.300 345.327, 282.506 339.522, 293.513 335.473 C 319.301 325.989, 340.208 318.607, 367.132 309.481 C 386.277 302.991, 401 296.907, 401 295.486 C 401 294.554, 398.397 295.151, 383 299.610 M 345.500 331.975 C 327.350 339.047, 297.875 350.729, 280 357.936 C 262.125 365.143, 243.113 372.656, 237.750 374.631 C 232.388 376.606, 228.012 378.510, 228.026 378.861 C 228.040 379.212, 235.352 384.790, 244.276 391.255 C 265.202 406.416, 277.033 416.724, 283.831 425.716 L 289.285 432.933 298.393 424.680 C 328.896 397.039, 365.956 371.725, 396.043 357.980 C 407.969 352.532, 437.277 341.295, 442.051 340.340 C 443.696 340.011, 445.233 339.432, 445.467 339.053 C 445.701 338.674, 438.436 336.433, 429.321 334.074 C 416.321 330.708, 391.006 323.285, 379.881 319.577 C 379.121 319.324, 363.650 324.903, 345.500 331.975 M 127.042 338.583 C 131.405 343.067, 136.561 347.527, 185.500 389.142 C 237.037 432.967, 243.142 438.112, 248.976 442.643 C 252.293 445.219, 255.343 446.981, 255.753 446.559 C 256.164 446.137, 253.350 442.850, 249.500 439.254 C 242.603 432.813, 237.610 428.534, 199 395.974 C 188.275 386.929, 170.500 371.846, 159.500 362.455 C 131.588 338.627, 125.832 334, 124.097 334 C 123.174 334, 124.323 335.788, 127.042 338.583 M 436.003 356.569 C 393.815 372.207, 377.447 380.683, 346 403.173 C 331.405 413.611, 309 430.892, 309 431.712 C 309 432.144, 316.289 427.980, 323.500 423.428 C 343.644 410.711, 400.968 383.592, 445 365.948 L 459.500 360.138 460.089 355.319 C 460.413 352.668, 461.024 349.712, 461.446 348.750 C 461.868 347.788, 462.053 347.026, 461.857 347.059 C 461.661 347.091, 450.027 351.371, 436.003 356.569 M 451.500 371.484 C 445.450 373.349, 436.655 376.431, 431.956 378.332 C 419.181 383.501, 371.467 405.171, 355.500 413.057 C 337.032 422.178, 297.681 444.366, 301.485 443.513 C 307.850 442.086, 343.521 428.688, 357.645 422.419 C 389.350 408.347, 467.354 369.687, 466.257 368.590 C 465.206 367.539, 462.693 368.032, 451.500 371.484" stroke="none" fill="black" fill-rule="evenodd"/>
</svg>