<?xml version="1.0" standalone="no"?>
<!DOCTYPE svg PUBLIC "-//W3C//DTD SVG 20010904//EN"
 "http://www.w3.org/TR/2001/REC-SVG-20010904/DTD/svg10.dtd">
<svg version="1.0" xmlns="http://www.w3.org/2000/svg"
 width="512.000000pt" height="512.000000pt" viewBox="0 0 512.000000 512.000000"
 preserveAspectRatio="xMidYMid meet">
<metadata>
Created by potrace 1.16, written by Peter Selinger 2001-2019
</metadata>
<g transform="translate(0.000000,512.000000) scale(0.100000,-0.100000)"
fill="#000000" stroke="none">
<path d="M2631 4314 c1 -33 0 -65 -3 -70 -3 -5 -5 -274 -4 -599 1 -324 -2
-545 -5 -490 -4 87 -5 80 -5 -55 0 -85 1 -131 3 -102 3 39 8 52 17 49 9 -4 13
6 14 31 2 91 15 213 22 217 11 7 70 -14 101 -36 15 -10 34 -34 42 -52 20 -40
81 -335 97 -462 14 -114 24 -163 65 -305 18 -63 36 -146 39 -185 4 -38 9 -85
12 -102 3 -18 1 -33 -3 -33 -5 0 -18 46 -31 102 -25 115 -73 225 -122 281 -18
21 -35 36 -37 33 -2 -2 12 -32 31 -66 29 -53 34 -71 31 -114 -2 -44 -2 -46 4
-11 l6 40 19 -50 c11 -27 25 -77 32 -110 8 -42 13 -51 14 -30 1 26 3 23 15
-20 17 -60 18 -68 7 -61 -5 3 -21 -37 -35 -89 -28 -100 -32 -119 -19 -112 4 3
8 -9 9 -26 2 -39 31 -188 32 -168 1 8 8 22 17 32 8 9 26 47 38 83 13 37 26 61
29 54 2 -8 1 -85 -4 -173 -14 -280 -74 -452 -203 -581 -86 -86 -153 -116 -261
-117 -80 -1 -128 19 -197 81 -50 45 -121 151 -113 170 3 8 0 10 -7 6 -8 -5 -9
-2 -5 10 5 11 3 15 -5 10 -8 -5 -9 -2 -5 10 4 9 3 15 -2 12 -5 -3 -23 37 -40
89 -24 72 -33 119 -36 193 l-5 97 15 -83 c8 -45 26 -108 39 -140 30 -68 34
-58 7 14 -49 128 -64 363 -41 631 6 62 15 165 20 228 6 63 17 133 26 155 20
50 26 48 14 -5 -6 -27 -5 -44 3 -54 8 -10 8 -12 1 -8 -14 8 -21 -32 -30 -154
-7 -93 1 -114 35 -82 16 16 135 254 129 258 -2 0 -16 9 -31 19 -16 10 -30 16
-32 14 -1 -2 -21 -32 -44 -67 -22 -35 -41 -61 -41 -57 0 3 19 43 42 89 55 106
57 114 14 47 -20 -30 -36 -50 -36 -45 0 31 33 122 63 182 l36 68 -30 -35 c-17
-19 -37 -48 -45 -65 -18 -41 -17 -30 7 72 11 48 35 162 54 253 36 177 68 284
94 314 22 25 86 56 119 59 l28 2 1 165 0 165 -6 -133 c-6 -121 -8 -136 -28
-151 -19 -16 -57 -19 -315 -24 -161 -4 -347 -7 -413 -7 -121 0 -160 -9 -139
-30 6 -6 96 -26 200 -45 408 -73 494 -90 494 -96 0 -4 -4 -19 -10 -33 l-10
-26 -32 20 c-41 25 -126 27 -171 4 -85 -43 -122 -108 -121 -214 0 -88 22 -138
80 -190 l37 -32 -74 6 c-168 16 -416 48 -444 57 -16 6 -127 26 -245 45 -118
19 -395 68 -615 109 -220 41 -431 79 -468 86 -76 13 -78 15 -99 114 -5 27 -13
54 -17 58 -12 12 -34 -157 -26 -193 9 -43 45 -57 263 -106 l172 -39 -6 -27
c-4 -23 -2 -28 18 -32 54 -12 63 -11 73 12 5 12 14 22 20 22 5 0 91 -22 190
-49 l180 -47 -3 -42 -2 -41 51 -15 c55 -17 73 -12 84 24 5 16 11 17 43 8 55
-15 55 -17 21 -56 -49 -55 -69 -108 -69 -183 0 -94 23 -154 85 -216 78 -77
166 -99 274 -67 99 29 176 124 187 232 4 34 10 62 13 62 3 0 101 -34 216 -75
l211 -76 -13 -97 c-6 -53 -15 -182 -19 -287 -13 -356 26 -532 168 -756 50 -79
158 -191 196 -203 24 -8 31 -36 8 -36 -26 0 -131 86 -172 141 -92 122 -168
284 -194 415 -7 32 -16 181 -19 329 l-7 270 -2 -254 c-2 -281 10 -404 55 -545
50 -160 156 -336 271 -453 38 -38 73 -82 77 -99 l9 -29 4 26 c3 26 5 26 39 16
19 -6 39 -20 43 -32 8 -19 9 -18 9 5 1 20 10 29 48 44 123 51 291 295 342 498
10 39 21 65 24 57 3 -8 5 2 4 21 0 19 0 53 2 75 l4 40 7 -35 c5 -22 7 3 5 65
-2 76 -1 85 4 40 6 -54 7 -47 11 60 3 66 3 163 0 215 l-4 95 -7 -65 c-5 -52
-6 -45 -3 31 1 53 -3 149 -11 215 -7 65 -13 119 -12 120 1 1 75 25 165 53 90
29 197 65 238 81 52 20 76 25 78 17 2 -7 9 -31 15 -54 28 -105 133 -183 243
-183 32 0 73 6 91 13 132 56 184 213 117 355 -17 35 -28 67 -25 72 3 4 20 10
39 12 32 4 35 1 47 -35 12 -37 14 -38 48 -32 50 9 63 23 59 62 -3 29 -1 33 25
39 16 3 29 4 31 2 1 -1 7 -15 14 -30 12 -30 33 -35 77 -18 23 9 26 15 23 39
-4 27 -1 29 31 35 58 9 69 7 76 -14 4 -14 15 -20 33 -20 50 0 72 11 72 35 0
29 1 29 166 55 77 11 154 28 173 36 l34 15 -6 100 c-7 134 -38 174 -50 66 -4
-29 -12 -67 -17 -84 l-11 -30 -152 -12 c-84 -7 -188 -16 -232 -21 -44 -5 -204
-18 -355 -30 -151 -11 -347 -27 -435 -35 -293 -27 -419 -36 -495 -35 -41 1
-96 -2 -122 -6 -52 -7 -72 2 -81 37 -4 16 -2 19 11 13 9 -4 42 -9 72 -11 47
-4 60 -1 93 21 32 22 36 23 27 6 -6 -11 -20 -25 -31 -31 -11 -6 -18 -13 -15
-16 11 -11 77 49 98 90 34 64 32 173 -5 249 -30 60 -62 90 -144 132 -72 36
-107 34 -148 -7 l-34 -34 -20 66 c-11 36 -19 66 -18 66 1 1 153 23 337 49 184
27 343 53 353 58 14 7 16 13 8 22 -8 10 -71 15 -234 19 -440 13 -582 18 -604
23 -14 2 -25 16 -31 36 -10 31 -25 346 -38 783 -3 111 -10 204 -15 210 -7 7
-10 -10 -8 -51z m-334 -1033 l161 -6 -21 -26 c-19 -22 -32 -27 -87 -32 -43 -3
-58 -2 -45 4 14 7 3 8 -35 5 -39 -3 -49 -2 -35 5 14 7 6 8 -30 4 -37 -4 -46
-2 -35 6 11 8 4 9 -28 5 -31 -5 -41 -3 -36 5 5 8 -5 9 -36 4 -31 -5 -41 -4
-35 5 5 8 -2 10 -28 5 -20 -4 -37 -3 -41 4 -4 5 -12 8 -19 6 -7 -2 -55 2 -107
10 l-95 13 195 -5 c107 -3 268 -8 357 -12z m1219 10 c-6 -10 -180 -26 -241
-22 -31 1 -37 -1 -25 -9 11 -8 -5 -9 -60 -6 -52 4 -66 3 -45 -4 22 -6 10 -7
-45 -5 -58 3 -67 2 -40 -5 27 -7 21 -8 -30 -4 -36 2 -95 1 -132 -4 -66 -8 -68
-8 -95 20 -15 15 -25 29 -22 29 2 1 168 5 369 8 201 4 366 8 368 9 2 1 1 -2
-2 -7z m-518 -68 c-10 -2 -28 -2 -40 0 -13 2 -5 4 17 4 22 1 32 -1 23 -4z
m-90 -10 c-10 -2 -26 -2 -35 0 -10 3 -2 5 17 5 19 0 27 -2 18 -5z m-584 -107
c44 -19 48 -27 32 -72 -12 -36 -14 -37 -20 -16 -5 16 -13 21 -23 18 -8 -4 -30
3 -47 14 -26 15 -39 18 -63 11 -78 -23 -123 -81 -133 -175 l-7 -61 -2 73 c-1
82 13 123 57 165 59 56 136 72 206 43z m730 -32 c9 -8 16 -13 16 -9 0 10 40
-15 80 -51 50 -45 77 -106 84 -185 l6 -64 -13 50 c-18 67 -31 89 -71 120 -48
36 -112 43 -164 16 -23 -11 -44 -21 -46 -21 -8 0 -36 57 -36 74 0 8 15 31 34
50 37 40 82 48 110 20z m-827 -41 c3 -7 -14 -21 -37 -33 -100 -51 -118 -186
-35 -259 29 -25 45 -31 80 -31 25 0 45 -4 45 -10 0 -15 -77 -12 -110 5 -16 8
-41 31 -56 50 -24 32 -26 43 -25 112 2 88 18 125 71 161 35 24 60 26 67 5z
m-2001 -68 c7 -29 8 -29 37 -11 27 18 24 19 673 -109 265 -52 525 -99 579
-105 54 -6 104 -15 110 -20 24 -20 456 -80 579 -80 l68 0 -7 -37 c-4 -21 -16
-59 -26 -84 -11 -25 -26 -81 -33 -125 -8 -43 -14 -65 -15 -47 -1 20 -8 36 -19
42 -33 18 -413 132 -425 128 -13 -4 -52 52 -43 61 3 2 97 -24 208 -58 251 -78
237 -74 218 -62 -20 13 -404 132 -425 132 -26 0 -104 75 -95 90 6 10 16 7 39
-9 17 -12 31 -20 31 -18 0 8 -83 67 -94 67 -5 0 -3 -6 6 -12 21 -18 0 -62 -23
-47 -8 5 -25 8 -39 8 -23 -1 -23 -1 5 -10 17 -5 41 -11 54 -14 36 -6 100 -72
127 -130 24 -51 29 -99 15 -170 l-7 -40 -6 56 c-11 97 -71 180 -154 215 -77
32 -205 4 -261 -57 -52 -57 -68 -161 -37 -239 9 -23 19 -39 22 -36 2 3 13 -5
23 -18 30 -38 116 -76 170 -76 100 0 176 59 205 157 l14 48 -5 -45 c-7 -50
-36 -104 -71 -127 -13 -8 -21 -19 -18 -24 3 -5 -3 -6 -12 -2 -11 4 -15 3 -11
-4 5 -7 -1 -9 -15 -6 -14 3 -18 1 -11 -4 22 -16 -170 -7 -203 10 -76 39 -127
137 -128 242 -1 59 3 77 26 117 16 25 49 64 75 86 l46 40 -39 11 c-21 7 -122
34 -224 61 -287 77 -301 81 -255 74 38 -5 340 -76 472 -110 35 -9 61 -20 58
-24 -3 -5 4 -6 15 -3 11 3 23 9 26 14 3 5 22 10 42 10 35 1 36 2 8 8 -27 6
-28 7 -11 21 9 8 38 17 64 21 l46 6 -46 2 c-38 1 -52 -4 -85 -33 -27 -23 -45
-31 -54 -26 -15 8 -299 76 -568 135 -84 19 -167 32 -185 29 -27 -4 -29 -3 -12
6 16 8 11 9 -20 5 -31 -5 -37 -3 -25 5 12 9 8 10 -18 6 -22 -4 -31 -2 -26 5 4
8 -4 9 -26 4 -25 -5 -31 -4 -25 5 6 10 1 11 -19 6 -20 -5 -26 -4 -20 5 5 9 0
10 -20 5 -15 -4 -26 -2 -26 4 0 6 -11 8 -26 4 -20 -5 -25 -4 -20 5 6 8 0 10
-18 5 -17 -4 -26 -2 -26 6 0 7 -7 10 -14 7 -8 -3 -33 2 -55 11 -31 13 -41 23
-41 40 0 30 18 28 26 -3z m1961 -23 c-9 -10 -23 -33 -31 -52 -8 -19 -15 -29
-16 -22 0 23 43 92 58 92 3 0 -2 -8 -11 -18z m853 -69 c-8 -3 -24 -10 -35 -16
-18 -9 -19 -9 -6 6 7 10 23 17 35 16 14 0 16 -2 6 -6z m1865 -151 c-12 -12
-13 7 -7 83 l7 80 3 -79 c2 -43 0 -81 -3 -84z m-4218 102 c-3 -3 -12 -4 -19
-1 -8 3 -5 6 6 6 11 1 17 -2 13 -5z m40 -10 c-3 -3 -12 -4 -19 -1 -8 3 -5 6 6
6 11 1 17 -2 13 -5z m80 -20 c-3 -3 -12 -4 -19 -1 -8 3 -5 6 6 6 11 1 17 -2
13 -5z m4082 -98 c7 -9 8 -17 2 -20 -5 -3 -80 -17 -168 -30 -87 -14 -302 -48
-477 -76 -292 -47 -397 -56 -355 -29 11 7 8 9 -10 9 -13 0 -39 11 -57 25 -52
40 -95 34 -153 -20 -27 -25 -54 -58 -60 -73 -12 -28 -14 -29 -294 -78 l-282
-50 -11 47 c-6 26 -14 62 -18 81 l-6 34 132 13 c73 7 138 17 144 22 7 5 72 13
145 16 84 5 123 10 104 14 -18 4 -22 7 -11 8 47 3 527 46 901 81 297 27 368
34 436 38 15 1 32 -4 38 -12z m-3725 -29 c11 -8 17 -18 15 -23 -2 -5 -14 1
-26 14 -24 24 -17 30 11 9z m2650 -100 c13 -13 39 -30 57 -37 35 -15 125 -97
116 -107 -3 -3 -23 9 -44 25 -64 52 -163 62 -234 26 -65 -33 -117 -144 -103
-221 7 -42 28 -87 53 -118 8 -11 1 -7 -16 9 -43 39 -68 106 -68 183 0 39 -4
59 -10 54 -5 -5 -35 -13 -65 -19 -30 -6 -138 -29 -240 -51 -102 -23 -193 -41
-202 -41 -13 0 -18 8 -18 28 l0 28 268 52 c147 29 272 53 278 52 17 0 47 37
39 49 -3 6 16 33 43 61 41 42 55 50 86 50 25 0 44 -7 60 -23z m-2371 -4 c-7
-2 -19 -2 -25 0 -7 3 -2 5 12 5 14 0 19 -2 13 -5z m125 -12 c20 -10 46 -29 57
-42 l20 -24 -25 21 c-32 27 -67 46 -105 55 -24 6 -26 7 -7 8 12 1 39 -8 60
-18z m-183 -3 c-38 -21 -78 -63 -96 -103 -10 -22 -19 -33 -19 -25 0 39 90 141
124 140 6 0 2 -6 -9 -12z m2918 -5 c-7 -2 -19 -2 -25 0 -7 3 -2 5 12 5 14 0
19 -2 13 -5z m-2830 -70 c-37 -5 -89 -52 -96 -86 -4 -22 -4 -22 -6 2 -2 37 59
91 101 89 l33 -1 -32 -4z m2256 -16 c-33 -18 -51 -37 -71 -76 -30 -57 -39 -52
-11 6 17 37 85 93 111 93 8 0 -5 -10 -29 -23z m138 17 c-3 -3 -12 -4 -19 -1
-8 3 -5 6 6 6 11 1 17 -2 13 -5z m-1536 -101 c-12 -20 -14 -14 -5 12 4 9 9 14
11 11 3 -2 0 -13 -6 -23z m1673 -70 c17 -79 -54 -187 -141 -213 -69 -21 -127
-6 -179 46 -24 24 -44 49 -44 56 0 7 13 -4 30 -23 16 -20 44 -44 63 -52 35
-17 151 -22 141 -6 -3 5 3 6 13 2 10 -3 15 -2 11 2 -5 5 6 16 22 27 53 32 72
74 68 150 -4 67 4 72 16 11z m-2627 25 c-3 -8 -6 -5 -6 6 -1 11 2 17 5 13 3
-3 4 -12 1 -19z m918 -63 c-9 -31 -19 -54 -22 -51 -3 3 3 30 12 61 23 72 31
64 10 -10z m1332 3 c-2 -13 -4 -5 -4 17 -1 22 1 32 4 23 2 -10 2 -28 0 -40z
m-2217 17 c13 -14 21 -25 18 -25 -2 0 -15 11 -28 25 -13 14 -21 25 -18 25 2 0
15 -11 28 -25z m2307 -17 c-3 -7 -5 -2 -5 12 0 14 2 19 5 13 2 -7 2 -19 0 -25z
m-1997 -27 c-14 -27 -27 -34 -36 -20 -4 8 -3 9 4 5 6 -3 16 3 22 14 6 11 13
20 16 20 2 0 0 -9 -6 -19z m-217 2 c-7 -2 -19 -2 -25 0 -7 3 -2 5 12 5 14 0
19 -2 13 -5z m2134 -25 c-3 -8 -6 -5 -6 6 -1 11 2 17 5 13 3 -3 4 -12 1 -19z
m180 -34 c-3 -3 -12 -4 -19 -1 -8 3 -5 6 6 6 11 1 17 -2 13 -5z m-2309 -61
c-16 -2 -40 -2 -55 0 -16 2 -3 4 27 4 30 0 43 -2 28 -4z m1499 -75 c-3 -8 -6
-5 -6 6 -1 11 2 17 5 13 3 -3 4 -12 1 -19z m60 -540 c-2 -13 -4 -5 -4 17 -1
22 1 32 4 23 2 -10 2 -28 0 -40z m-11 -103 c-9 -98 -36 -185 -96 -310 -84
-175 -161 -258 -279 -300 -67 -23 -71 -21 -71 33 l0 48 68 17 c85 22 160 71
212 140 42 57 106 187 116 237 4 16 10 30 14 30 4 0 7 6 7 13 -2 20 25 167 31
167 3 0 2 -34 -2 -75z m-695 -419 c56 -62 161 -136 193 -136 13 0 17 3 9 8 -7
4 -9 13 -4 21 5 7 14 10 20 7 14 -9 15 -126 1 -126 -6 0 -27 7 -47 15 -42 18
-46 18 -38 5 10 -16 -1 -11 -16 7 -12 14 -12 16 0 8 8 -4 -4 10 -26 32 -47 47
-161 216 -204 303 -44 89 -35 85 17 -7 26 -45 69 -107 95 -137z m389 -217
c-52 -43 -86 -59 -123 -59 -40 0 -85 19 -106 44 -9 11 1 9 38 -7 46 -19 56
-20 99 -9 26 7 58 21 72 32 34 26 52 25 20 -1z"/>
<path d="M1315 2202 c17 -19 39 -38 50 -44 11 -6 16 -7 10 -2 -5 5 -28 25 -50
44 l-40 35 30 -33z"/>
<path d="M4833 2683 c9 -2 25 -2 35 0 9 3 1 5 -18 5 -19 0 -27 -2 -17 -5z"/>
<path d="M4768 2673 c6 -2 18 -2 25 0 6 3 1 5 -13 5 -14 0 -19 -2 -12 -5z"/>
<path d="M4693 2663 c9 -2 23 -2 30 0 6 3 -1 5 -18 5 -16 0 -22 -2 -12 -5z"/>
<path d="M4623 2653 c9 -2 23 -2 30 0 6 3 -1 5 -18 5 -16 0 -22 -2 -12 -5z"/>
<path d="M4495 2640 c-34 -6 -36 -7 -10 -8 17 0 48 3 70 7 33 7 35 9 10 8 -16
0 -48 -3 -70 -7z"/>
<path d="M4403 2623 c9 -2 25 -2 35 0 9 3 1 5 -18 5 -19 0 -27 -2 -17 -5z"/>
<path d="M4290 2610 c-27 -6 -29 -8 -10 -8 14 -1 43 3 65 7 33 7 35 9 10 9
-16 -1 -46 -4 -65 -8z"/>
<path d="M4203 2593 c9 -2 25 -2 35 0 9 3 1 5 -18 5 -19 0 -27 -2 -17 -5z"/>
<path d="M3608 2583 c12 -2 30 -2 40 0 9 3 -1 5 -23 4 -22 0 -30 -2 -17 -4z"/>
<path d="M4080 2580 c-50 -11 1 -11 60 -1 41 8 42 8 10 8 -19 0 -51 -3 -70 -7z"/>
<path d="M3988 2563 c12 -2 30 -2 40 0 9 3 -1 5 -23 4 -22 0 -30 -2 -17 -4z"/>
<path d="M3923 2553 c9 -2 23 -2 30 0 6 3 -1 5 -18 5 -16 0 -22 -2 -12 -5z"/>
<path d="M3743 2550 c-34 -14 -28 -20 10 -10 17 5 41 11 52 13 13 3 10 5 -10
5 -16 0 -40 -3 -52 -8z"/>
<path d="M3672 2532 c2 -5 -8 -19 -22 -31 -20 -18 -21 -20 -4 -12 30 14 47 38
34 46 -6 4 -9 2 -8 -3z"/>
<path d="M2614 3955 c0 -49 1 -71 3 -48 2 23 2 64 0 90 -2 26 -3 8 -3 -42z"/>
<path d="M2604 3735 c0 -49 1 -71 3 -48 2 23 2 64 0 90 -2 26 -3 8 -3 -42z"/>
<path d="M2601 3274 c0 -11 3 -14 6 -6 3 7 2 16 -1 19 -3 4 -6 -2 -5 -13z"/>
<path d="M2713 3205 c0 -33 2 -45 4 -27 2 18 2 45 0 60 -2 15 -4 0 -4 -33z"/>
<path d="M2695 2968 c-4 -95 -5 -186 -3 -203 2 -16 7 59 11 169 5 109 6 200 4
203 -3 2 -8 -74 -12 -169z"/>
<path d="M2822 3100 c0 -14 2 -19 5 -12 2 6 2 18 0 25 -3 6 -5 1 -5 -13z"/>
<path d="M2831 3034 c0 -11 3 -14 6 -6 3 7 2 16 -1 19 -3 4 -6 -2 -5 -13z"/>
<path d="M2391 3004 c0 -11 3 -14 6 -6 3 7 2 16 -1 19 -3 4 -6 -2 -5 -13z"/>
<path d="M2632 2990 c0 -19 2 -27 5 -17 2 9 2 25 0 35 -3 9 -5 1 -5 -18z"/>
<path d="M2841 2974 c0 -11 3 -14 6 -6 3 7 2 16 -1 19 -3 4 -6 -2 -5 -13z"/>
<path d="M2381 2964 c0 -11 3 -14 6 -6 3 7 2 16 -1 19 -3 4 -6 -2 -5 -13z"/>
<path d="M2371 2924 c0 -11 3 -14 6 -6 3 7 2 16 -1 19 -3 4 -6 -2 -5 -13z"/>
<path d="M2852 2905 c0 -16 2 -22 5 -12 2 9 2 23 0 30 -3 6 -5 -1 -5 -18z"/>
<path d="M2352 2860 c-5 -22 -6 -40 -2 -40 7 0 22 71 16 77 -2 2 -8 -14 -14
-37z"/>
<path d="M2861 2862 c-1 -18 29 -254 34 -267 8 -17 -6 125 -20 205 -7 41 -13
69 -14 62z"/>
<path d="M2342 2790 c0 -14 2 -19 5 -12 2 6 2 18 0 25 -3 6 -5 1 -5 -13z"/>
<path d="M2616 2740 c-14 -94 -13 -105 12 -108 23 -4 23 -2 16 55 -11 89 -20
107 -28 53z"/>
<path d="M2331 2744 c0 -11 3 -14 6 -6 3 7 2 16 -1 19 -3 4 -6 -2 -5 -13z"/>
<path d="M2790 2471 c0 -13 -11 -23 -36 -31 -36 -12 -36 -13 -30 -54 3 -22 11
-58 17 -80 10 -38 11 -38 47 -31 20 4 45 7 54 8 11 1 16 7 14 17 -19 69 -59
190 -62 190 -2 0 -4 -9 -4 -19z"/>
<path d="M2454 2416 c0 -6 -10 -42 -23 -79 -12 -38 -20 -71 -16 -75 3 -4 39
-8 80 -10 l73 -4 7 76 c4 42 6 79 4 80 -2 2 -31 8 -65 13 -43 7 -61 6 -60 -1z"/>
<path d="M2623 2413 c-22 -4 -23 -9 -23 -84 l0 -79 48 0 c26 0 57 3 68 6 23 6
22 16 -7 127 -10 39 -21 43 -86 30z"/>
<path d="M2417 2392 c-9 -10 -26 -40 -38 -66 -17 -39 -19 -50 -8 -57 9 -5 17
-3 21 6 9 15 47 135 44 135 -2 0 -10 -8 -19 -18z"/>
<path d="M2172 2220 c0 -14 2 -19 5 -12 2 6 2 18 0 25 -3 6 -5 1 -5 -13z"/>
<path d="M2162 2165 c0 -16 2 -22 5 -12 2 9 2 23 0 30 -3 6 -5 -1 -5 -18z"/>
<path d="M2153 2080 c0 -25 2 -35 4 -22 2 12 2 32 0 45 -2 12 -4 2 -4 -23z"/>
<path d="M2846 2103 c-6 -14 -5 -15 5 -6 7 7 10 15 7 18 -3 3 -9 -2 -12 -12z"/>
<path d="M2804 2048 l-29 -33 33 29 c17 17 32 31 32 33 0 8 -8 1 -36 -29z"/>
<path d="M2909 2064 c-7 -8 -30 -24 -50 -35 l-38 -19 -4 -72 -3 -73 -2 72 -2
72 -37 -5 c-58 -8 -61 -11 -66 -41 l-4 -28 -2 28 c-1 24 -5 27 -33 27 -78 0
-78 0 -78 -123 l0 -110 -75 6 c-42 4 -85 11 -95 17 -25 13 -75 -7 -108 -43
-31 -33 -22 -79 30 -157 43 -64 88 -105 157 -140 101 -51 271 -5 363 99 42 49
78 110 78 135 0 14 -76 80 -102 88 -5 2 -11 24 -13 48 -1 25 0 34 2 20 6 -32
18 -46 53 -64 26 -12 29 -12 33 6 6 19 -8 191 -19 241 -3 15 -1 27 5 27 5 0
12 -10 14 -22 3 -16 4 -14 4 7 -1 17 2 36 7 43 10 17 1 15 -15 -4z m-192 -231
c-2 -21 -4 -6 -4 32 0 39 2 55 4 38 2 -18 2 -50 0 -70z m107 -120 c-22 -95
-80 -170 -180 -233 l-64 -40 -39 19 c-69 36 -161 130 -161 166 0 25 66 45 147
45 63 0 96 7 173 34 121 44 132 44 124 9z"/>
<path d="M2280 2034 c-6 -14 -20 -64 -31 -110 l-21 -83 26 -46 c44 -74 53 -63
86 104 22 112 22 115 4 128 -46 34 -54 35 -64 7z"/>
<path d="M2375 1990 c-17 -54 -33 -166 -24 -176 5 -6 24 -11 41 -10 l33 1 13
75 c17 100 14 113 -25 121 -26 5 -34 3 -38 -11z"/>
<path d="M2466 1959 c-14 -81 -25 -163 -23 -165 1 -1 30 -6 65 -10 l62 -7 0
102 c0 92 -2 101 -19 101 -10 0 -32 3 -49 6 -29 6 -31 4 -36 -27z"/>
<path d="M2922 1970 c0 -14 2 -19 5 -12 2 6 2 18 0 25 -3 6 -5 1 -5 -13z"/>
<path d="M3071 1304 c0 -11 3 -14 6 -6 3 7 2 16 -1 19 -3 4 -6 -2 -5 -13z"/>
<path d="M2466 1285 c-75 -26 -71 -46 18 -90 49 -24 52 -24 96 -9 64 22 161
77 157 89 -6 16 -47 23 -142 24 -53 0 -106 -6 -129 -14z"/>
<path d="M2329 1203 c30 -44 95 -99 148 -124 65 -32 63 -16 -2 17 -31 15 -82
53 -112 83 -37 37 -49 45 -34 24z"/>
</g>
</svg>