<svg xmlns="http://www.w3.org/2000/svg" width="512" height="512" viewBox="0 0 512 512" version="1.1">
	<path d="M 225.250 32.877 C 228.297 36.507, 228.607 37.621, 226.750 38.272 C 225.925 38.561, 226.351 39.462, 228 40.919 C 229.700 42.421, 230.100 43.295, 229.250 43.648 C 227.286 44.463, 227.789 46, 230.019 46 C 231.652 46, 231.923 46.460, 231.434 48.406 C 230.967 50.266, 231.303 50.961, 232.915 51.473 C 234.062 51.837, 235 52.806, 235 53.626 C 235 54.447, 235.419 54.859, 235.931 54.543 C 236.443 54.226, 237.144 54.425, 237.490 54.984 C 237.835 55.543, 237.641 56, 237.059 56 C 236.477 56, 236 56.459, 236 57.019 C 236 57.581, 237.025 57.781, 238.286 57.464 C 240.073 57.016, 240.571 57.310, 240.571 58.812 C 240.571 60.309, 239.944 60.684, 237.729 60.510 C 236.166 60.387, 234.372 59.772, 233.743 59.143 C 233.114 58.514, 232.213 58, 231.740 58 C 231.267 58, 228.578 56.244, 225.765 54.099 C 222.951 51.953, 220.026 50.437, 219.265 50.729 C 218.426 51.050, 217.661 50.420, 217.324 49.130 C 216.952 47.708, 215.974 47, 214.383 47 C 212.860 47, 212 46.420, 212 45.392 C 212 44.167, 211.392 43.936, 209.449 44.423 C 207.697 44.863, 206.005 44.428, 204.045 43.032 C 199.911 40.088, 199.637 40.495, 202.670 45.077 C 204.737 48.201, 205.067 49.340, 204.082 49.949 C 203.118 50.545, 203.367 51.144, 205.074 52.339 L 207.351 53.934 204.963 54.818 L 202.574 55.702 204.852 56.921 C 206.681 57.900, 206.896 58.421, 205.942 59.570 C 204.973 60.737, 205.165 61, 206.986 61 C 208.849 61, 209.116 61.401, 208.607 63.430 C 208.111 65.404, 208.420 65.934, 210.248 66.252 C 212.386 66.623, 212.355 66.703, 209.641 67.838 C 205.857 69.420, 195.277 67.386, 193.899 64.812 C 193.198 63.502, 192.210 63.208, 189.996 63.651 C 187.805 64.089, 186.868 63.820, 186.408 62.622 C 185.678 60.718, 183.346 60.462, 182.760 62.221 C 182.454 63.137, 181.261 63.013, 177.975 61.722 C 172.428 59.543, 170.583 60.863, 174.037 64.539 C 176.069 66.702, 176.216 67.252, 174.974 68.037 C 174.029 68.635, 173.937 68.975, 174.719 68.985 C 175.389 68.993, 175.720 69.566, 175.455 70.257 C 175.190 70.948, 175.991 71.961, 177.236 72.507 C 178.488 73.056, 179.501 74.384, 179.502 75.477 C 179.504 76.786, 180.516 77.785, 182.502 78.437 C 186.489 79.744, 186.473 79.725, 185.020 81.476 C 183.924 82.796, 184.272 83.002, 187.628 83.015 C 190.223 83.026, 191.046 83.318, 190.122 83.904 C 189.364 84.384, 189.041 85.258, 189.405 85.847 C 189.841 86.552, 188.947 86.775, 186.783 86.501 C 181.083 85.778, 167 85.041, 167 85.465 C 167 85.689, 168.800 86.884, 171 88.120 C 173.200 89.357, 175 90.735, 175 91.184 C 175 91.633, 175.338 91.951, 175.750 91.892 C 177.149 91.690, 181 93.229, 181 93.990 C 181 95.349, 172.467 94.955, 169.591 93.463 C 166.884 92.059, 166.805 92.087, 167.348 94.254 C 167.876 96.358, 167.566 96.515, 162.422 96.739 C 157.267 96.964, 156.668 96.735, 152.604 92.989 C 147.525 88.307, 146.692 88.060, 148.053 91.639 C 148.605 93.090, 148.931 94.387, 148.778 94.521 C 148.625 94.655, 146.025 94.103, 143 93.294 C 139.975 92.485, 134.967 91.750, 131.871 91.661 L 126.243 91.500 128.745 94.500 C 130.122 96.150, 131.877 97.865, 132.645 98.311 C 133.413 98.758, 133.762 99.576, 133.420 100.129 C 133.079 100.682, 133.744 101.382, 134.899 101.684 C 136.055 101.986, 137 102.856, 137 103.617 C 137 104.641, 135.442 105, 131 105 C 124.433 105, 123.352 106.075, 127.987 107.995 C 129.630 108.675, 130.775 109.556, 130.530 109.951 C 130.286 110.347, 131.665 111.424, 133.596 112.344 C 138.486 114.676, 137.010 116.240, 130.662 115.454 C 127.823 115.102, 123.025 114.603, 120 114.346 L 114.500 113.877 117.500 116.362 C 120.114 118.526, 120.275 118.934, 118.756 119.528 C 116.192 120.530, 117.478 121.736, 121.907 122.484 C 124.519 122.926, 125.965 123.758, 126.291 125.007 C 126.653 126.390, 127.387 126.725, 129.139 126.304 C 131.261 125.795, 131.348 125.897, 130 127.312 C 129.175 128.178, 127.150 129.584, 125.500 130.437 C 123.771 131.331, 123.196 131.990, 124.143 131.994 C 125.047 131.997, 126.017 132.603, 126.300 133.340 C 126.634 134.211, 127.900 134.522, 129.907 134.227 C 131.784 133.951, 133 134.211, 133 134.887 C 133 135.499, 133.675 136, 134.500 136 C 135.325 136, 136 135.523, 136 134.941 C 136 134.359, 136.457 134.165, 137.016 134.510 C 137.575 134.856, 137.774 135.557, 137.457 136.069 C 137.141 136.581, 137.203 137, 137.594 137 C 138.964 137, 148.890 131.987, 149.511 130.982 C 149.856 130.424, 150.544 130.218, 151.041 130.525 C 151.537 130.832, 153.081 130.338, 154.472 129.427 C 155.862 128.515, 157.007 128.159, 157.015 128.635 C 157.024 129.111, 157.365 129.050, 157.774 128.500 C 159.221 126.552, 169.417 121.752, 169.782 122.847 C 170.034 123.603, 170.708 123.575, 172.026 122.752 C 176.052 120.237, 175.141 123.288, 170.440 128.065 L 165.500 133.084 169.500 131.694 C 171.700 130.930, 174.749 130, 176.275 129.627 C 178.854 128.997, 179.006 129.128, 178.417 131.475 C 177.773 134.042, 179.384 135.112, 180.338 132.750 C 180.681 131.898, 180.867 131.871, 180.921 132.663 C 181.052 134.592, 190.913 130.905, 197.405 126.500 C 199.752 124.907, 202.706 123.851, 204.898 123.821 C 208.867 123.766, 217.275 126.932, 215.217 127.706 C 214.511 127.971, 213.161 127.844, 212.217 127.423 C 208.207 125.634, 205.505 126.334, 201.993 130.073 L 198.486 133.807 203.202 134.432 C 208.672 135.158, 210.224 136.655, 206.481 137.594 C 204.826 138.010, 204.073 138.747, 204.409 139.623 C 205.071 141.348, 203.203 141.336, 195.812 139.569 C 192.684 138.821, 189.878 138.455, 189.578 138.755 C 188.920 139.413, 193.707 144, 195.052 144 C 195.573 144, 196 144.450, 196 145 C 196 145.550, 196.675 146, 197.500 146 C 198.325 146, 199 146.498, 199 147.107 C 199 147.716, 198.438 147.984, 197.750 147.703 C 193.056 145.784, 192.701 145.708, 193.352 146.761 C 193.726 147.366, 193.597 148.131, 193.065 148.460 C 192.208 148.989, 175.062 145.932, 170.319 144.404 C 169.269 144.066, 169.877 145.019, 171.759 146.659 C 175.682 150.079, 175.825 151, 172.433 151 C 170.320 151, 169.978 151.355, 170.500 153 C 171.426 155.918, 170.306 155.467, 166.433 151.360 C 162.673 147.373, 162.197 147.546, 164.526 152.050 C 166.040 154.978, 166.030 155, 163.248 155 C 160.102 155, 156 152.535, 156 150.645 C 156 149.962, 154.265 147.597, 152.144 145.390 L 148.288 141.377 148.791 145.834 L 149.293 150.290 146.396 149.541 C 144.803 149.129, 142.983 148.707, 142.351 148.602 C 141.719 148.498, 140.481 147.814, 139.601 147.084 C 138.540 146.203, 138 146.133, 138 146.878 C 138 147.495, 137.325 148, 136.500 148 C 135.675 148, 135 147.298, 135 146.441 C 135 145.584, 134.547 145.162, 133.993 145.504 C 133.439 145.847, 132.716 145.423, 132.386 144.563 C 132.056 143.704, 130.667 143, 129.299 143 C 127.654 143, 126.636 142.324, 126.290 141 C 125.738 138.892, 124.396 138.330, 123.833 139.972 C 123.506 140.926, 116.834 139.052, 112.721 136.850 C 110.576 135.703, 110.943 136.910, 113.725 140.159 C 114.965 141.607, 114.925 141.943, 113.413 142.789 C 111.822 143.679, 111.857 143.853, 113.840 144.914 C 116.216 146.186, 116.710 148.567, 114.750 149.302 C 113.879 149.629, 114.106 150.279, 115.500 151.448 C 116.914 152.634, 117.134 153.278, 116.250 153.646 C 114.383 154.424, 114.740 155.783, 117 156.500 C 119.335 157.241, 119.687 159, 117.500 159 C 116.675 159, 116 159.450, 116 160 C 116 160.550, 116.675 161, 117.500 161 C 118.325 161, 119 161.450, 119 162 C 119 162.550, 118.093 163, 116.984 163 C 114.168 163, 107 160.671, 107 159.757 C 107 159.340, 106.325 159, 105.500 159 C 104.675 159, 104 159.427, 104 159.948 C 104 160.524, 102.821 160.485, 101 159.850 C 99.350 159.275, 98 158.428, 98 157.969 C 98 157.510, 96.607 157.173, 94.905 157.222 C 93.202 157.270, 91.515 156.860, 91.155 156.310 C 90.795 155.759, 88.761 155.035, 86.635 154.699 C 82.974 154.121, 82.855 154.183, 84.385 155.873 C 86.311 158.001, 86.487 159.999, 84.750 160.004 C 84.063 160.006, 84.963 160.899, 86.750 161.989 C 90.049 164, 91.025 165.974, 88.750 166.032 C 88.033 166.050, 88.310 166.676, 89.397 167.500 C 90.441 168.290, 91.678 168.699, 92.147 168.409 C 92.616 168.119, 93 168.329, 93 168.876 C 93 169.423, 94.576 170.441, 96.503 171.137 C 99.250 172.131, 99.878 172.810, 99.409 174.286 C 98.931 175.792, 99.280 176.129, 101.156 175.973 C 102.445 175.866, 104.612 175.828, 105.972 175.889 L 108.444 176 106.417 178.027 C 105.171 179.273, 101.775 180.537, 97.600 181.307 C 90.263 182.661, 90.308 182.846, 98.750 186.020 C 102.295 187.354, 102.627 187.973, 100.783 189.817 C 99.827 190.773, 100.786 190.947, 105.258 190.629 C 110.678 190.243, 110.900 190.319, 109.889 192.207 C 108.940 193.980, 109.074 194.116, 111.164 193.494 C 112.449 193.111, 114.063 192.082, 114.750 191.208 C 115.722 189.971, 116 189.927, 116 191.009 C 116 192.091, 116.267 192.133, 117.200 191.200 C 117.860 190.540, 119.574 190, 121.009 190 C 122.444 190, 124.491 189.339, 125.559 188.532 C 126.626 187.724, 128.489 187.049, 129.697 187.032 C 130.905 187.014, 134.010 185.875, 136.596 184.500 C 139.182 183.125, 142.156 182, 143.206 182 C 144.977 182, 145.002 182.158, 143.557 184.223 C 141.500 187.159, 141.586 188.292, 143.776 187.120 C 144.911 186.512, 146.193 186.528, 147.328 187.164 C 148.528 187.835, 149.523 187.810, 150.394 187.088 C 152.513 185.329, 153.029 187.053, 151.027 189.201 C 149.769 190.552, 148.506 190.978, 147.093 190.530 C 145.498 190.023, 145.148 190.223, 145.595 191.386 C 146.073 192.634, 145.495 192.803, 142.338 192.342 C 140.227 192.033, 136.104 191.113, 133.176 190.298 C 127.272 188.654, 125.897 189.040, 128.477 191.619 C 130.096 193.239, 129.978 193.463, 126.346 195.662 C 124.231 196.942, 122.162 197.992, 121.750 197.995 C 121.338 197.998, 121 198.408, 121 198.906 C 121 199.405, 123.250 200.122, 126 200.500 C 129.214 200.942, 131 201.674, 131 202.549 C 131 203.312, 132.536 204.198, 134.500 204.566 C 136.425 204.927, 138 205.574, 138 206.004 C 138 207.013, 135.409 208, 132.763 208 C 130.753 208, 130.745 208.061, 132.500 210 C 133.495 211.100, 135.005 212, 135.855 212 C 137.031 212, 137.122 212.278, 136.235 213.165 C 134.814 214.586, 137.390 216.902, 140.500 216.999 C 142.397 217.058, 142.406 217.115, 140.668 218.126 C 139.660 218.712, 137.339 218.911, 135.510 218.568 C 133.490 218.189, 132.045 218.366, 131.827 219.019 C 131.588 219.736, 130.235 219.578, 127.766 218.547 C 125.730 217.696, 122.786 217, 121.223 217 C 119.661 217, 117.509 216.339, 116.441 215.532 C 115.374 214.724, 114.133 214.049, 113.685 214.032 C 112.668 213.992, 118.132 221.773, 119.500 222.314 C 120.050 222.531, 119.487 222.540, 118.250 222.335 C 117.012 222.130, 116 222.420, 116 222.981 C 116 224.484, 112.326 224.220, 108.950 222.474 C 106.966 221.448, 106 221.322, 106 222.089 C 106 222.815, 105.104 222.643, 103.535 221.615 C 102.180 220.727, 100.440 220, 99.670 220 C 98.900 220, 97.144 219.115, 95.769 218.033 C 94.393 216.951, 93.021 216.312, 92.720 216.614 C 92.053 217.280, 87.792 215.129, 86.750 213.600 C 86.220 212.823, 85.755 212.879, 85.167 213.789 C 84.532 214.771, 83.666 214.824, 81.528 214.011 C 77.674 212.545, 77.388 213.298, 80.586 216.495 C 82.761 218.671, 83.018 219.375, 81.896 220.085 C 80.989 220.660, 80.918 220.975, 81.693 220.985 C 82.353 220.993, 82.709 221.912, 82.492 223.044 C 82.218 224.464, 82.846 225.428, 84.549 226.204 C 87.331 227.472, 87.700 228.794, 85.506 229.636 C 83.355 230.462, 84.691 232, 87.559 232 C 90.127 232, 90.879 233.477, 88.750 234.341 C 87.809 234.722, 87.871 235.111, 89 235.910 C 90.143 236.719, 89.428 236.942, 86 236.845 C 83.525 236.776, 80.938 236.277, 80.250 235.737 C 79.413 235.079, 78.508 235.163, 77.512 235.990 C 76.305 236.991, 75.905 236.915, 75.396 235.589 C 74.912 234.327, 73.991 234.099, 71.373 234.590 C 69.296 234.980, 67.417 234.761, 66.533 234.027 C 65.738 233.368, 64.647 233.100, 64.108 233.433 C 63.569 233.766, 61.187 233.603, 58.814 233.070 C 53.393 231.851, 51.844 233.204, 55.910 235.606 C 58.963 237.409, 59.942 239, 58 239 C 55.944 239, 57.095 240.986, 59.500 241.589 C 60.875 241.934, 62 242.618, 62 243.108 C 62 243.599, 62.900 244, 64 244 C 65.100 244, 66 244.450, 66 245 C 66 245.550, 65.550 246, 65 246 C 64.450 246, 64 246.450, 64 247 C 64 247.550, 66.280 248, 69.067 248 C 73.690 248, 74.079 248.177, 73.496 250.012 C 72.901 251.886, 73.187 251.984, 77.679 251.450 C 80.769 251.083, 82.141 251.222, 81.500 251.836 C 79.717 253.547, 72.577 257, 70.824 257 C 67.920 257, 67.770 258.904, 70.617 259.619 C 73.207 260.269, 73.239 260.354, 71.408 261.749 C 69.650 263.087, 69.795 263.170, 73.250 262.801 C 75.313 262.582, 77 262.697, 77 263.058 C 77 264.034, 86.236 263.890, 88.169 262.884 C 89.258 262.318, 89.978 262.433, 90.238 263.214 C 90.515 264.044, 91.784 263.735, 94.376 262.206 C 96.432 260.993, 98.655 260, 99.317 260 C 99.978 260, 101.108 259.056, 101.829 257.903 C 102.549 256.749, 103.409 256.076, 103.739 256.406 C 104.070 256.737, 105.276 256.402, 106.420 255.662 C 107.564 254.922, 110.289 254.033, 112.476 253.685 L 116.453 253.052 110.476 258.600 C 107.189 261.651, 105.400 263.825, 106.500 263.431 C 109.056 262.516, 118.375 261.140, 118.893 261.602 C 119.108 261.794, 118.716 262.638, 118.020 263.476 C 116.981 264.728, 117.028 265, 118.284 265 C 119.320 265, 119.644 265.644, 119.290 267 C 118.741 269.099, 114.636 269.838, 113.524 268.038 C 113.178 267.479, 112.001 267.419, 110.715 267.895 C 108.684 268.645, 96.381 267.795, 91.406 266.560 C 90.035 266.220, 88.571 266.827, 87.172 268.317 L 85.032 270.595 88.530 270.186 C 92.475 269.726, 96.018 271.727, 93.797 273.162 C 92.107 274.254, 94.500 275.963, 97.750 275.985 C 98.987 275.993, 100 276.611, 100 277.358 C 100 278.143, 101.793 279.108, 104.250 279.645 L 108.500 280.574 105.500 282.267 C 103.850 283.198, 101.263 284.518, 99.750 285.199 C 98.238 285.881, 97 286.692, 97 287.001 C 97 287.310, 99.025 288.161, 101.500 288.892 C 103.975 289.623, 106 290.626, 106 291.122 C 106 291.618, 107.912 291.790, 110.250 291.505 C 112.587 291.219, 113.938 291.251, 113.250 291.576 C 111.764 292.278, 111.565 295, 113 295 C 113.550 295, 114 295.703, 114 296.562 C 114 297.854, 113.094 298.022, 108.750 297.535 C 100.475 296.608, 96.772 295.512, 92.239 292.651 C 88.042 290.001, 88.023 289.999, 88.261 292.207 C 88.450 293.958, 87.867 294.545, 85.500 294.990 C 83.137 295.435, 82.872 295.702, 84.250 296.246 C 85.213 296.626, 86 297.626, 86 298.469 C 86 299.311, 86.480 300, 87.067 300 C 87.674 300, 87.865 300.850, 87.511 301.967 C 87.025 303.496, 87.462 304.078, 89.474 304.583 C 91.422 305.072, 91.916 305.689, 91.474 307.083 C 91.031 308.478, 91.527 309.094, 93.490 309.587 C 95.968 310.209, 96.011 310.330, 94.391 312.120 C 92.767 313.915, 92.810 314, 95.345 314 C 96.805 314, 98 314.480, 98 315.066 C 98 316.383, 71.779 315.035, 67 313.473 C 66.175 313.203, 67.031 314.267, 68.901 315.839 C 71.314 317.865, 71.940 318.919, 71.056 319.465 C 70.228 319.977, 71.182 320.850, 73.905 322.069 C 76.157 323.077, 78 324.374, 78 324.951 C 78 325.528, 79.152 326, 80.559 326 C 81.966 326, 82.868 326.405, 82.562 326.900 C 82.080 327.679, 78.431 328.686, 69.209 330.587 C 66.484 331.148, 67.230 333, 70.181 333 C 71.902 333, 72.038 333.249, 71 334.500 C 69.932 335.786, 70.271 336, 73.378 336 C 75.370 336, 77 336.459, 77 337.019 C 77 337.580, 78.012 337.806, 79.250 337.523 C 80.487 337.240, 83.213 336.840, 85.306 336.636 C 88.466 336.327, 89.018 336.538, 88.554 337.882 C 88.167 339.003, 88.491 338.886, 89.612 337.500 C 90.727 336.122, 91.374 335.886, 91.695 336.742 C 92.055 337.701, 92.656 337.721, 94.331 336.828 C 96.360 335.747, 96.406 335.796, 95.052 337.586 C 94.256 338.639, 92.253 340.965, 90.600 342.756 L 87.597 346.012 93.967 345.346 C 99.646 344.752, 100.268 344.860, 99.700 346.340 C 98.955 348.280, 99.404 348.389, 102.130 346.931 C 103.559 346.166, 104.506 346.175, 105.458 346.965 C 106.449 347.788, 107.179 347.678, 108.323 346.535 C 109.167 345.691, 110.564 345, 111.429 345 C 112.293 345, 113 344.475, 113 343.833 C 113 343.192, 113.273 342.940, 113.607 343.273 C 113.940 343.607, 114.856 343.344, 115.641 342.690 C 118.998 339.894, 119.619 339.484, 120.959 339.188 C 121.735 339.017, 122.866 338.198, 123.473 337.368 C 124.080 336.538, 125.009 335.962, 125.538 336.088 C 126.067 336.214, 127.175 336.058, 128 335.740 C 130.270 334.865, 135 334.211, 135 334.771 C 135 335.043, 134.213 336.011, 133.250 336.922 C 132.287 337.833, 129.700 340.502, 127.500 342.852 C 123.514 347.109, 123.511 347.120, 126.500 345.944 C 132.619 343.537, 135.497 343.236, 137 344.845 C 138.256 346.189, 138.227 346.301, 136.768 345.741 C 135.582 345.286, 135.262 345.520, 135.658 346.551 C 136.313 348.257, 137.615 348.432, 138.538 346.938 C 139.145 345.956, 143.170 344.039, 145.500 343.623 C 146.050 343.524, 147.113 343.061, 147.862 342.594 C 148.720 342.058, 149.547 342.254, 150.096 343.122 C 150.853 344.317, 151.365 343.754, 151.179 341.931 C 151.147 341.618, 152.669 340.660, 154.560 339.803 C 156.452 338.945, 158 338.515, 158 338.847 C 158 339.178, 154.963 342.561, 151.250 346.364 C 147.537 350.167, 145.327 352.990, 146.337 352.637 C 147.348 352.284, 149.936 351.714, 152.087 351.370 C 155.338 350.850, 156 351.030, 156 352.431 C 156 353.530, 156.435 353.846, 157.250 353.337 C 159.311 352.050, 161.401 352.036, 162.244 353.305 C 162.827 354.182, 163.395 354.034, 164.379 352.750 C 165.117 351.787, 166.149 351, 166.672 351 C 167.909 351, 174.811 347.477, 177.950 345.243 C 180.282 343.585, 180.368 343.585, 179.732 345.250 C 179.364 346.212, 179.451 347, 179.924 347 C 180.398 347, 181.045 346.325, 181.362 345.500 C 181.678 344.675, 182.446 344, 183.067 344 C 183.723 344, 183.304 345.515, 182.069 347.608 L 179.940 351.216 183.970 350.831 C 186.187 350.620, 188 350.823, 188 351.283 C 188 351.742, 188.563 351.762, 189.250 351.327 C 189.938 350.893, 191.757 350.468, 193.294 350.383 C 194.831 350.299, 196.892 349.503, 197.873 348.615 C 198.855 347.727, 200.105 347, 200.653 347 C 201.200 347, 203.863 345.425, 206.571 343.500 C 209.278 341.575, 211.945 340.004, 212.497 340.009 C 214.761 340.030, 247.502 354.842, 249.791 356.881 L 252.269 359.088 251.717 387.294 C 251.128 417.387, 248.472 456.880, 246.932 458.450 C 246.348 459.045, 246 458.810, 246 457.822 C 246 456.955, 245.319 455.680, 244.488 454.990 C 243.373 454.065, 243.261 453.390, 244.061 452.426 C 244.866 451.456, 244.632 450.391, 243.157 448.309 C 242.062 446.764, 240.448 442.935, 239.570 439.801 C 238.692 436.666, 237.547 433.838, 237.025 433.516 C 236.503 433.193, 235.355 435.412, 234.473 438.446 C 233.591 441.480, 232.425 444.237, 231.883 444.572 C 230.891 445.185, 226 440.611, 226 439.071 C 226 438.617, 226.690 437.672, 227.533 436.972 C 228.893 435.844, 228.816 435.433, 226.859 433.350 C 225.645 432.057, 225.010 431, 225.448 431 C 225.886 431, 225.721 430.369, 225.081 429.597 C 224.186 428.520, 224.216 428.090, 225.208 427.743 C 226.200 427.397, 226.114 426.851, 224.842 425.396 C 223.930 424.353, 222.542 421.925, 221.759 420 L 220.334 416.500 219.640 420.153 C 219.258 422.163, 218.252 424.073, 217.404 424.399 C 216.414 424.778, 216.080 425.678, 216.472 426.911 C 216.807 427.967, 216.587 429.137, 215.982 429.511 C 215.350 429.901, 215.142 431.372, 215.493 432.968 C 215.929 434.953, 215.665 435.915, 214.568 436.335 C 213.687 436.674, 213.284 437.575, 213.621 438.454 C 213.964 439.347, 213.541 440.239, 212.604 440.599 C 210.577 441.376, 210.497 444, 212.500 444 C 214.648 444, 214.351 445.742, 211.987 447.007 C 210.785 447.650, 209.349 447.735, 208.424 447.217 C 207.025 446.435, 207.027 446.223, 208.437 445.052 C 210.579 443.274, 210.397 442, 208 442 C 205.959 442, 205.404 440.929, 206.750 439.584 C 208.022 438.313, 207.671 434, 206.296 434 C 204.557 434, 204.656 432.530, 206.500 431 C 209.887 428.189, 207.774 426.012, 202.250 426.623 C 199.080 426.974, 197.754 425.672, 200.250 424.659 C 201.216 424.268, 201.186 423.932, 200.118 423.185 C 199.014 422.413, 199.176 422.079, 200.923 421.524 C 203.568 420.685, 203.151 418.619, 200.250 418.191 C 198.706 417.963, 197.988 416.911, 197.517 414.191 C 196.745 409.737, 194.091 404.483, 194.035 407.300 C 193.980 410.135, 191.098 415, 189.474 415 C 187.551 415, 187.569 416.897, 189.500 417.638 C 191.458 418.390, 191.434 420, 189.465 420 C 188.276 420, 188.155 420.421, 188.930 421.869 C 189.480 422.896, 189.656 424.010, 189.322 424.344 C 188.988 424.678, 189.342 425.712, 190.107 426.641 C 191.391 428.198, 191.128 428.280, 186.750 427.684 C 184.137 427.329, 182 427.432, 182 427.913 C 182 428.395, 183.363 430.248, 185.029 432.031 C 186.696 433.815, 187.813 435.520, 187.513 435.821 C 187.212 436.121, 186.434 435.834, 185.783 435.183 C 185.133 434.533, 184.240 434, 183.800 434 C 182.652 434, 182.814 437.784, 184.062 440.117 C 185.062 441.984, 184.841 442.084, 180.346 441.801 L 175.567 441.500 174.162 436.527 L 172.758 431.555 170.396 438.027 C 169.096 441.587, 168.026 445.063, 168.017 445.750 C 168.007 446.438, 167.564 447, 167.031 447 C 166.499 447, 166.343 447.731, 166.686 448.624 C 167.061 449.601, 166.650 450.616, 165.654 451.173 C 163.485 452.388, 163.538 453.988, 165.750 454.045 C 166.855 454.074, 166.440 454.543, 164.624 455.318 C 162.039 456.423, 161.912 456.682, 163.374 457.896 C 165.430 459.602, 165.460 461, 163.441 461 C 162.584 461, 162.160 461.450, 162.500 462 C 162.840 462.550, 162.641 463, 162.059 463 C 161.477 463, 161 463.450, 161 464 C 161 464.550, 161.675 465, 162.500 465 C 163.325 465, 164 465.450, 164 466 C 164 466.550, 163.380 467, 162.622 467 C 161.865 467, 160.667 467.697, 159.960 468.548 C 157.301 471.753, 154.694 469.869, 152.466 463.133 L 150.360 456.767 148.569 463.383 C 146.757 470.079, 146.421 470.483, 143.582 469.393 C 141.402 468.556, 141.592 467, 143.875 467 C 145.208 467, 145.750 466.278, 145.750 464.500 C 145.750 463.125, 145.356 462, 144.875 462 C 144.394 462, 144 461.370, 144 460.600 C 144 459.827, 141.762 458.396, 139 457.403 C 136.250 456.414, 134 455.341, 134 455.018 C 134 454.695, 135.350 453.634, 137 452.659 C 140.818 450.403, 140.773 449.452, 136.750 447.368 L 133.500 445.684 136.840 444.557 C 139.782 443.564, 143.316 440, 141.359 440 C 140.951 440, 141.491 439.334, 142.559 438.519 C 144.202 437.265, 144.277 436.892, 143.047 436.085 C 142.248 435.560, 140.254 435.399, 138.616 435.727 L 135.638 436.322 137.963 432.560 C 139.844 429.516, 140.029 428.636, 138.928 427.955 C 138.149 427.474, 137.037 427.554, 136.327 428.143 C 135.645 428.709, 134.505 428.809, 133.794 428.364 C 131.976 427.229, 129.888 427.009, 130.512 428.019 C 130.798 428.482, 130.575 429.144, 130.016 429.490 C 129.457 429.835, 129 429.641, 129 429.059 C 129 428.477, 128.523 428, 127.941 428 C 127.359 428, 127.141 428.419, 127.457 428.931 C 127.774 429.443, 127.572 430.146, 127.009 430.494 C 125.372 431.506, 124.564 427.928, 125.934 425.734 C 126.622 424.633, 126.805 423.455, 126.342 423.116 C 125.879 422.777, 124.829 421.648, 124.008 420.606 C 122.634 418.861, 122.678 418.763, 124.565 419.362 C 126.107 419.851, 127.165 419.268, 128.837 417.006 L 131.060 414 128.280 413.985 C 123.302 413.957, 122.414 412.632, 124.967 409.046 C 126.205 407.307, 127.057 405.747, 126.859 405.578 C 126.662 405.409, 125.540 404.772, 124.368 404.163 C 122.873 403.387, 122.032 401.701, 121.556 398.528 C 121.183 396.038, 120.485 394, 120.006 394 C 118.786 394, 117.726 397.748, 118.564 399.103 C 118.945 399.719, 118.636 400.611, 117.878 401.084 C 117.102 401.568, 116.500 403.595, 116.500 405.722 C 116.500 407.800, 116.042 409.422, 115.481 409.327 C 114.921 409.232, 113.121 408.834, 111.481 408.442 L 108.500 407.729 111.250 410.669 C 114.243 413.869, 114.694 415.567, 112.750 416.313 C 111.913 416.634, 112.243 417.341, 113.750 418.453 C 116.942 420.809, 116.566 421.654, 112 422.384 C 109.800 422.736, 108 423.468, 108 424.012 C 108 424.555, 108.450 425, 109 425 C 109.550 425, 110 425.627, 110 426.393 C 110 427.159, 110.675 428.045, 111.500 428.362 C 113.719 429.213, 113.336 432, 111 432 C 109.900 432, 109 432.505, 109 433.122 C 109 433.948, 108.645 433.950, 107.658 433.131 C 106.920 432.519, 106.020 432.313, 105.658 432.675 C 105.296 433.037, 105 432.808, 105 432.167 C 105 431.525, 104.100 431, 103 431 C 100.330 431, 100.330 434.879, 103 438.273 C 104.100 439.671, 105 441.144, 105 441.545 C 105 441.947, 102.525 441.984, 99.500 441.629 C 93.885 440.969, 92.628 441.642, 95.750 443.637 C 98.395 445.327, 101.803 452.232, 100.248 452.751 C 99.561 452.980, 99 453.640, 99 454.219 C 99 454.891, 100.626 455.049, 103.500 454.655 C 111.304 453.585, 107.892 457.679, 99.032 460.016 C 94.761 461.142, 94.464 461.078, 92.289 458.550 C 91.038 457.095, 89.748 454.689, 89.424 453.203 C 88.211 447.656, 87.812 447.382, 86.217 451 L 84.674 454.500 83.216 449.527 L 81.758 444.554 79.883 450.527 C 78.852 453.812, 78.099 457.175, 78.209 458 C 78.320 458.825, 77.852 460.512, 77.170 461.750 C 76.171 463.562, 75.061 464, 71.465 464 C 67.317 464, 66.464 463.395, 66.882 460.750 C 66.947 460.337, 66.550 460, 66 460 C 65.450 460, 65 459.395, 65 458.655 C 65 457.915, 64.125 456.518, 63.056 455.551 C 61.445 454.093, 61.317 453.457, 62.306 451.835 C 63.288 450.226, 63.189 449.648, 61.750 448.579 C 60.787 447.864, 60 446.346, 60 445.205 C 60 444.064, 59.512 441.863, 58.916 440.315 L 57.831 437.500 55.719 441.500 C 54.557 443.700, 53.713 446.232, 53.845 447.127 C 53.976 448.022, 53.339 449.040, 52.429 449.389 C 51.049 449.918, 50.990 450.283, 52.073 451.588 C 53.377 453.159, 52.693 454.156, 49.500 455.338 C 48.950 455.541, 49.357 456.674, 50.405 457.854 C 52.088 459.750, 52.117 460, 50.655 460 C 49.745 460, 49 460.450, 49 461 C 49 461.550, 49.765 462, 50.700 462 C 52.022 462, 52.133 462.267, 51.200 463.200 C 49.534 464.866, 49.700 465.786, 51.750 466.246 C 52.981 466.522, 52.336 467.144, 49.573 468.342 C 46.511 469.670, 45.477 469.771, 44.876 468.799 C 44.450 468.111, 44.641 467.212, 45.303 466.792 C 46.157 466.249, 46.070 466.026, 45 466.015 C 44.165 466.007, 43.427 465.002, 43.335 463.750 C 43.071 460.161, 40.371 451.579, 39.822 452.585 C 39.547 453.088, 38.012 457.944, 36.411 463.376 C 33.770 472.335, 32.958 473.844, 27.661 479.626 L 21.823 486 256.130 486 L 490.437 486 484.661 480.162 C 480.149 475.603, 478.480 473.030, 477.039 468.412 C 475.339 462.965, 475.139 462.716, 474.489 465.250 C 474.101 466.762, 473.432 468, 473.004 468 C 472.575 468, 471.247 464.046, 470.053 459.213 C 468.859 454.380, 467.538 449.870, 467.118 449.191 C 466.666 448.459, 465.213 452.041, 463.555 457.978 C 462.016 463.490, 460.222 468, 459.569 468 C 456.832 468, 454.608 465.145, 454.408 461.372 C 454.186 457.186, 450.098 443.569, 449.303 444.364 C 449.036 444.631, 448.033 447.920, 447.075 451.675 C 445.615 457.389, 445.020 458.447, 443.416 458.171 C 442.362 457.991, 440.841 457.203, 440.036 456.421 C 438.753 455.176, 438.784 455, 440.286 455 C 442.266 455, 442.602 453.369, 440.750 452.746 C 439.770 452.416, 439.791 451.973, 440.845 450.696 C 442.006 449.288, 441.802 448.727, 439.345 446.565 L 436.500 444.063 439.250 444.032 C 442.650 443.993, 442.750 442.735, 439.555 440.222 C 437.889 438.911, 437.279 437.649, 437.642 436.262 C 437.935 435.142, 437.685 433.923, 437.087 433.554 C 436.489 433.184, 436 432.066, 436 431.069 C 436 430.072, 434.927 426.836, 433.616 423.878 L 431.231 418.500 430.086 422.717 C 429.456 425.036, 428.188 427.355, 427.268 427.870 C 425.926 428.621, 425.835 429.096, 426.810 430.271 C 427.778 431.438, 427.705 432, 426.448 433.043 C 425.444 433.876, 425.083 435.196, 425.455 436.676 C 425.936 438.594, 425.642 439.003, 423.769 439.015 C 421.937 439.028, 421.789 439.217, 423 440 C 424.262 440.815, 424.202 440.972, 422.628 440.985 C 421.028 440.998, 420.948 441.232, 422.078 442.594 C 423.208 443.955, 423.043 444.464, 420.951 446.072 C 418.992 447.577, 418.845 447.960, 420.219 447.978 C 421.327 447.992, 421.734 448.530, 421.365 449.492 C 421.042 450.334, 421.471 451.244, 422.352 451.581 C 423.703 452.100, 423.647 452.463, 421.928 454.308 C 419.947 456.434, 419.947 456.436, 422.199 457.269 C 424.056 457.956, 424.193 458.267, 422.976 459.036 C 422.164 459.549, 420.712 459.976, 419.750 459.985 C 418.788 459.993, 418 460.450, 418 461 C 418 461.550, 417.325 462, 416.500 462 C 415.675 462, 415 461.602, 415 461.117 C 415 460.631, 414.164 460.015, 413.142 459.747 C 411.224 459.246, 409.508 454, 411.261 454 C 411.803 454, 411.702 453.346, 411.036 452.544 C 410.372 451.743, 410.093 450.658, 410.418 450.132 C 410.743 449.607, 410.364 447.900, 409.576 446.339 C 408.788 444.777, 407.610 441.478, 406.959 439.006 L 405.773 434.511 403.776 438.756 C 401.507 443.576, 401.019 443.784, 398.500 441 C 397.505 439.900, 395.972 438.990, 395.095 438.978 C 394.218 438.966, 392.375 438.076, 391 437 C 388.870 435.334, 388.772 435.041, 390.340 435.022 C 392.068 435.001, 398 430.246, 398 428.881 C 398 428.537, 396.087 427.930, 393.750 427.531 C 389.262 426.766, 389.548 426.430, 396.432 424.375 C 398.044 423.894, 399.169 423.122, 398.932 422.659 C 398.694 422.196, 399.738 421.169, 401.250 420.377 C 402.762 419.585, 404 418.556, 404 418.091 C 404 416.257, 400.814 414.767, 397.005 414.819 C 394.802 414.850, 393 414.453, 393 413.937 C 393 413.422, 393.450 413, 394 413 C 394.550 413, 395 412.363, 395 411.583 C 395 410.804, 395.562 409.938, 396.250 409.659 C 398.109 408.905, 394.958 406.864, 392.750 407.393 C 391.788 407.624, 391 407.405, 391 406.906 C 391 406.408, 390.325 406, 389.500 406 C 388.675 406, 388 406.540, 388 407.200 C 388 408.087, 387.707 408.107, 386.878 407.278 C 386.261 406.661, 385.182 406.377, 384.479 406.646 C 382.072 407.570, 381.790 404.852, 384.045 402.452 C 386.036 400.333, 386.107 399.978, 384.650 399.419 C 382.158 398.463, 382.672 397, 385.500 397 C 387 397, 388 396.429, 388 395.571 C 388 394.786, 388.733 393.410, 389.630 392.513 C 391.136 391.007, 391.079 390.900, 388.880 391.097 C 387.571 391.215, 385.499 391.241, 384.275 391.156 C 382.313 391.018, 382.165 390.696, 383.025 388.435 C 384.443 384.704, 384.268 384.052, 381.567 383.026 C 379.786 382.348, 379.049 381.217, 378.817 378.800 C 378.470 375.189, 376.696 374.667, 376.172 378.022 C 375.992 379.177, 375.246 380.352, 374.514 380.633 C 373.601 380.983, 373.264 382.715, 373.440 386.159 C 373.715 391.545, 373.348 391.750, 367.500 389.481 C 366.166 388.964, 366.773 390.042, 369.322 392.718 C 372.490 396.045, 372.862 396.839, 371.498 397.362 C 369.596 398.092, 369.969 401.642, 371.903 401.219 C 372.610 401.064, 372.985 401.514, 372.737 402.219 C 372.483 402.941, 370.915 403.436, 369.143 403.353 C 367.415 403.271, 366 403.405, 366 403.650 C 366 403.895, 367.238 405.262, 368.750 406.688 C 370.563 408.397, 371.072 409.432, 370.244 409.726 C 368.389 410.383, 369.780 411.984, 372.309 412.102 C 373.725 412.169, 373.265 412.495, 371.011 413.025 C 368.632 413.584, 367.293 413.474, 366.801 412.677 C 366.292 411.854, 365.690 412.041, 364.760 413.313 C 363.498 415.040, 363.340 415.029, 361.068 413.059 C 359.762 411.926, 358.611 411, 358.509 411 C 358.407 411, 358.266 412.534, 358.196 414.408 C 358.119 416.455, 358.860 418.824, 360.052 420.338 C 362.515 423.470, 361.312 424.398, 355.963 423.494 C 353.783 423.126, 352.018 423.201, 352.041 423.662 C 352.063 424.123, 353.424 426.071, 355.065 427.992 C 356.707 429.912, 357.588 431.637, 357.025 431.825 C 355.019 432.494, 356.041 434, 358.500 434 C 360.308 434, 361 434.537, 361 435.941 C 361 438.572, 362.738 439.461, 364.706 437.836 C 366.070 436.710, 366.251 436.726, 365.851 437.934 C 365.084 440.254, 358.667 443.027, 352.877 443.541 C 349.920 443.803, 348.095 443.740, 348.823 443.401 C 349.848 442.923, 349.709 442.302, 348.203 440.642 C 347.134 439.464, 345.459 435.162, 344.481 431.082 L 342.702 423.664 340.205 430.420 C 337.681 437.249, 335.800 439.200, 333.733 437.133 C 332.889 436.289, 333.034 436, 334.300 436 C 336.296 436, 336.528 433.969, 334.750 432.053 C 333.734 430.959, 333.781 430.857, 335 431.508 C 335.825 431.949, 335.238 430.952, 333.696 429.294 C 331.591 427.030, 331.046 425.664, 331.510 423.815 C 331.911 422.219, 331.600 420.913, 330.629 420.107 C 329.804 419.422, 328.822 417.467, 328.448 415.763 C 327.913 413.326, 327.581 412.998, 326.894 414.225 C 326.413 415.084, 325.872 416.756, 325.691 417.941 C 325.510 419.126, 324.617 420.966, 323.706 422.031 C 322.795 423.095, 322.329 424.693, 322.670 425.584 C 323.012 426.474, 322.692 427.572, 321.960 428.025 C 320.910 428.674, 320.885 429.156, 321.840 430.307 C 323.465 432.265, 321.414 433.077, 318.024 431.817 C 316.007 431.068, 315.821 430.724, 317.024 429.964 C 317.963 429.370, 318.058 429.025, 317.285 429.015 C 315.393 428.991, 313.516 424.917, 314.981 424.012 C 315.797 423.507, 315.334 422.621, 313.500 421.179 C 312.033 420.025, 311.081 418.678, 311.385 418.187 C 312.065 417.087, 309.859 411, 308.781 411 C 308.351 411, 308 412.320, 308 413.933 C 308 415.847, 307.393 417.058, 306.250 417.421 C 304.919 417.843, 304.506 419.056, 304.524 422.488 C 304.537 424.970, 304.152 427, 303.667 427 C 303.183 427, 303.052 427.692, 303.376 428.538 C 303.714 429.419, 303.322 430.323, 302.458 430.655 C 301.295 431.101, 301.212 431.551, 302.097 432.617 C 302.994 433.698, 302.890 434, 301.622 434 C 299.711 434, 299.448 435.626, 301.250 436.302 C 302.118 436.627, 301.900 437.231, 300.538 438.277 C 298.829 439.589, 298.756 440.001, 299.973 441.468 C 301.173 442.913, 301.167 443.282, 299.936 444.061 C 299.146 444.561, 298.076 444.976, 297.559 444.985 C 297.041 444.993, 297.491 445.643, 298.559 446.429 C 300.387 447.774, 300.396 447.897, 298.721 448.547 C 297.015 449.208, 297.015 449.291, 298.721 450.547 C 300.409 451.790, 300.411 451.892, 298.750 452.536 C 297.760 452.919, 297 454.253, 297 455.607 C 297 457.379, 296.450 458, 294.878 458 C 293.104 458, 292.960 457.753, 294 456.500 C 294.988 455.310, 294.990 454.693, 294.011 453.513 C 293.332 452.695, 293.026 451.374, 293.332 450.577 C 293.638 449.781, 293.350 448.948, 292.694 448.727 C 291.806 448.428, 291.852 447.899, 292.872 446.663 C 293.654 445.716, 293.795 445, 293.200 445 C 292.625 445, 291.628 443.402, 290.983 441.448 C 290.338 439.495, 289.352 438.049, 288.791 438.236 C 287.274 438.742, 284.359 447.071, 284.198 451.358 C 284.120 453.415, 283.812 455.495, 283.512 455.980 C 283.213 456.465, 283.405 457.132, 283.940 457.463 C 285.232 458.261, 284.129 461, 282.515 461 C 277.678 461, 275.672 446.279, 271.445 379.756 C 270.636 367.025, 271.036 366.087, 279.831 360.115 C 287.300 355.043, 304.198 346, 306.207 346 C 307.970 346, 317.330 350.991, 317.833 352.199 C 318.017 352.640, 319.034 353, 320.093 353 C 321.153 353, 322.756 353.860, 323.657 354.912 C 324.557 355.964, 325.933 356.579, 326.715 356.279 C 327.496 355.980, 329.230 356.320, 330.567 357.036 C 332.531 358.087, 333.453 358.096, 335.350 357.080 C 337.076 356.157, 338.668 356.090, 341.350 356.831 C 343.357 357.385, 345 357.651, 345 357.422 C 345 357.193, 343.373 355.204, 341.384 353.003 C 338.906 350.261, 338.258 349, 339.325 349 C 340.181 349, 341.179 349.481, 341.542 350.068 C 341.905 350.656, 342.795 350.909, 343.518 350.631 C 344.242 350.354, 345.080 350.765, 345.379 351.546 C 345.679 352.327, 346.581 352.714, 347.384 352.406 C 348.187 352.098, 349.815 352.366, 351.003 353.001 C 352.190 353.637, 355.263 354.332, 357.831 354.547 C 361.575 354.859, 362.797 354.550, 364 352.985 C 365.480 351.060, 365.572 351.067, 370.750 353.471 C 373.637 354.811, 376 355.721, 376 355.493 C 376 355.265, 373.975 352.592, 371.500 349.553 C 366.598 343.534, 366.080 342.456, 368.750 343.830 C 369.712 344.325, 371.063 344.528, 371.750 344.282 C 372.438 344.035, 373 344.249, 373 344.756 C 373 346.022, 377.952 348.305, 381 348.445 C 382.375 348.508, 384.092 348.928, 384.817 349.380 C 385.541 349.831, 386.399 349.934, 386.725 349.609 C 387.050 349.284, 387.920 349.519, 388.658 350.131 C 389.680 350.979, 390 350.884, 390 349.731 C 390 346.974, 394.721 346.808, 400.997 349.343 C 407.630 352.022, 407.881 351.062, 402 345.500 C 400.255 343.850, 398.425 341.757, 397.932 340.849 C 397.127 339.367, 397.418 339.312, 400.768 340.309 C 402.821 340.920, 404.725 341.682, 405 342.002 C 405.275 342.323, 406.804 342.679, 408.399 342.794 C 409.993 342.908, 411.793 343.360, 412.399 343.798 C 413.913 344.892, 424.968 344.432, 426.175 343.225 C 426.777 342.623, 428.569 342.574, 430.827 343.099 C 436.716 344.467, 436.767 344.196, 431.500 339.518 L 426.500 335.077 432 334.867 C 435.025 334.752, 438.527 334.622, 439.782 334.579 C 441.037 334.536, 442.387 334.050, 442.782 333.500 C 443.177 332.950, 444.400 332.346, 445.500 332.158 C 446.600 331.971, 447.650 331.408, 447.833 330.908 C 448.017 330.409, 448.842 330, 449.667 330 C 450.492 330, 450.970 329.437, 450.730 328.750 C 450.490 328.063, 451.240 326.953, 452.397 326.285 C 454.236 325.223, 453.746 325.045, 448.500 324.861 C 445.200 324.746, 441.150 324.522, 439.500 324.364 C 437.850 324.206, 434.475 324.007, 432 323.922 C 426.824 323.744, 422.867 322.156, 427 321.915 C 428.375 321.835, 430.400 321.826, 431.500 321.895 C 432.929 321.984, 432.644 321.612, 430.500 320.591 C 428.307 319.547, 428.004 319.141, 429.372 319.081 C 430.921 319.014, 431.030 318.741, 430 317.500 C 428.961 316.248, 429.101 316, 430.846 316 C 432.294 316, 432.760 315.539, 432.362 314.500 C 432.042 313.668, 432.333 313, 433.015 313 C 433.902 313, 433.948 312.642, 433.181 311.718 C 432.375 310.747, 432.861 310.107, 435.185 309.079 C 441.500 306.283, 432.356 305.862, 423.831 308.556 C 422.822 308.875, 422.032 308.468, 421.831 307.526 C 421.545 306.180, 420.978 306.250, 417.643 308.044 C 415.521 309.185, 413.552 309.885, 413.266 309.599 C 412.980 309.314, 411.341 309.809, 409.623 310.701 C 406.586 312.278, 397 313.440, 397 312.231 C 397 311.900, 397.978 310.587, 399.174 309.314 L 401.349 307 399.012 307 C 397.727 307, 394.836 308.060, 392.588 309.356 C 390.062 310.811, 387.262 311.606, 385.260 311.435 C 383.479 311.282, 381.764 311.572, 381.451 312.079 C 381.138 312.585, 380.437 313, 379.894 313 C 379.350 313, 380.352 311.200, 382.120 309 C 385.805 304.415, 385.417 302.866, 381.308 305.757 C 375.616 309.759, 371.387 311.299, 365.233 311.607 C 361.134 311.812, 359.150 311.566, 359.560 310.903 C 360.585 309.244, 370.860 304.732, 372.329 305.296 C 373.073 305.581, 374.251 305.463, 374.946 305.033 C 375.939 304.420, 375.858 303.714, 374.573 301.751 C 373.020 299.382, 373.039 299.223, 374.919 298.731 C 376.011 298.446, 377.038 298.502, 377.202 298.856 C 377.366 299.210, 379.351 300.457, 381.613 301.627 C 384.626 303.184, 387.003 303.647, 390.492 303.356 C 396.527 302.854, 397.266 302.366, 395.889 299.793 C 394.798 297.754, 394.922 297.720, 401.478 298.246 L 408.183 298.784 405.311 295.642 C 403.731 293.914, 401.552 291.411, 400.469 290.080 C 398.507 287.670, 398.508 287.664, 400.500 288.464 C 401.600 288.906, 403.251 289.238, 404.169 289.202 C 405.087 289.166, 406.083 289.773, 406.381 290.551 C 406.686 291.346, 407.604 291.705, 408.475 291.371 C 409.328 291.044, 410.706 291.341, 411.537 292.031 C 412.368 292.721, 413.334 293, 413.682 292.651 C 414.031 292.303, 414.881 292.486, 415.571 293.059 C 416.262 293.632, 418.089 294.330, 419.632 294.610 C 421.175 294.890, 423.009 295.592, 423.706 296.171 C 424.403 296.750, 426.106 296.939, 427.489 296.592 C 429.116 296.184, 431.448 296.698, 434.099 298.050 C 436.351 299.199, 438.371 299.963, 438.586 299.747 C 438.802 299.531, 437.634 298.065, 435.990 296.490 C 434.345 294.915, 433.001 293.373, 433.003 293.063 C 433.004 292.753, 436.246 292.424, 440.206 292.332 C 445.473 292.209, 447.718 291.738, 448.564 290.582 C 449.200 289.712, 450.908 289, 452.360 289 C 453.988 289, 455 288.449, 455 287.563 C 455 286.674, 456.238 286.006, 458.250 285.811 L 461.500 285.495 458.180 283.686 C 456.354 282.690, 452.754 281.626, 450.180 281.320 C 444.728 280.673, 444.019 280.258, 446.029 278.890 C 447.046 278.198, 445.685 278.080, 441.618 278.509 C 436.386 279.060, 435.808 278.943, 436.380 277.453 C 436.835 276.266, 436.606 275.937, 435.596 276.325 C 434.811 276.626, 432.894 276.513, 431.335 276.074 L 428.500 275.276 431.276 273.966 C 432.803 273.245, 433.886 272.170, 433.682 271.578 C 433.479 270.985, 434.211 269.712, 435.310 268.750 C 436.408 267.788, 436.900 266.988, 436.403 266.974 C 435.906 266.960, 437.954 265.385, 440.954 263.474 L 446.407 260 441.454 259.855 C 438.729 259.775, 435.038 259.810, 433.250 259.933 C 429.754 260.173, 429.076 259.012, 431.524 256.980 C 433.888 255.018, 432.474 254.643, 429.661 256.486 C 428.279 257.392, 425.170 258.265, 422.752 258.427 C 420.334 258.588, 417.196 259.481, 415.778 260.410 C 413.772 261.724, 413.103 261.811, 412.762 260.800 C 412.410 259.753, 411.997 259.771, 410.636 260.894 C 409.708 261.661, 407.047 262.422, 404.724 262.586 L 400.500 262.884 403.500 260.437 C 405.150 259.092, 406.382 257.378, 406.237 256.629 C 406.092 255.880, 406.655 254.702, 407.487 254.011 C 410.532 251.484, 408.870 251.059, 403.750 253.056 C 398.089 255.265, 389.005 257.100, 387.690 256.300 C 387.245 256.030, 387.695 255.191, 388.690 254.436 C 389.825 253.575, 390.021 253.052, 389.215 253.032 C 387.645 252.993, 389.128 249.731, 392.299 246.250 C 395.178 243.089, 393.779 243.419, 384.882 248 C 376.571 252.279, 376 252.480, 376 251.117 C 376 250.631, 376.913 249.995, 378.029 249.703 C 379.996 249.188, 380.349 247.124, 378.680 245.898 C 378.229 245.567, 379.276 244.104, 381.007 242.648 L 384.153 240 381.414 240 C 379.188 240, 369 234.641, 369 233.470 C 369 233.294, 372.375 233.247, 376.500 233.366 C 382.074 233.527, 384 233.251, 384 232.292 C 384 231.581, 384.341 231, 384.758 231 C 386.004 231, 395.449 236.203, 396.138 237.269 C 396.489 237.812, 397.280 237.945, 397.895 237.565 C 398.511 237.184, 399.301 237.620, 399.651 238.533 C 400.109 239.726, 401.050 240.040, 402.999 239.650 C 404.582 239.334, 406.574 239.714, 407.789 240.565 C 408.933 241.366, 410.117 241.619, 410.421 241.128 C 410.725 240.636, 413.866 240.345, 417.402 240.481 L 423.830 240.728 420.717 238.114 C 417.208 235.168, 414.169 232.183, 412.101 229.650 C 410.816 228.076, 410.924 228.021, 413.435 228.975 C 414.938 229.547, 416.615 229.738, 417.161 229.401 C 417.706 229.063, 419.077 229.779, 420.207 230.992 C 421.769 232.668, 422.451 232.889, 423.054 231.912 C 423.675 230.907, 424.162 230.890, 425.297 231.832 C 426.721 233.013, 430 232.479, 430 231.066 C 430 230.670, 431.422 230.555, 433.160 230.810 C 435.773 231.194, 436.211 230.991, 435.691 229.637 C 435.073 228.027, 436.399 227.625, 442.250 227.651 C 443.212 227.655, 444 227.286, 444 226.829 C 444 226.373, 443.564 226, 443.031 226 C 442.499 226, 442.287 225.415, 442.562 224.700 C 443.145 223.181, 437.090 220, 433.615 220 C 430.474 220, 425 218.020, 425 216.883 C 425 216.376, 423.762 216.237, 422.250 216.572 L 419.500 217.183 422.500 215.098 C 424.150 213.951, 425.050 212.993, 424.500 212.967 C 423.950 212.942, 425.011 212.266, 426.858 211.464 C 429.152 210.468, 430.033 209.529, 429.639 208.503 C 429.234 207.446, 429.721 206.995, 431.281 206.985 C 432.804 206.974, 433.099 206.715, 432.221 206.158 C 431.315 205.583, 431.971 204.792, 434.471 203.446 C 436.412 202.400, 438 201.256, 438 200.903 C 438 199.751, 430.765 199.055, 428.940 200.032 C 427.766 200.660, 427.042 200.625, 426.810 199.930 C 426.564 199.192, 425.620 199.194, 423.664 199.938 C 419.692 201.448, 416.233 201.367, 417.800 199.800 C 421.256 196.344, 415.220 196.565, 409.382 200.108 C 407.667 201.149, 405.515 202, 404.601 202 C 403.686 202, 402.707 202.600, 402.426 203.333 C 402.144 204.067, 400.544 204.667, 398.869 204.667 C 397.194 204.667, 395.524 205.153, 395.156 205.747 C 394.483 206.837, 384.531 206.864, 383.446 205.779 C 383.128 205.461, 383.882 204.256, 385.122 203.101 L 387.377 201 384.189 201 C 381.083 201, 379.985 199.745, 382 198.500 C 382.550 198.160, 383 197.389, 383 196.786 C 383 196.142, 382.279 196.304, 381.250 197.180 C 379.219 198.910, 373.744 201.208, 372.412 200.890 C 371.026 200.559, 365.672 202.140, 364.174 203.324 C 363.328 203.991, 362.603 204.020, 362.174 203.402 C 361.382 202.263, 359.481 202.186, 358.417 203.250 C 358.004 203.663, 356.954 203.986, 356.083 203.968 C 354.724 203.941, 354.749 203.748, 356.261 202.600 C 357.820 201.416, 357.849 201.120, 356.511 200.009 C 354.231 198.117, 354.690 197.218, 357.649 197.784 C 359.477 198.133, 360.078 197.935, 359.590 197.145 C 358.680 195.673, 362.419 195.619, 365.121 197.065 C 369.097 199.193, 369.256 197.285, 365.465 192.943 C 358.367 184.813, 358.580 185.271, 361.960 185.392 C 363.617 185.451, 365.187 186.055, 365.449 186.733 C 365.710 187.411, 366.544 187.728, 367.302 187.438 C 368.060 187.147, 369.257 187.604, 369.962 188.454 C 370.668 189.305, 372 190, 372.922 190 C 373.845 190, 375.115 190.515, 375.744 191.144 C 376.373 191.773, 378.600 192.430, 380.694 192.604 C 392.730 193.608, 397 193.703, 397 192.969 C 397 192.516, 395.875 191.260, 394.500 190.179 C 393.125 189.097, 392 187.896, 392 187.510 C 392 187.125, 391.069 185.502, 389.932 183.904 C 387.535 180.539, 388.614 180.122, 392.273 183 C 395.081 185.209, 397.529 185.572, 398.544 183.929 C 398.950 183.272, 400.709 183.113, 403.103 183.517 C 405.648 183.947, 407 183.798, 407 183.088 C 407 182.461, 408.958 182, 411.622 182 C 415.618 182, 416.076 181.797, 415 180.500 C 414.315 179.675, 413.341 179, 412.836 179 C 412.330 179, 410.923 178.061, 409.708 176.913 C 408.494 175.765, 405.895 173.998, 403.933 172.986 C 401.971 171.974, 399.722 170.370, 398.936 169.422 C 397.604 167.818, 397.835 167.748, 402.253 168.411 C 406.911 169.109, 408.059 168.459, 405.928 166.328 C 405.166 165.566, 406.187 165.230, 409.466 165.164 C 414.409 165.065, 416.349 164.374, 415.508 163.012 C 415.219 162.545, 416.340 161.865, 418 161.500 C 419.660 161.135, 420.773 160.442, 420.475 159.960 C 420.177 159.477, 421.635 158.184, 423.716 157.085 C 425.797 155.987, 426.825 155.037, 426 154.974 C 424.989 154.897, 425.152 154.598, 426.500 154.057 C 428.196 153.376, 427.876 153.083, 424.385 152.125 C 422.122 151.504, 418.860 151.278, 417.135 151.623 C 415.010 152.048, 414 151.862, 414 151.046 C 414 150.231, 413.041 150.052, 411.034 150.493 C 404.716 151.880, 401 151.846, 401 150.400 C 401 149.630, 401.525 149, 402.167 149 C 402.808 149, 403.039 148.706, 402.679 148.346 C 402.320 147.986, 403.370 146.408, 405.013 144.837 C 408.474 141.529, 408.638 141.015, 406.250 140.958 C 404.982 140.928, 405.602 139.931, 408.500 137.340 C 411.938 134.266, 412.149 133.862, 410 134.457 C 408.625 134.839, 403.812 136.884, 399.305 139.003 L 391.110 142.855 391.549 139.428 C 391.790 137.542, 391.727 136, 391.409 136 C 391.091 136, 388.282 137.970, 385.166 140.378 C 382.049 142.786, 378.825 144.758, 378 144.759 C 377.175 144.761, 375.600 145.117, 374.500 145.550 L 372.500 146.339 374.500 144.024 L 376.500 141.709 374 142.996 C 372.625 143.704, 370.266 145.148, 368.757 146.205 C 367.248 147.262, 365.541 147.834, 364.963 147.477 C 364.385 147.120, 363.370 147.237, 362.706 147.737 C 362.043 148.237, 360.426 148.702, 359.113 148.771 L 356.725 148.896 359.611 145.884 C 361.741 143.661, 361.996 143.064, 360.584 143.606 C 359.249 144.119, 358.890 143.987, 359.395 143.170 C 360.570 141.269, 358.756 141.776, 349.172 146.031 C 342.571 148.961, 339.374 149.881, 337.464 149.402 L 334.837 148.742 339.168 144.266 L 343.500 139.790 338.223 142.425 C 335.321 143.875, 331.221 145.207, 329.111 145.386 C 327.002 145.565, 324.657 146.094, 323.900 146.562 C 323.142 147.030, 320.268 147.470, 317.511 147.540 C 314.755 147.610, 312.050 147.795, 311.500 147.952 C 310.950 148.109, 308.475 148.182, 306 148.115 L 301.500 147.993 304.839 145.957 C 307.502 144.333, 307.946 143.639, 307.027 142.533 C 306.097 141.412, 306.416 141.083, 308.688 140.822 C 310.403 140.626, 311.390 139.976, 311.219 139.157 C 311.003 138.122, 311.864 137.970, 314.969 138.495 C 319.261 139.220, 319.741 138.930, 317.750 136.815 C 315.586 134.516, 311.043 127.624, 311.433 127.234 C 311.639 127.028, 313.711 127.780, 316.039 128.905 C 318.367 130.030, 320.681 130.697, 321.180 130.389 C 321.679 130.080, 322.720 130.353, 323.493 130.994 C 324.265 131.635, 326.807 132.379, 329.140 132.647 C 331.474 132.915, 334.167 133.554, 335.124 134.067 C 336.082 134.579, 338.033 135.442, 339.460 135.985 C 341.835 136.888, 341.967 136.807, 341.020 135.037 C 340.450 133.973, 339.003 132.415, 337.803 131.574 C 336.603 130.734, 335.858 129.809, 336.148 129.518 C 337.053 128.614, 343.418 131.132, 345.126 133.070 C 346.020 134.085, 347.030 134.636, 347.371 134.296 C 347.711 133.955, 350.175 134.866, 352.847 136.320 C 355.518 137.774, 358.019 138.648, 358.405 138.262 C 358.790 137.876, 358.809 138.335, 358.446 139.280 C 357.717 141.180, 359.469 141.668, 360.578 139.874 C 361.029 139.143, 363.453 138.923, 367.483 139.247 L 373.692 139.745 370.096 136.400 L 366.500 133.054 370.691 133.027 C 372.996 133.012, 375.160 132.550, 375.500 132 C 375.840 131.450, 377.072 131, 378.238 131 C 381.021 131, 387.232 128.803, 388.500 127.370 C 389.050 126.748, 390.827 125.930, 392.448 125.551 C 394.671 125.032, 395.047 124.647, 393.977 123.986 C 392.432 123.031, 392.552 122.805, 395.418 121.264 C 397.075 120.373, 396.774 120.138, 393.205 119.535 C 390.932 119.151, 388.587 119.137, 387.993 119.504 C 387.399 119.872, 386.277 119.645, 385.500 119 C 384.723 118.355, 383.548 118.161, 382.889 118.568 C 382.160 119.019, 381.953 118.886, 382.359 118.228 C 382.817 117.486, 381.085 117.250, 376.830 117.474 C 373.422 117.653, 369.711 117.459, 368.583 117.041 C 366.566 116.295, 366.569 116.271, 368.766 115.574 C 370.791 114.932, 371.451 113.858, 371.118 111.750 C 371.053 111.337, 371.702 111, 372.559 111 C 373.416 111, 373.840 110.550, 373.500 110 C 373.160 109.450, 373.584 109, 374.441 109 C 376.478 109, 376.441 107.346, 374.378 106.192 C 372.954 105.395, 373.042 105.084, 375.101 103.642 C 377.056 102.272, 377.149 102, 375.657 102 C 374.673 102, 373.068 102.429, 372.089 102.952 C 371.110 103.476, 369.227 104.137, 367.905 104.420 C 366.582 104.704, 363.810 105.354, 361.745 105.864 C 359.679 106.374, 357.785 106.461, 357.535 106.056 C 357.285 105.652, 355.134 105.495, 352.754 105.707 C 350.375 105.920, 347.320 105.671, 345.964 105.155 L 343.500 104.215 346.250 103.499 C 347.762 103.105, 349 102.157, 349 101.392 C 349 100.506, 350.112 100, 352.059 100 C 353.741 100, 354.865 99.591, 354.556 99.090 C 353.642 97.611, 355.083 95.006, 356.857 94.930 C 358.318 94.867, 358.310 94.784, 356.783 94.178 C 355.466 93.656, 356.106 93.067, 359.533 91.649 C 364.201 89.719, 365.024 88.607, 362.500 87.638 C 360.107 86.720, 360.720 85.466, 365.018 82.487 C 367.228 80.956, 368.890 79.557, 368.712 79.379 C 368.533 79.200, 366.838 79.449, 364.944 79.932 C 363.050 80.415, 358.407 81.096, 354.628 81.445 C 348.681 81.995, 347.839 81.873, 348.378 80.540 C 350.562 75.135, 350.568 75.381, 348.293 77 C 338.984 83.625, 334 86.683, 334 85.769 C 334 85.176, 333.100 85.505, 332 86.500 C 330.900 87.495, 329.986 87.903, 329.968 87.405 C 329.951 86.907, 329.388 87.175, 328.718 88 C 326.992 90.125, 321.707 91.832, 319.960 90.829 C 319.157 90.368, 316.475 89.143, 314 88.107 L 309.500 86.223 312.419 85.072 C 314.024 84.439, 315.915 83.152, 316.622 82.211 C 317.692 80.787, 317.634 80.292, 316.277 79.260 C 315.380 78.579, 314.838 77.880, 315.073 77.708 C 315.308 77.536, 316.786 76.589, 318.357 75.604 C 320.508 74.256, 320.930 73.530, 320.065 72.665 C 319.200 71.800, 319.730 70.851, 322.208 68.823 L 325.500 66.130 318.500 68.141 C 305.995 71.733, 302.546 72.789, 299.750 73.879 C 297.202 74.872, 297 74.769, 297 72.475 C 297 69.567, 296.325 69.396, 293.814 71.668 C 292.800 72.586, 291.190 73.401, 290.235 73.480 C 289.281 73.558, 287.459 74.189, 286.186 74.881 C 284.470 75.814, 283.524 75.850, 282.525 75.021 C 281.597 74.250, 280.977 74.229, 280.530 74.951 C 279.586 76.479, 275.811 76.177, 273.500 74.390 C 271.579 72.904, 271.621 72.855, 274.586 73.144 C 276.297 73.310, 278.845 72.676, 280.301 71.722 C 281.747 70.775, 283.620 70, 284.465 70 C 285.309 70, 286 69.606, 286 69.125 C 286 68.644, 287.388 67.972, 289.084 67.633 C 290.780 67.294, 293.499 66.069, 295.126 64.911 C 297.485 63.231, 297.847 62.521, 296.919 61.402 C 295.961 60.248, 296.351 59.988, 299.128 59.930 C 301.565 59.879, 301.994 59.660, 300.676 59.141 C 298.128 58.137, 298.382 57.047, 301.667 54.881 C 303.391 53.744, 303.913 52.984, 303 52.939 C 302.064 52.893, 302.346 52.457, 303.750 51.780 C 306.855 50.282, 306.593 48.824, 303.435 50.025 C 299.854 51.386, 295.255 51.241, 294.708 49.750 C 294.342 48.750, 293.985 48.750, 292.925 49.750 C 292.196 50.438, 289.778 50.964, 287.550 50.921 C 283.652 50.845, 283.603 50.804, 286.250 49.838 C 289.552 48.632, 289.930 46.989, 286.750 47.667 C 285.010 48.038, 285.598 47.110, 289.347 43.573 C 292.012 41.058, 294.009 39, 293.785 39 C 293.560 39, 291.604 39.838, 289.438 40.863 C 284.999 42.963, 280 44.335, 280 43.453 C 280 43.132, 280.474 41.886, 281.053 40.684 C 281.940 38.845, 281.742 38.912, 279.803 41.113 C 278.536 42.550, 276.304 44.487, 274.842 45.418 C 272.195 47.102, 272.180 47.096, 271.512 44.055 C 270.705 40.381, 268 39.915, 268 43.450 C 268 44.798, 267.404 46.260, 266.675 46.700 C 265.946 47.140, 265.040 48.338, 264.663 49.363 C 264.123 50.828, 263.679 50.978, 262.578 50.065 C 261.477 49.151, 260.856 49.367, 259.654 51.084 C 257.943 53.527, 254.389 53.036, 255.365 50.492 C 255.753 49.481, 255.303 49, 253.969 49 C 251.786 49, 251.438 47.962, 253.073 46.327 C 253.838 45.562, 253.416 45.070, 251.609 44.617 C 249.895 44.187, 249.256 43.496, 249.642 42.490 C 250.006 41.543, 249.616 41, 248.572 41 C 247.217 41, 247.125 40.635, 248.046 38.914 C 249.346 36.485, 248.508 35.092, 246.783 36.817 C 246.132 37.468, 244.738 38, 243.683 38 C 242.178 38, 241.869 37.463, 242.245 35.500 C 242.727 32.979, 240.787 31.918, 239.500 34 C 238.413 35.760, 236 35.070, 236 33 C 236 30.798, 234.412 30.269, 233.746 32.250 C 233.335 33.473, 232.327 33.257, 224 30.159 C 223.174 29.852, 223.736 31.074, 225.250 32.877 M 247.081 106.249 C 247.010 107.781, 246.226 107.929, 240.750 107.444 C 234.828 106.920, 234.617 106.974, 236.730 108.488 C 242.094 112.330, 250.047 114.292, 249.955 111.750 C 249.875 109.524, 247.170 104.346, 247.081 106.249 M 257.663 105.750 C 257.210 106.496, 256.625 115.367, 256.871 117.750 C 257.096 119.935, 260.459 119.102, 264.038 115.975 L 267.500 112.950 263.628 114.475 C 261.498 115.314, 259.534 116, 259.263 116 C 258.991 116, 259.079 113.525, 259.457 110.500 C 259.894 107.001, 259.775 105, 259.131 105 C 258.574 105, 257.913 105.338, 257.663 105.750 M 223 114.870 C 223 115.413, 220.465 115.581, 217 115.266 C 213.700 114.967, 211 114.998, 211 115.335 C 211 116.336, 216.897 119.087, 224.441 121.606 C 231.177 123.854, 231.374 123.868, 228.750 121.898 C 224.580 118.767, 225.349 117.906, 231.655 118.647 C 238.669 119.472, 238.319 117.575, 231.262 116.517 C 228.643 116.124, 225.713 115.381, 224.750 114.866 C 223.660 114.283, 223 114.284, 223 114.870 M 276.638 131.500 C 276.279 132.436, 276.646 133, 277.615 133 C 278.468 133, 278.973 133.563, 278.736 134.250 C 278.499 134.938, 277.111 135.482, 275.652 135.461 C 274.194 135.439, 273 135.964, 273 136.627 C 273 137.291, 271.762 138.280, 270.250 138.827 C 267.636 139.771, 267.698 139.817, 271.500 139.754 C 273.700 139.717, 278.370 138.615, 281.877 137.304 C 288.501 134.829, 290.178 134.876, 288.020 137.476 C 287.324 138.314, 287.121 139, 287.569 139 C 288.016 139, 287.509 139.661, 286.441 140.468 C 284.549 141.900, 284.556 141.937, 286.750 141.968 C 288.097 141.987, 289 141.398, 289 140.500 C 289 138.921, 290.597 138.419, 291.167 139.819 C 291.650 141.005, 300.158 139.973, 299.759 138.777 C 299.462 137.886, 279.884 130, 277.970 130 C 277.554 130, 276.955 130.675, 276.638 131.500 M 302 138 C 302 138.550, 302.477 139, 303.059 139 C 303.641 139, 303.840 138.550, 303.500 138 C 303.160 137.450, 302.684 137, 302.441 137 C 302.198 137, 302 137.450, 302 138 M 206.487 139.979 C 207.232 141.185, 210.668 141.346, 211.372 140.207 C 211.641 139.772, 210.510 139.312, 208.859 139.186 C 207.022 139.046, 206.101 139.354, 206.487 139.979 M 176 151 C 176 151.550, 176.450 152, 177 152 C 177.550 152, 178 151.550, 178 151 C 178 150.450, 177.550 150, 177 150 C 176.450 150, 176 150.450, 176 151 M 179 153.059 C 179 153.641, 179.450 153.840, 180 153.500 C 180.550 153.160, 181 152.684, 181 152.441 C 181 152.198, 180.550 152, 180 152 C 179.450 152, 179 152.477, 179 153.059 M 251.404 166.156 C 251.180 166.517, 249.986 166.563, 248.749 166.258 C 247.512 165.954, 246.834 166.067, 247.241 166.510 C 247.649 166.953, 247.530 167.862, 246.976 168.528 C 246.235 169.422, 247.272 170.301, 250.920 171.870 C 256.836 174.415, 258.423 174.545, 257.607 172.418 C 257.273 171.548, 257 169.636, 257 168.168 C 257 165.963, 256.550 165.500, 254.405 165.500 C 252.977 165.500, 251.627 165.795, 251.404 166.156 M 264.580 168.716 C 265.428 173.416, 265.757 174, 267.559 174 C 269.453 174, 269.412 172.372, 267.500 171.638 C 266.675 171.322, 266 170.541, 266 169.903 C 266 169.089, 267.492 168.940, 271 169.406 C 273.830 169.781, 276 169.673, 276 169.157 C 276 167.307, 272.824 165.700, 268.422 165.322 L 263.897 164.933 264.580 168.716 M 276.665 167.569 C 277.268 169.140, 278.033 169.308, 280.418 168.393 C 282.947 167.423, 282.251 166.311, 279.058 166.221 C 276.896 166.159, 276.261 166.517, 276.665 167.569 M 283 168 C 283 168.550, 283.477 169, 284.059 169 C 284.641 169, 284.840 168.550, 284.500 168 C 284.160 167.450, 283.684 167, 283.441 167 C 283.198 167, 283 167.450, 283 168 M 173.500 178.426 C 175.150 179.202, 176.050 179.877, 175.500 179.925 C 174.311 180.029, 179.800 183, 181.181 183 C 181.704 183, 181.990 181.814, 181.816 180.364 C 181.524 177.926, 181.088 177.702, 176 177.372 C 170.614 177.022, 170.562 177.044, 173.500 178.426 M 183.473 179.956 C 183.798 180.482, 184.725 180.659, 185.532 180.349 C 187.599 179.556, 187.356 179, 184.941 179 C 183.809 179, 183.148 179.430, 183.473 179.956 M 231 180 C 229.147 180.593, 230.134 180.826, 234.809 180.900 C 238.784 180.963, 240.889 180.630, 240.500 180 C 239.783 178.840, 234.623 178.840, 231 180 M 266.667 182.667 C 265.302 184.031, 265.993 188, 267.596 188 C 269.492 188, 275.349 184.016, 274.582 183.248 C 274.288 182.955, 273.319 183.320, 272.427 184.060 C 271.050 185.204, 270.663 185.150, 269.854 183.703 C 268.849 181.908, 267.775 181.559, 266.667 182.667 M 162.885 186.805 C 161.573 187.798, 159.170 188.701, 157.544 188.811 C 155.918 188.921, 154.166 189.434, 153.650 189.950 C 152.364 191.236, 157.301 192.391, 160.768 191.616 C 162.271 191.280, 166.034 190.832, 169.132 190.619 C 174.522 190.248, 180.876 188.103, 176.800 188.030 C 175.865 188.014, 174.676 187.244, 174.159 186.319 C 173.278 184.745, 173.112 184.745, 171.538 186.319 C 169.417 188.440, 166.570 188.563, 167.362 186.500 C 168.153 184.438, 165.801 184.598, 162.885 186.805 M 213.587 191.032 C 211.435 192.106, 208.925 193.663, 208.008 194.492 C 207.092 195.322, 205.827 196, 205.197 196 C 204.079 196, 201 200.997, 201 202.811 C 201 203.945, 206.583 203.530, 210.215 202.126 C 214.248 200.566, 214.697 202.547, 211.076 205.929 C 207.001 209.736, 207.190 210.421, 211.628 207.928 C 214.974 206.049, 215.203 206.031, 214.569 207.695 C 214.018 209.143, 214.131 209.252, 215.141 208.250 C 217.155 206.251, 218.089 206.796, 217.394 209.566 L 216.750 212.131 220.548 210.544 C 222.637 209.671, 225.017 208.404, 225.836 207.729 C 227.015 206.756, 227.413 206.760, 227.746 207.750 C 228.440 209.811, 230.725 209.181, 234.465 205.896 C 238.713 202.166, 238.936 200.788, 235.250 201.031 C 230.685 201.332, 229.761 201.065, 230.321 199.606 C 230.975 197.900, 221.869 196.496, 217.391 197.612 C 214.659 198.292, 214.581 198.227, 215.983 196.416 C 216.799 195.362, 218.707 193.262, 220.224 191.750 L 222.982 189 220.241 189.040 C 218.733 189.062, 215.739 189.958, 213.587 191.032 M 179.813 191.683 C 180.534 191.972, 181.397 191.936, 181.729 191.604 C 182.061 191.272, 181.471 191.036, 180.417 191.079 C 179.252 191.127, 179.015 191.364, 179.813 191.683 M 332.054 197.565 C 334.978 201.088, 350 206.583, 350 204.129 C 350 203.600, 348.650 202.570, 347 201.840 C 345.350 201.109, 344 200.145, 344 199.697 C 344 199.249, 343.522 199.178, 342.937 199.539 C 342.352 199.900, 341.115 199.538, 340.187 198.733 C 339.259 197.929, 336.776 197.007, 334.669 196.685 C 331.381 196.182, 331.010 196.307, 332.054 197.565 M 194 199.759 C 190.975 201.261, 188.313 202.605, 188.083 202.745 C 187.854 202.885, 187.987 203.320, 188.379 203.712 C 188.770 204.104, 190.031 203.837, 191.179 203.120 C 192.681 202.182, 193.461 202.128, 193.956 202.928 C 194.729 204.179, 201.055 200.385, 201.756 198.250 C 202.392 196.313, 200.001 196.778, 194 199.759 M 286.500 199.592 C 270.962 205.228, 269 206.192, 269 208.196 C 269 210.808, 271.589 210.213, 282.500 205.097 C 293.897 199.752, 296.702 195.891, 286.500 199.592 M 247.787 203.939 C 244.660 205.516, 241.967 206.411, 241.801 205.929 C 241.400 204.760, 237 205.955, 237 207.233 C 237 207.783, 237.900 207.998, 239 207.710 C 241.535 207.047, 241.516 207.152, 238.500 210.405 C 235.287 213.872, 235.345 214.973, 238.750 215.115 C 243.912 215.332, 244.500 215.501, 244.267 216.700 C 244.031 217.909, 247.037 217.798, 251.750 216.423 C 253.426 215.934, 254 216.179, 254 217.383 C 254 218.273, 254.498 219, 255.106 219 C 256.508 219, 255.936 203.536, 254.480 202.080 C 253.802 201.402, 251.610 202.011, 247.787 203.939 M 323.510 202.016 C 323.856 202.575, 324.557 202.774, 325.069 202.457 C 326.456 201.600, 326.198 201, 324.441 201 C 323.584 201, 323.165 201.457, 323.510 202.016 M 330.500 202 C 330.840 202.550, 332.018 203, 333.118 203 C 334.218 203, 334.840 202.550, 334.500 202 C 334.160 201.450, 332.982 201, 331.882 201 C 330.782 201, 330.160 201.450, 330.500 202 M 320 203.685 C 318.625 203.912, 316.825 204.330, 316 204.614 C 315.175 204.897, 314.500 204.996, 314.500 204.833 C 314.500 204.670, 313.387 205.316, 312.027 206.268 C 310.668 207.221, 308.353 208, 306.884 208 C 305.400 208, 303.951 208.685, 303.622 209.543 C 303.134 210.815, 302.632 210.877, 300.765 209.893 C 299.519 209.237, 298.213 208.260, 297.862 207.722 C 297.493 207.157, 296.648 207.104, 295.862 207.595 C 294.381 208.521, 293.897 208.620, 289.691 208.848 C 285.731 209.062, 287.221 210.693, 292.136 211.523 C 295.003 212.007, 295.841 212.481, 294.881 213.074 C 293.739 213.780, 293.801 214.229, 295.240 215.668 C 296.798 217.227, 297.374 217.265, 300.740 216.036 C 302.808 215.281, 306.193 214.349, 308.263 213.964 C 311.633 213.337, 311.894 213.433, 310.763 214.882 C 310.068 215.772, 308.825 217.048, 308 217.718 C 306.725 218.754, 306.866 218.941, 308.941 218.968 C 311.289 218.999, 311.309 219.054, 309.452 220.411 C 308.391 221.188, 307.180 221.611, 306.761 221.352 C 306.342 221.094, 306 221.411, 306 222.058 C 306 222.814, 306.803 222.988, 308.250 222.546 C 312.217 221.333, 315 221.150, 315 222.101 C 315 222.610, 316.623 222.349, 318.606 221.520 C 320.590 220.691, 322.584 220.243, 323.037 220.523 C 323.491 220.803, 324.156 220.557, 324.515 219.976 C 324.874 219.394, 326.030 219.192, 327.084 219.527 C 328.155 219.867, 329 219.664, 329 219.067 C 329 218.480, 330.012 217.948, 331.250 217.884 C 333.013 217.793, 333.111 217.667, 331.705 217.302 C 330.717 217.046, 328.530 217.317, 326.843 217.905 C 324.154 218.842, 323.931 218.788, 325.031 217.463 C 326.705 215.445, 326.063 214.990, 320.348 214.146 L 315.500 213.430 320.750 211.518 C 326.452 209.440, 327.045 208.629, 324.037 207.020 C 322.884 206.402, 322.309 205.357, 322.644 204.485 C 322.958 203.668, 323.053 203.061, 322.857 203.136 C 322.661 203.211, 321.375 203.458, 320 203.685 M 351 204 C 351 204.550, 351.675 205, 352.500 205 C 353.325 205, 354 204.550, 354 204 C 354 203.450, 353.325 203, 352.500 203 C 351.675 203, 351 203.450, 351 204 M 164 210.417 C 164 211.287, 164.713 212, 165.583 212 C 167.349 212, 167.042 209.847, 165.188 209.229 C 164.534 209.011, 164 209.546, 164 210.417 M 270.103 217.723 C 266.346 221.019, 266.208 222, 269.500 222 C 270.875 222, 272 222.382, 272 222.850 C 272 224.344, 280.336 223.011, 285.250 220.731 C 289.661 218.685, 291.354 217, 289 217 C 288.450 217, 288 217.477, 288 218.059 C 288 218.641, 287.553 218.842, 287.006 218.504 C 286.178 217.992, 283.449 217.695, 273.691 217.053 C 273.246 217.024, 273.160 216.550, 273.500 216 C 274.571 214.268, 273.314 214.905, 270.103 217.723 M 328.250 237.706 C 327.012 237.944, 326 238.606, 326 239.177 C 326 239.776, 326.738 239.906, 327.750 239.483 C 328.712 239.081, 330.850 238.404, 332.500 237.979 C 335.147 237.296, 335.206 237.209, 333 237.239 C 331.625 237.257, 329.488 237.467, 328.250 237.706 M 335.115 239.393 C 333.559 240.255, 333.128 240.961, 333.875 241.422 C 334.504 241.812, 336.201 241.201, 337.645 240.065 C 340.554 237.776, 338.849 237.323, 335.115 239.393 M 329.872 240.750 C 328.629 242.336, 328.664 242.371, 330.250 241.128 C 331.916 239.821, 332.445 239, 331.622 239 C 331.415 239, 330.627 239.787, 329.872 240.750 M 363.427 244.728 C 363.766 247.902, 360.595 250.225, 357.816 248.840 C 356.889 248.378, 355.202 248, 354.066 248 C 352.930 248, 352 247.550, 352 247 C 352 246.450, 351.309 246, 350.465 246 C 349.620 246, 347.806 245.264, 346.434 244.365 C 345.061 243.465, 343.690 242.976, 343.388 243.279 C 342.491 244.175, 344.954 248, 346.428 248 C 347.175 248, 348.054 248.698, 348.381 249.551 C 348.821 250.698, 350.022 250.998, 352.988 250.701 C 357.167 250.283, 357.825 250.775, 355.800 252.800 C 353.858 254.742, 355.965 254.173, 358.710 252.014 C 360.099 250.921, 361.603 250.255, 362.053 250.533 C 362.503 250.811, 363.958 250.017, 365.286 248.769 C 366.615 247.521, 369.225 245.488, 371.087 244.250 L 374.472 242 368.804 242 C 363.228 242, 363.141 242.044, 363.427 244.728 M 215 244.947 C 215 246.350, 221.986 252.037, 230.484 257.552 C 248.787 269.429, 256.057 271.031, 255.985 263.168 C 255.955 259.912, 254.532 258.847, 251.667 259.936 C 248.700 261.064, 248.275 260.224, 250.093 256.826 C 251.131 254.886, 250.953 254.802, 246.539 255.153 C 242.417 255.481, 241.946 255.313, 242.376 253.671 C 242.777 252.137, 242.442 251.923, 240.430 252.428 C 238.625 252.881, 238 252.632, 238 251.459 C 238 250.266, 237.266 249.996, 235 250.353 C 233.303 250.620, 232 250.378, 232 249.796 C 232 249.230, 231.213 248.989, 230.250 249.261 C 225.829 250.511, 225.500 250.459, 225.476 248.500 C 225.461 247.188, 224.875 246.597, 223.773 246.783 C 222.850 246.939, 220.498 246.399, 218.547 245.584 C 216.596 244.769, 215 244.482, 215 244.947 M 339.500 245 C 339.160 245.550, 339.359 246, 339.941 246 C 340.523 246, 341 245.550, 341 245 C 341 244.450, 340.802 244, 340.559 244 C 340.316 244, 339.840 244.450, 339.500 245 M 196.372 246.792 C 197.594 248.770, 211 251.763, 211 250.058 C 211 248.867, 206.219 247.189, 200.608 246.410 C 197.256 245.944, 195.922 246.065, 196.372 246.792 M 204.612 258.918 L 198.724 259.500 203.035 261.911 C 206.120 263.637, 208.985 264.345, 213.111 264.401 C 218.383 264.472, 218.750 264.619, 217.396 266.115 C 216.070 267.580, 216.155 267.803, 218.208 268.255 C 219.469 268.532, 223.104 269.468, 226.286 270.334 C 233.281 272.238, 236.114 271.663, 232.749 269.021 C 227.192 264.658, 215.027 258.016, 212.873 258.168 C 211.568 258.261, 207.850 258.598, 204.612 258.918 M 267.710 260.313 C 267.098 261.907, 267.982 267.006, 268.867 266.985 C 269.215 266.977, 271.300 265.372, 273.500 263.419 C 277.398 259.958, 277.428 259.883, 274.666 260.474 C 272.827 260.867, 272.058 260.715, 272.475 260.040 C 272.854 259.428, 272.109 259, 270.666 259 C 269.317 259, 267.987 259.591, 267.710 260.313 M 180.693 262.954 C 186.744 266.644, 191.926 269, 193.990 269 C 196.050 269, 196.049 268.985, 193.840 265.998 C 192.452 264.120, 191.364 263.411, 190.935 264.105 C 190.517 264.782, 189.325 264.921, 187.875 264.460 C 186.569 264.046, 185.383 263.782, 185.240 263.874 C 185.096 263.965, 183.656 263.356, 182.039 262.520 C 177.838 260.348, 176.909 260.647, 180.693 262.954 M 187.427 262.521 C 188.487 263.323, 189.599 263.735, 189.898 263.435 C 190.526 262.808, 187.986 261.023, 186.500 261.047 C 185.950 261.056, 186.367 261.720, 187.427 262.521 M 139.002 263.537 C 139.001 264.108, 138.050 264.646, 136.888 264.733 C 135.727 264.821, 134.039 265.533, 133.138 266.316 C 132.237 267.099, 130.954 267.541, 130.288 267.299 C 129.621 267.057, 128.278 267.304, 127.304 267.850 C 125.214 269.019, 144.413 268.697, 147.250 267.515 C 149.922 266.402, 149.333 265.214, 146.389 265.776 C 144.105 266.213, 143.861 266.012, 144.445 264.174 C 145.031 262.325, 144.743 262.098, 142.058 262.286 C 140.378 262.404, 139.003 262.967, 139.002 263.537 M 299.678 264.492 C 298.205 265.256, 297 265.673, 297 265.418 C 297 265.163, 295.878 265.689, 294.508 266.587 C 293.137 267.485, 291.374 267.974, 290.590 267.673 C 289.807 267.372, 288.917 267.773, 288.614 268.563 C 287.858 270.533, 286 270.378, 286 268.345 C 286 266.827, 285.844 266.832, 284.104 268.406 C 282.881 269.513, 282.074 269.723, 281.833 268.999 C 281.565 268.196, 280.688 268.168, 278.765 268.899 C 277.099 269.533, 275.849 269.564, 275.489 268.982 C 275.136 268.410, 274.239 268.397, 273.204 268.947 C 272.267 269.446, 270.712 270.098, 269.750 270.396 C 268.215 270.871, 268 272.362, 268 282.534 C 268 295.514, 268.774 298.013, 272.785 297.973 C 276.945 297.932, 294.307 290.687, 301.541 285.973 C 305.094 283.659, 308 281.655, 308 281.520 C 308 281.385, 305.291 281.367, 301.980 281.482 C 296.419 281.673, 295.915 281.510, 295.372 279.344 C 294.681 276.591, 293.930 276.511, 287.409 278.489 C 284.709 279.308, 281.375 279.960, 280 279.937 L 277.500 279.895 279.866 278.198 C 281.167 277.264, 287.166 273.737, 293.198 270.360 C 299.229 266.982, 303.757 263.968, 303.260 263.661 C 302.763 263.354, 301.151 263.728, 299.678 264.492 M 195.640 266.085 C 197.273 267.717, 198.064 267.883, 200.064 267.008 C 202.321 266.022, 202.335 265.976, 200.250 266.378 C 199.012 266.617, 198 266.457, 198 266.023 C 198 265.589, 197.022 264.977, 195.826 264.665 C 193.656 264.097, 193.656 264.100, 195.640 266.085 M 121.750 268.662 C 122.438 268.940, 123.563 268.940, 124.250 268.662 C 124.938 268.385, 124.375 268.158, 123 268.158 C 121.625 268.158, 121.063 268.385, 121.750 268.662 M 305.441 269.468 C 303.975 270.577, 303.867 270.936, 305 270.936 C 305.825 270.936, 307.374 270.276, 308.441 269.468 C 309.907 268.359, 310.015 268, 308.882 268 C 308.057 268, 306.509 268.661, 305.441 269.468 M 175.500 269.719 C 177.178 271.363, 184.875 274.004, 187.770 273.929 C 190.204 273.866, 190.012 273.640, 186 271.844 C 180.925 269.571, 173.898 268.150, 175.500 269.719 M 305.561 274.901 C 305.255 275.396, 303.654 275.708, 302.002 275.593 C 298.687 275.364, 298.222 276.109, 300.500 278 C 301.703 278.998, 302.326 278.973, 303.646 277.872 C 304.551 277.118, 306.463 275.974, 307.896 275.331 C 310.326 274.240, 310.354 274.157, 308.309 274.081 C 307.104 274.037, 305.868 274.405, 305.561 274.901 M 173 276 C 173 276.550, 171.902 277, 170.559 277 C 169.216 277, 167.826 277.472, 167.470 278.049 C 167.027 278.765, 166.376 278.727, 165.411 277.926 C 164.446 277.125, 164 277.099, 164 277.842 C 164 280.584, 174.941 282.677, 175.800 280.100 C 176.002 279.495, 176.692 278.997, 177.333 278.994 C 177.975 278.991, 180.300 278.462, 182.500 277.819 L 186.500 276.648 182.500 275.882 C 176.806 274.791, 173 274.838, 173 276 M 155.732 279 C 154.114 280.890, 154.115 280.999, 155.760 280.985 C 157.886 280.966, 159.417 279.917, 159.750 278.250 C 160.138 276.310, 157.636 276.777, 155.732 279 M 296.614 278.563 C 296.250 279.512, 296.731 280, 298.031 280 C 300.307 280, 300.669 278.471, 298.583 277.670 C 297.803 277.371, 296.917 277.773, 296.614 278.563 M 195.543 283.345 C 193.763 284.646, 193.765 284.707, 195.602 285.248 C 196.646 285.555, 201.325 287.160, 206 288.814 C 210.675 290.468, 216.300 292.146, 218.500 292.544 L 222.500 293.266 220.076 290.633 C 218.415 288.829, 216.631 288, 214.409 288 C 212.626 288, 211.010 287.531, 210.819 286.958 C 210.628 286.385, 209.353 285.777, 207.986 285.606 C 202.875 284.969, 199.050 283.728, 199.575 282.878 C 200.417 281.517, 197.597 281.843, 195.543 283.345 M 174.989 284.007 C 172.946 285.270, 174.578 287.744, 178.911 289.955 C 183.189 292.137, 187.498 292.621, 188.482 291.029 C 188.812 290.495, 187.942 289.772, 186.548 289.423 C 185.154 289.073, 184.262 288.385, 184.566 287.893 C 184.870 287.402, 184.641 287, 184.059 287 C 183.477 287, 183 286.550, 183 286 C 183 285.450, 184.827 285, 187.059 285 C 189.499 285, 190.873 284.603, 190.503 284.004 C 189.784 282.841, 176.872 282.843, 174.989 284.007 M 234 285.590 C 237.025 286.925, 241.300 288.885, 243.500 289.946 L 247.500 291.876 241.809 291.938 C 238.679 291.972, 235.847 292.439, 235.515 292.975 C 235.184 293.512, 233.582 293.796, 231.956 293.607 C 226.317 292.950, 228.912 295.740, 236.956 298.982 C 241.332 300.746, 245.495 302.895, 246.206 303.758 C 247.356 305.152, 247.054 305.256, 243.500 304.692 C 238.580 303.910, 234.963 304.741, 235.637 306.497 C 235.912 307.213, 235.622 308.115, 234.994 308.504 C 233.279 309.564, 227.960 309.744, 227.353 308.763 C 227.061 308.290, 226.255 308.373, 225.563 308.948 C 224.650 309.705, 223.807 309.444, 222.497 307.996 C 221.503 306.898, 219.545 306, 218.145 306 C 216.166 306, 215.867 306.267, 216.800 307.200 C 218.466 308.866, 218.301 310.053, 216.500 309.362 C 213.889 308.360, 214.864 310.285, 219.208 314.712 C 223.635 319.223, 223.525 319.585, 218.194 318.056 C 215.189 317.194, 214.955 317.282, 215.518 319.056 C 215.858 320.127, 215.670 321, 215.099 321 C 214.529 321, 214.322 321.675, 214.638 322.500 C 215.391 324.461, 214.463 324.396, 207.492 321.997 C 204.291 320.896, 201.479 320.187, 201.244 320.423 C 200.334 321.333, 208.948 326.115, 218.500 330.001 C 238.649 338.199, 250.732 340.868, 253.800 337.800 C 254.669 336.931, 255 329.772, 255 311.873 L 255 287.145 252.365 285.073 C 250.057 283.257, 248.414 283.010, 239.115 283.082 L 228.500 283.164 234 285.590 M 128.473 285.372 C 127.388 286.127, 125.075 287.054, 123.334 287.433 C 121.592 287.812, 119.899 288.821, 119.571 289.675 C 119.200 290.642, 118.227 291.031, 116.988 290.707 C 115.895 290.421, 115 290.545, 115 290.983 C 115 293.515, 124.083 300, 127.629 300 C 128.959 300, 128.884 299.468, 127.133 296.500 C 125.997 294.575, 125.262 293, 125.499 293 C 125.737 293, 128.797 294.575, 132.299 296.500 C 138.410 299.859, 143 300.982, 143 299.117 C 143 298.631, 142.100 297.998, 141 297.710 C 139.900 297.423, 139 296.725, 139 296.161 C 139 295.597, 139.900 294.849, 141 294.500 C 143.642 293.662, 143.524 292.816, 140.384 290.086 C 138.694 288.616, 136.924 287.973, 135.384 288.267 C 132.806 288.760, 132.203 287.197, 134.200 285.200 C 135.951 283.449, 131.024 283.597, 128.473 285.372 M 145.250 284.662 C 142.637 285.717, 144.221 286.988, 150.605 288.960 C 157.731 291.161, 163 291.603, 163 290 C 163 289.450, 162.325 289, 161.500 289 C 160.675 289, 160 288.518, 160 287.929 C 160 285.417, 156.995 284.002, 151.821 284.079 C 148.895 284.122, 145.938 284.385, 145.250 284.662 M 365.733 294.124 C 366.412 294.808, 367.219 295.115, 367.526 294.807 C 367.834 294.499, 367.279 293.940, 366.293 293.564 C 364.868 293.022, 364.753 293.136, 365.733 294.124 M 144 295.031 C 144 295.564, 144.675 296, 145.500 296 C 146.325 296, 147 295.823, 147 295.607 C 147 295.391, 146.325 294.955, 145.500 294.638 C 144.675 294.322, 144 294.499, 144 295.031 M 310 294.922 C 308.075 295.302, 303.805 296.849, 300.512 298.360 L 294.524 301.107 298.964 303.095 C 305.347 305.953, 314.649 307.066, 317.912 305.362 C 320.155 304.191, 320.544 304.217, 320.834 305.559 C 321.112 306.850, 321.432 306.891, 322.771 305.803 C 324.145 304.686, 324.281 304.750, 323.719 306.250 C 323.030 308.087, 323.782 308.405, 326.418 307.393 C 328.453 306.612, 328.469 305, 326.441 305 C 325.584 305, 325.160 304.550, 325.500 304 C 325.840 303.450, 328.454 302.993, 331.309 302.985 C 337.768 302.966, 340.553 301.561, 335.956 300.641 C 334.193 300.289, 331.504 300, 329.980 300 C 327.193 300, 313.507 296.140, 314.153 295.536 C 314.344 295.358, 317.360 295.807, 320.856 296.534 C 327.001 297.812, 330 297.637, 330 296 C 330 295.568, 329.288 294.941, 328.418 294.607 C 326.378 293.824, 314.529 294.027, 310 294.922 M 331 296.833 C 331 297.292, 331.563 297.685, 332.250 297.708 C 332.938 297.730, 334.850 298.056, 336.500 298.432 L 339.500 299.114 337 297.592 C 334.265 295.928, 331 295.515, 331 296.833 M 345.500 299 C 345.160 299.550, 345.359 300, 345.941 300 C 346.523 300, 347 299.550, 347 299 C 347 298.450, 346.802 298, 346.559 298 C 346.316 298, 345.840 298.450, 345.500 299 M 352.369 300.691 C 352.458 301.778, 350.258 303.218, 345.517 305.179 C 336.128 309.061, 335.468 310.067, 343.701 307.948 C 352.997 305.554, 357.897 303.691, 358.030 302.500 C 358.091 301.950, 356.813 300.958, 355.189 300.296 C 352.640 299.255, 352.255 299.309, 352.369 300.691 M 200.500 304 C 200.135 304.591, 201.236 304.994, 203.191 304.985 C 205.695 304.973, 206.135 304.734, 205 304 C 203.056 302.744, 201.276 302.744, 200.500 304 M 358.406 305.903 C 354.331 308.134, 353.986 308.547, 355.961 308.836 C 358.338 309.185, 366.599 306.458, 367.478 305.036 C 368.769 302.947, 362.753 303.522, 358.406 305.903 M 282.244 306.976 C 275.905 309.853, 271.287 313.737, 270.077 317.209 C 268.470 321.818, 268.677 343.176, 270.350 345.465 C 271.934 347.630, 270.159 348.068, 293.896 339.640 C 310.553 333.726, 318.135 330.261, 312.500 331.139 C 311.400 331.310, 309.938 331.097, 309.250 330.666 C 308.563 330.235, 308 330.246, 308 330.691 C 308 331.136, 306.762 331.558, 305.250 331.629 C 302.751 331.746, 293.373 332.730, 291.338 333.089 C 288.888 333.521, 288.897 332.717, 291.369 330.136 L 294.113 327.273 288.806 326.568 C 284.611 326.010, 283.867 325.657, 285.250 324.882 C 287.323 323.720, 287.563 322, 285.653 322 C 284.912 322, 283.268 321.100, 282 320 C 280.732 318.900, 278.638 318, 277.347 318 C 276.056 318, 275 317.606, 275 317.125 C 275 315.611, 280.335 315.096, 291.096 315.569 C 299.433 315.936, 301.053 315.796, 299.250 314.861 C 298.012 314.219, 297 313.349, 297 312.927 C 297 312.504, 295.590 311.849, 293.867 311.471 C 291.562 310.965, 291.099 310.551, 292.117 309.907 C 293.188 309.228, 293.068 309.027, 291.583 309.015 C 290.529 309.007, 289.963 308.704, 290.325 308.342 C 291.162 307.505, 289.121 304.993, 287.628 305.022 C 287.007 305.034, 284.585 305.913, 282.244 306.976 M 181 319.458 C 181 320.219, 195.150 324.184, 195.745 323.589 C 196.698 322.636, 187.660 319.045, 184.250 319.022 C 182.463 319.010, 181 319.206, 181 319.458 M 196 333.923 L 193.500 334.647 195.837 335.419 C 198.614 336.335, 205 335.315, 205 333.955 C 205 332.865, 199.720 332.846, 196 333.923 M 318.529 336.954 C 318.146 337.573, 318.876 338, 320.316 338 C 321.655 338, 324.269 338.237, 326.125 338.527 C 329.286 339.020, 329.341 338.982, 327 337.932 C 323.227 336.238, 319.254 335.780, 318.529 336.954 M 317.500 434.839 C 318.944 436.274, 321.517 436.668, 321.811 435.500 C 321.949 434.950, 320.811 434.353, 319.281 434.173 C 317.436 433.956, 316.837 434.180, 317.500 434.839 M 176 444.319 C 176 445.109, 176.670 446.311, 177.489 446.991 C 178.308 447.671, 178.751 448.595, 178.473 449.044 C 177.503 450.614, 180.012 451.105, 181.976 449.729 C 183.910 448.375, 183.893 448.298, 181.228 446.357 C 176.685 443.051, 176 442.783, 176 444.319 M 230 447.500 C 230 448.325, 230.177 449, 230.393 449 C 230.609 449, 231.045 448.325, 231.362 447.500 C 231.678 446.675, 231.501 446, 230.969 446 C 230.436 446, 230 446.675, 230 447.500 M 97.813 450.683 C 98.534 450.972, 99.397 450.936, 99.729 450.604 C 100.061 450.272, 99.471 450.036, 98.417 450.079 C 97.252 450.127, 97.015 450.364, 97.813 450.683 M 397.702 452.667 C 397.984 453.400, 398.616 454, 399.107 454 C 399.598 454, 400 453.400, 400 452.667 C 400 451.933, 399.368 451.333, 398.595 451.333 C 397.823 451.333, 397.421 451.933, 397.702 452.667 M 182 453.031 C 182 453.564, 182.675 454, 183.500 454 C 184.325 454, 185 453.823, 185 453.607 C 185 453.391, 184.325 452.955, 183.500 452.638 C 182.675 452.322, 182 452.499, 182 453.031 M 367 453.465 C 367 455.672, 363.351 457.356, 362.631 455.482 C 361.783 453.270, 360.687 453.683, 358.854 456.907 L 357.207 459.801 359.912 459.025 C 365.179 457.515, 368.953 455.042, 368.359 453.492 C 367.629 451.591, 367 451.579, 367 453.465 M 383 453.480 C 383 454.165, 390.587 457.943, 395.309 459.609 C 402.039 461.983, 400.699 460.257, 392.917 456.528 C 386.086 453.254, 383 452.305, 383 453.480 M 214 455.559 C 214 456.416, 214.450 456.840, 215 456.500 C 215.550 456.160, 216 455.459, 216 454.941 C 216 454.423, 215.550 454, 215 454 C 214.450 454, 214 454.702, 214 455.559 M 182 457.216 L 178.500 459.187 181.987 458.571 C 185.568 457.939, 189.999 454.869, 186.964 455.123 C 186.159 455.190, 183.925 456.132, 182 457.216 M 228.800 457.200 C 229.733 458.133, 230.267 458.133, 231.200 457.200 C 232.133 456.267, 231.867 456, 230 456 C 228.133 456, 227.867 456.267, 228.800 457.200 M 102.500 463.536 C 100.850 464.292, 100.175 464.914, 101 464.919 C 101.825 464.925, 103.625 464.286, 105 463.500 C 108.162 461.693, 106.473 461.717, 102.500 463.536" stroke="none" fill="black" fill-rule="evenodd"/>
</svg>