<svg width="114" height="67" viewBox="0 0 114 67" fill="none" xmlns="http://www.w3.org/2000/svg">
<path fill-rule="evenodd" clip-rule="evenodd" d="M10.7262 54.7193C9.48259 53.7866 8.23897 53.3202 7.1508 53.4757C5.59628 53.4757 4.35266 53.942 3.41995 55.0302C2.33178 56.1184 1.86542 57.5174 1.86542 59.0719C1.86542 60.6265 2.33178 61.8701 3.10904 62.9583C4.04176 64.0464 5.28538 64.5128 6.99535 64.6682C8.23897 64.6682 9.48259 64.2019 10.5708 63.2692V65.29C10.2599 65.4455 9.7935 65.7564 9.01623 65.9119C8.23897 66.2228 7.46171 66.2228 6.68445 66.2228C4.50811 66.2228 2.79814 65.4455 1.55452 64.0464C0.310897 62.6474 -0.310913 60.9374 -0.310913 58.9165C-0.310913 56.8956 0.466349 55.1856 1.86542 53.7866C3.26449 52.3875 4.97447 51.6102 6.8399 51.6102C7.92807 51.6102 9.17169 51.9211 10.4153 52.5429L10.7262 54.7193Z" fill="#656363"/>
<path fill-rule="evenodd" clip-rule="evenodd" d="M26.8933 59.0719C26.8933 61.0928 26.116 62.8028 24.717 64.2019C23.3179 65.6009 21.6079 66.3782 19.587 66.3782C17.7216 66.3782 16.0116 65.7564 14.6126 64.3573C13.2135 62.9583 12.4362 61.2483 12.4362 59.3829C12.4362 57.0511 13.058 55.1856 14.4571 53.7866C15.8562 52.3875 17.5661 51.6102 19.8979 51.6102C21.7634 51.6102 23.4733 52.3875 24.8724 53.7866C26.2715 55.1856 26.8933 56.8956 26.8933 59.0719ZM25.0279 58.9165C25.0279 57.362 24.5615 56.1184 23.4733 55.0302C22.3852 53.942 21.1416 53.4757 19.7425 53.4757C18.188 53.4757 16.9443 53.942 15.8562 55.0302C14.768 56.1184 14.3016 57.362 14.3016 58.9165C14.3016 60.471 14.768 61.7146 15.8562 62.8028C16.9443 63.891 18.188 64.3573 19.587 64.3573C21.1416 64.3573 22.3852 63.7355 23.4733 62.6474C24.4061 61.7146 25.0279 60.471 25.0279 58.9165Z" fill="#656363"/>
<path fill-rule="evenodd" clip-rule="evenodd" d="M39.6404 66.3782H37.6195L35.9095 63.1137H30.0023L28.4478 66.3782H26.4269L32.8005 52.0766L39.6404 66.3782ZM35.2877 61.5592L32.9559 56.4292L30.7796 61.5592H35.2877Z" fill="#656363"/>
<path fill-rule="evenodd" clip-rule="evenodd" d="M53.942 65.9119L43.5267 56.5847V66.3782H41.6613V51.9211L52.0766 61.2483V51.4548H53.942V65.9119Z" fill="#656363"/>
<path d="M58.1392 51.4548H56.2738V66.2228H58.1392V51.4548Z" fill="#656363"/>
<path fill-rule="evenodd" clip-rule="evenodd" d="M75.5499 66.3782H73.0626L71.3527 64.9791C71.0418 65.29 70.42 65.601 69.7981 65.9119C68.8654 66.2228 68.0882 66.3782 67.3109 66.3782C65.1346 66.2228 63.4246 65.4455 62.0255 64.0464C60.7819 62.6474 60.1601 60.9374 60.1601 58.9165C60.1601 56.7402 60.7819 55.0302 62.3364 53.6311C63.7355 52.232 65.6009 51.6102 67.6218 51.6102C69.6427 51.6102 71.3527 52.3875 72.7517 53.7866C73.9954 55.1856 74.7726 56.8956 74.7726 58.9165C74.7726 59.8492 74.4617 60.9374 73.9954 62.0255C73.529 62.9583 73.2181 63.5801 72.7517 63.891L75.5499 66.3782ZM72.7517 58.9165C72.7517 57.362 72.2854 56.1184 71.1972 55.0302C70.109 53.942 68.8654 53.3202 67.3109 53.3202C65.7564 53.3202 64.5128 53.7866 63.4246 55.0302C62.3364 56.1184 61.8701 57.5174 61.8701 59.0719C61.8701 60.6265 62.3364 61.8701 63.4246 62.9583C64.5128 64.0464 65.7564 64.5128 67.1555 64.5128C68.0882 64.5128 69.0209 64.2019 69.7981 63.7355L67.1555 61.0928H69.4872L71.1972 62.6474C72.2854 61.5592 72.7517 60.3156 72.7517 58.9165Z" fill="#656363"/>
<path fill-rule="evenodd" clip-rule="evenodd" d="M96.0696 66.3782H88.9188V51.6102H96.0696V53.4757H90.6287V57.2065H96.0696V58.9165H90.6287V64.5128H96.0696V66.3782Z" fill="#656363"/>
<path fill-rule="evenodd" clip-rule="evenodd" d="M113.791 66.3782H111.926L110.06 57.8283L105.863 65.9118L101.666 58.1392L99.8005 66.3782H97.935L100.889 52.0766L105.863 61.7146L110.838 52.0766L113.791 66.3782Z" fill="#656363"/>
<path d="M86.8979 51.1439V61.5592C86.8979 64.3573 84.7215 66.5337 81.9234 66.5337H81.3016C78.5034 66.5337 76.3271 64.3573 76.3271 61.5592V51.1439H78.8143V51.2993V61.4037C78.8143 62.9583 80.058 64.0464 81.457 64.0464H81.7679C83.3224 64.0464 84.4106 62.8028 84.4106 61.4037V51.2993V51.1439H86.8979Z" fill="#656363"/>
<path d="M33.8886 0.310913H70.5754V16.7889H50.0557V37.464H33.8886V0.310913Z" fill="#DEDDDE"/>
<path fill-rule="evenodd" clip-rule="evenodd" d="M70.5753 16.7889C69.4872 7.46173 61.7145 0.310913 52.3874 0.310913C42.283 0.310913 34.044 8.70535 34.044 18.9652C34.044 28.4478 41.0394 36.3759 50.2111 37.464V27.826C46.3247 26.7378 43.3712 23.1624 43.3712 18.8098C43.3712 13.6798 47.4129 9.48261 52.5428 9.48261C56.8955 9.48261 60.4709 12.5917 61.4036 16.6334L70.5753 16.7889Z" fill="#DA3832"/>
<path d="M79.9025 19.1207H52.232V46.7912H79.9025V19.1207Z" fill="#DEDDDE"/>
<path d="M61.4037 19.1207H70.7308V28.2924H79.9025V37.4641H70.7308V46.6357H61.4037V37.4641H52.232V28.2924H61.4037V19.1207Z" fill="#DA3832"/>
</svg>
