<svg xmlns="http://www.w3.org/2000/svg" viewBox="0 0 89.29 98.82" fill="white">
    <title><script xmlns=""/>r.com_2017</title>
    <path d="M89.27,95.24c0-.63-.8-.82-.8-.82-8-1.48-15.47-7.05-21.12-13a138.74,138.74,0,0,1-20-27.73c-.89-2.07.38-2.29.38-2.29v0c15.59-6,18.16-21.57,18.16-25.83C65.87,5.83,47.19,0,30.35,0,24,0,21.87.53,15.25.53,7.55.53,2.92,0,1.73,0A1.82,1.82,0,0,0,0,2C0,6.76,10.87-1.33,10.87,14.58V78.06C10.87,92.77.53,88.67.53,92.25c0,1.2,1.32,1.59,2.11,1.59,3.85,0,8.22-.53,14.45-.53,7.83,0,9.81.53,14.32.53,3.31,0,3.84-.66,3.84-1.59,0-4.5-13.91,2.39-13.91-16.7V8.62c0-4,2.92-4,7.16-4,15.24,0,27.3,8.49,27.56,24.52.18,10.87-8,21.19-21.47,21.19a23.53,23.53,0,0,1-4.78-.28c-.66,0-1.33.27-1.33,1.19,0,1.21,1,1.84,2.13,2.17,1.49.65,4.9,1.19,8.45,6.65h0c9,14.8,19.2,37,42.39,37,8.68,0,7.8-1,7.8-1.82"/>
<script xmlns=""/></svg>